<svg width="16" height="16" viewBox="0 0 16 16" fill="none" xmlns="http://www.w3.org/2000/svg">
<path d="M5 12.5C4.175 12.5 3.5 13.175 3.5 14C3.5 14.825 4.175 15.5 5 15.5C5.825 15.5 6.5 14.825 6.5 14C6.5 13.175 5.825 12.5 5 12.5ZM0.5 0.5V2H2L4.7 7.7L3.65 9.5C3.575 9.725 3.5 10.025 3.5 10.25C3.5 11.075 4.175 11.75 5 11.75H14V10.25H5.3C5.225 10.25 5.15 10.175 5.15 10.1V10.025L5.825 8.74997H11.375C11.975 8.74997 12.425 8.44997 12.65 7.99997L15.35 3.125C15.5 2.975 15.5 2.9 15.5 2.75C15.5 2.3 15.2 2 14.75 2H3.65L2.975 0.5H0.5ZM12.5 12.5C11.675 12.5 11 13.175 11 14C11 14.825 11.675 15.5 12.5 15.5C13.325 15.5 14 14.825 14 14C14 13.175 13.325 12.5 12.5 12.5Z" fill="white"/>
</svg>
