<svg width="18" height="16" viewBox="0 0 18 16" fill="none" xmlns="http://www.w3.org/2000/svg">
<path d="M9.12506 3.39227C8.2772 3.39227 7.55281 3.75712 7.2348 4.34415C7.16591 4.47103 7.21315 4.62963 7.34003 4.69837C7.46691 4.76726 7.62551 4.72002 7.69426 4.59314C7.91753 4.18119 8.47909 3.9149 9.12506 3.9149C9.77117 3.9149 10.3327 4.18119 10.556 4.59314C10.6034 4.68054 10.6932 4.7301 10.7859 4.7301C10.828 4.7301 10.8708 4.71988 10.9102 4.69851C11.0371 4.62976 11.0842 4.47116 11.0155 4.34415C10.6975 3.75712 9.97306 3.39227 9.12506 3.39227Z" fill="#00B341"/>
<path d="M11.7933 3.71794C11.8407 3.8052 11.9305 3.85476 12.0232 3.85476C12.0653 3.85476 12.108 3.84455 12.1475 3.82318C12.2744 3.75443 12.3215 3.59583 12.2527 3.46895C11.7317 2.50741 10.5339 1.91031 9.12648 1.91031C7.71923 1.91031 6.52136 2.50754 6.00036 3.46895C5.93161 3.59583 5.97872 3.75443 6.1056 3.82318C6.23248 3.89192 6.39108 3.84482 6.45983 3.71794C6.88934 2.92535 7.91119 2.43294 9.12648 2.43294C10.3419 2.43294 11.3638 2.92521 11.7933 3.71794Z" fill="#00B341"/>
<path d="M4.79687 3.13744C4.92389 3.20632 5.08235 3.15922 5.15124 3.03234C5.79598 1.84345 7.31977 1.10491 9.12794 1.10491C10.936 1.10491 12.4598 1.84345 13.1047 3.03234C13.1519 3.1196 13.2417 3.16916 13.3346 3.16916C13.3767 3.16916 13.4193 3.15895 13.4589 3.13744C13.5858 3.06869 13.6329 2.91009 13.564 2.78321C12.8277 1.42565 11.1279 0.582275 9.12794 0.582275C7.12795 0.582275 5.42814 1.42565 4.69177 2.78321C4.62302 2.91009 4.67013 3.06869 4.79687 3.13744Z" fill="#00B341"/>
<path d="M14.145 8.55309C14.5195 8.55309 14.8242 8.24801 14.8242 7.87295C14.8242 7.49789 14.5195 7.19281 14.145 7.19281C13.7701 7.19281 13.4648 7.49789 13.4648 7.87295C13.4648 8.24801 13.7701 8.55309 14.145 8.55309ZM14.145 7.71544C14.2314 7.71544 14.3015 7.7861 14.3015 7.87295C14.3015 7.95845 14.2299 8.0306 14.145 8.0306C14.0581 8.0306 13.9875 7.95981 13.9875 7.87295C13.9875 7.7861 14.0583 7.71544 14.145 7.71544Z" fill="#00B341"/>
<path d="M14.145 9.34244C13.7701 9.34244 13.4648 9.64766 13.4648 10.0227C13.4648 10.3978 13.7701 10.7029 14.145 10.7029C14.5195 10.7029 14.8242 10.3978 14.8242 10.0227C14.8242 9.64766 14.5195 9.34244 14.145 9.34244ZM14.145 10.1802C14.0581 10.1802 13.9875 10.1096 13.9875 10.0227C13.9875 9.93586 14.0581 9.86507 14.145 9.86507C14.2299 9.86507 14.3015 9.93722 14.3015 10.0227C14.3017 10.1096 14.2314 10.1802 14.145 10.1802Z" fill="#00B341"/>
<path d="M13.7509 8.94778C13.7509 8.57286 13.4458 8.26764 13.0708 8.26764C12.6957 8.26764 12.3906 8.57272 12.3906 8.94778C12.3906 9.32284 12.6957 9.62806 13.0708 9.62806C13.4458 9.62806 13.7509 9.32284 13.7509 8.94778ZM13.0708 9.10543C12.9839 9.10543 12.9133 9.03477 12.9133 8.94778C12.9133 8.86093 12.9839 8.79027 13.0708 8.79027C13.1576 8.79027 13.2284 8.86093 13.2284 8.94778C13.2284 9.03477 13.1576 9.10543 13.0708 9.10543Z" fill="#00B341"/>
<path d="M15.2193 8.26764C14.8443 8.26764 14.5391 8.57272 14.5391 8.94778C14.5391 9.32284 14.8443 9.62806 15.2193 9.62806C15.5944 9.62806 15.8995 9.32284 15.8995 8.94778C15.8995 8.57286 15.5944 8.26764 15.2193 8.26764ZM15.2193 9.10543C15.1325 9.10543 15.0617 9.03477 15.0617 8.94778C15.0617 8.86093 15.1325 8.79027 15.2193 8.79027C15.3062 8.79027 15.3769 8.86093 15.3769 8.94778C15.3769 9.03477 15.3062 9.10543 15.2193 9.10543Z" fill="#00B341"/>
<path d="M6.64065 9.94806C5.95792 9.94806 5.40234 10.5035 5.40234 11.1864C5.40234 11.8692 5.95792 12.4247 6.64065 12.4247C7.32351 12.4247 7.87895 11.8691 7.87895 11.1864C7.87895 10.5035 7.32351 9.94806 6.64065 9.94806ZM6.64065 11.9022C6.24599 11.9022 5.92498 11.581 5.92498 11.1864C5.92498 10.7917 6.24599 10.4707 6.64065 10.4707C7.03531 10.4707 7.35646 10.7917 7.35646 11.1864C7.35646 11.581 7.03531 11.9022 6.64065 11.9022Z" fill="#00B341"/>
<path d="M17.8802 12.9585L16.6216 7.76298C16.4406 7.01572 16.081 6.44612 15.553 6.06998C15.444 5.99238 15.3285 5.9239 15.2074 5.86482V5.75781C15.2074 5.21394 14.7654 4.7715 14.2221 4.7715H13.6363C13.0923 4.7715 12.6498 5.21394 12.6498 5.75781V5.90879C12.4389 6.02369 12.2725 6.16378 12.1725 6.31856H9.65208C9.50778 6.31856 9.3907 6.43551 9.3907 6.57981C9.3907 6.72412 9.50778 6.84119 9.65208 6.84119H12.0768V7.37513C12.0768 7.67013 11.8372 7.91014 11.5429 7.91014H6.61336C6.31848 7.91014 6.07847 7.67013 6.07847 7.37513V6.84119H8.44495C8.58926 6.84119 8.7062 6.72412 8.7062 6.57981C8.7062 6.43551 8.58926 6.31856 8.44495 6.31856H5.98277C5.88312 6.16405 5.71703 6.0241 5.50643 5.9092V5.75781C5.50643 5.21394 5.06398 4.77136 4.51997 4.77136H3.93526C3.39126 4.77136 2.94881 5.21394 2.94881 5.75781V5.86468C2.82806 5.92376 2.71289 5.99211 2.60411 6.06943C2.07563 6.44544 1.71582 7.01531 1.53462 7.76298L0.276027 12.9584C0.0907443 13.7228 0.120558 14.3695 0.364517 14.8805C0.582745 15.3374 0.961207 15.6599 1.45906 15.8129C2.52597 16.141 3.77517 15.5935 4.13239 14.6412L4.73698 13.0308C4.81471 12.8236 4.87638 12.7973 4.87706 12.7971C4.88414 12.7954 4.93152 12.8016 5.02137 12.8672C5.86801 13.6359 7.25457 13.6027 8.16764 12.8061H9.98848C10.4109 13.1748 10.9477 13.3932 11.5116 13.4236C12.1272 13.4567 12.7028 13.2591 13.1347 12.8672C13.236 12.7931 13.2784 12.7967 13.2788 12.7971C13.2793 12.7973 13.3409 12.8235 13.4191 13.0307L14.0228 14.6412C14.3097 15.4052 15.1705 15.9086 16.0505 15.9085C16.2678 15.9085 16.4863 15.8779 16.6976 15.8128C17.1953 15.6596 17.5736 15.3371 17.7917 14.8801C18.0357 14.3692 18.0655 13.7227 17.8802 12.9585ZM13.6361 5.29399H14.2219C14.4489 5.29399 14.6378 5.45858 14.677 5.67491C14.4602 5.62222 14.2324 5.59445 13.997 5.59363C13.9934 5.59363 13.9898 5.59363 13.9863 5.59363C13.7033 5.59363 13.427 5.63257 13.1761 5.70118C13.2043 5.4722 13.3997 5.29399 13.6361 5.29399ZM3.93526 5.29399H4.51997C4.75658 5.29399 4.95194 5.4722 4.97998 5.70132C4.72922 5.6327 4.45286 5.59363 4.16983 5.59363C4.16683 5.59363 4.16384 5.59363 4.16084 5.59363C3.92492 5.59431 3.69661 5.62208 3.4792 5.67491C3.51855 5.45858 3.70778 5.29399 3.93526 5.29399ZM16.5439 15.3133C15.8203 15.536 14.7975 15.2173 14.5122 14.4575L13.9083 12.8466C13.7909 12.536 13.6326 12.3557 13.4243 12.2953C13.2334 12.2397 13.0272 12.2942 12.8113 12.4566C12.8045 12.4618 12.7978 12.4673 12.7915 12.4731C12.1192 13.0914 10.9879 13.0387 10.2699 12.3556C10.2213 12.3093 10.1567 12.2836 10.0898 12.2836H8.06649C7.99951 12.2836 7.93498 12.3093 7.88638 12.3556C7.16785 13.0391 6.03668 13.0919 5.36484 12.4732C5.35844 12.4673 5.35177 12.4618 5.34483 12.4566C5.12864 12.2939 4.92212 12.2397 4.73085 12.2954C4.52229 12.3561 4.36423 12.5366 4.2477 12.8472L3.64311 14.4575C3.35818 15.2173 2.33606 15.536 1.61262 15.3136C0.80247 15.0643 0.500382 14.2509 0.78382 13.0816L2.04241 7.88618C2.26976 6.94806 2.77456 6.49677 3.27704 6.28684C3.29814 6.28126 3.31829 6.27323 3.33694 6.26275C3.63671 6.14866 3.93172 6.11694 4.16234 6.11626C4.55251 6.11572 4.88904 6.19944 5.13477 6.30672C5.13899 6.30863 5.14321 6.31067 5.1477 6.31244C5.3711 6.41195 5.51664 6.53053 5.55571 6.62106V7.37513C5.55571 7.9582 6.03015 8.43264 6.61322 8.43264H11.5428C12.1253 8.43264 12.5993 7.9582 12.5993 7.37513V6.6212C12.638 6.53175 12.7804 6.41481 12.9987 6.31598C13.0115 6.31135 13.0239 6.30617 13.0356 6.29978C13.2784 6.19618 13.6061 6.11626 13.9856 6.11626H13.995C14.2253 6.11708 14.5201 6.14894 14.8194 6.26302C14.8378 6.27323 14.8577 6.28113 14.8785 6.28671C15.3811 6.49649 15.8862 6.94779 16.1136 7.88605L17.3722 13.0816C17.6557 14.2506 17.3538 15.064 16.5439 15.3133Z" fill="#00B341"/>
<path d="M11.7188 9.94806C11.0359 9.94806 10.4805 10.5035 10.4805 11.1864C10.4805 11.8692 11.0359 12.4247 11.7188 12.4247C12.4015 12.4247 12.9571 11.8691 12.9571 11.1864C12.9571 10.5035 12.4015 9.94806 11.7188 9.94806ZM11.7188 11.9022C11.3241 11.9022 11.0031 11.581 11.0031 11.1864C11.0031 10.7917 11.3241 10.4707 11.7188 10.4707C12.1134 10.4707 12.4344 10.7917 12.4344 11.1864C12.4344 11.581 12.1134 11.9022 11.7188 11.9022Z" fill="#00B341"/>
<path d="M4.83354 8.26665H4.75404V8.18715C4.75404 7.74511 4.39436 7.38544 3.95233 7.38544C3.51029 7.38544 3.15061 7.74511 3.15061 8.18715V8.26665H3.07111C2.62907 8.26665 2.26953 8.62633 2.26953 9.06837C2.26953 9.51041 2.62907 9.87008 3.07111 9.87008H3.15061V9.94958C3.15061 10.3916 3.51029 10.7513 3.95233 10.7513C4.39436 10.7513 4.75404 10.3916 4.75404 9.94958V9.87008H4.83354C5.27558 9.87008 5.63526 9.51041 5.63526 9.06837C5.63526 8.62633 5.27558 8.26665 4.83354 8.26665ZM4.83354 9.34745H4.49279C4.34848 9.34745 4.23141 9.46439 4.23141 9.6087V9.94958C4.23141 10.1034 4.1063 10.2287 3.95233 10.2287C3.79849 10.2287 3.67338 10.1034 3.67338 9.94958V9.6087C3.67338 9.46439 3.5563 9.34745 3.412 9.34745H3.07124C2.91741 9.34745 2.79216 9.2222 2.79216 9.06837C2.79216 8.91453 2.91741 8.78929 3.07124 8.78929H3.412C3.5563 8.78929 3.67338 8.67221 3.67338 8.5279V8.18715C3.67338 8.03318 3.79849 7.90807 3.95233 7.90807C4.1063 7.90807 4.23141 8.03318 4.23141 8.18715V8.5279C4.23141 8.67221 4.34848 8.78929 4.49279 8.78929H4.83354C4.98738 8.78929 5.11262 8.91453 5.11262 9.06837C5.11262 9.2222 4.98751 9.34745 4.83354 9.34745Z" fill="#00B341"/>
<path d="M8.39457 9.2338H8.01515C7.87085 9.2338 7.75391 9.35087 7.75391 9.49518C7.75391 9.63948 7.87085 9.75643 8.01515 9.75643H8.39457C8.53887 9.75643 8.65582 9.63948 8.65582 9.49518C8.65582 9.35087 8.53887 9.2338 8.39457 9.2338Z" fill="#00B341"/>
<path d="M10.1418 9.2338H9.76138C9.61708 9.2338 9.5 9.35087 9.5 9.49518C9.5 9.63948 9.61708 9.75643 9.76138 9.75643H10.1418C10.2861 9.75643 10.403 9.63948 10.403 9.49518C10.403 9.35087 10.2861 9.2338 10.1418 9.2338Z" fill="#00B341"/>
<path d="M9.36722 10.6031H8.98795C8.84364 10.6031 8.72656 10.7201 8.72656 10.8644C8.72656 11.0087 8.84364 11.1258 8.98795 11.1258H9.36722C9.51167 11.1258 9.62861 11.0087 9.62861 10.8644C9.62861 10.7201 9.51167 10.6031 9.36722 10.6031Z" fill="#00B341"/>
</svg>
