<svg width="18" height="16" viewBox="0 0 18 16" fill="none" xmlns="http://www.w3.org/2000/svg">
<path d="M15.9444 10.4411C16.0164 9.8039 16.0947 8.67751 15.9374 7.54099C15.9174 7.39642 15.7838 7.29527 15.6395 7.31555C15.4949 7.33552 15.394 7.46891 15.414 7.61345C15.5606 8.67234 15.4863 9.74927 15.4274 10.3076C15.2618 10.28 15.092 10.2654 14.9187 10.2654C14.5038 10.2654 14.1079 10.348 13.7463 10.4973C14.0067 9.71133 14.1635 8.82528 14.1849 7.98563C14.2143 6.83079 13.9937 5.76578 13.5442 4.87579H13.7653L13.9534 4.91341C14.4767 5.19021 14.8738 5.6974 15.1343 6.42437C15.1835 6.5618 15.3347 6.6332 15.4721 6.58398C15.6094 6.5348 15.6809 6.38355 15.6317 6.24615C15.4739 5.80558 15.2694 5.43242 15.0211 5.12696L15.1488 5.15249C15.3098 5.18469 15.4648 5.05742 15.4648 4.89344V3.20258C15.4648 3.0385 15.3098 2.9113 15.1488 2.94354L14.0557 3.16215V1.79348C14.0557 1.68548 13.99 1.58834 13.8897 1.54818L12.6309 1.04469C12.5425 0.52069 12.0858 0.120239 11.537 0.120239C10.9252 0.120239 10.4274 0.618007 10.4274 1.22986C10.4274 1.84172 10.9252 2.33949 11.537 2.33949C12.0209 2.33949 12.4331 2.02809 12.5845 1.59526L13.5273 1.97237V3.22013H10.9734C10.8275 3.22013 10.7092 3.33836 10.7092 3.48431C10.7092 3.63025 10.8274 3.74852 10.9734 3.74852H12.6819V4.61154C12.6819 4.7565 12.7986 4.874 12.9431 4.87558C14.1527 6.95075 13.584 9.60118 13.0454 10.8604C13.0379 10.8781 13.0325 10.8962 13.029 10.9143C12.9492 10.9764 12.8725 11.0423 12.7992 11.1118C12.7924 11.1113 12.7856 11.1108 12.7787 11.1108H10.3899C10.6139 10.419 10.7716 9.6067 10.6518 8.85759C10.5148 8.00085 10.0478 7.36193 9.26493 6.95673V5.45699C9.26493 5.31105 9.14669 5.19281 9.00075 5.19281H5.90087C4.97825 5.19281 4.22762 5.94344 4.22762 6.86606V6.88455C4.22179 6.88416 4.21595 6.88367 4.21001 6.88367H4.19239V5.15758H4.4918C4.63774 5.15758 4.75598 5.03935 4.75598 4.89337V3.48434C4.75598 3.3384 4.63774 3.22016 4.4918 3.22016H0.264672C0.118731 3.22016 0.000459074 3.3384 0.000459074 3.48434V4.89337C0.000459074 5.03931 0.118696 5.15758 0.264672 5.15758H0.564078V6.88367H0.264672C0.118731 6.88367 0.000459074 7.00194 0.000459074 7.14788C0.000459074 7.29382 0.118696 7.41206 0.264672 7.41206H3.23564C3.03288 7.51427 2.83937 7.62554 2.65613 7.74564C-0.0555828 9.5232 -0.0118111 12.1885 0.00260372 13.0644C0.0036233 13.1267 0.00534605 13.1892 0.00393972 13.2515C0.00284982 13.2994 -0.00295126 13.3451 0.010233 13.3922C0.0418401 13.5049 0.147525 13.5852 0.264637 13.5852H0.857402C0.977537 14.8629 2.05587 15.8663 3.36456 15.8663C4.67325 15.8663 5.75158 14.8629 5.87172 13.5852H9.00075C9.07047 13.5852 9.13734 13.5577 9.18678 13.5085C9.26247 13.4335 9.44972 13.155 9.66394 12.7664H11.8916C11.8556 12.9547 11.8364 13.149 11.8364 13.3477C11.8364 13.4936 11.9547 13.6119 12.1006 13.6119H12.414C12.5465 14.8769 13.6192 15.8664 14.9187 15.8664C16.2182 15.8664 17.2909 14.877 17.4234 13.6119H17.7368C17.8827 13.6119 18.001 13.4936 18.001 13.3477C18.0009 12.0075 17.1412 10.8647 15.9444 10.4411ZM14.0556 3.70091L14.9362 3.52477V4.57111L14.1268 4.40921C14.1032 4.39768 14.0797 4.38593 14.0556 4.37507V3.70091ZM11.537 1.8111C11.2165 1.8111 10.9557 1.55036 10.9557 1.22986C10.9557 0.909363 11.2165 0.64863 11.537 0.64863C11.8575 0.64863 12.1182 0.909363 12.1182 1.22986C12.1182 1.55036 11.8575 1.8111 11.537 1.8111ZM13.5272 4.34737H13.2102V3.74852H13.2278H13.5272V4.34737ZM4.75594 6.86606C4.75594 6.23476 5.2695 5.7212 5.90079 5.7212H8.73651V6.88367H4.75594V6.86606ZM0.528815 4.62919V3.74855H4.22755V4.62919H0.528815ZM1.09243 6.88367V5.15758H3.66393V6.88367H1.09243ZM3.36453 15.3379C2.34747 15.3379 1.50674 14.571 1.38892 13.5852H1.99382C2.10689 14.2396 2.67831 14.7391 3.36453 14.7391C4.05074 14.7391 4.62217 14.2396 4.73523 13.5852H5.34009C5.22231 14.571 4.38154 15.3379 3.36453 15.3379ZM2.53497 13.5851H4.19405C4.09061 13.9458 3.75801 14.2107 3.36449 14.2107C2.97097 14.2107 2.63841 13.9458 2.53497 13.5851ZM9.65364 11.5766C9.35349 12.2944 9.01225 12.8508 8.87053 13.0567H0.530959C0.530924 13.0564 0.530924 13.056 0.530924 13.0557C0.516299 12.1668 0.477519 9.80552 2.94576 8.18754C3.39613 7.89232 3.9163 7.65434 4.4918 7.48023C4.53599 7.46687 4.57407 7.44289 4.60416 7.41203H8.99622C9.62484 7.72894 9.99183 8.20586 10.1177 8.86996C10.2898 9.77824 9.96032 10.8432 9.65364 11.5766ZM12.0432 12.238H9.93571C9.99502 12.1142 10.0538 11.9854 10.1104 11.8531C10.1397 11.7845 10.1693 11.713 10.1987 11.6392H12.3545C12.23 11.8255 12.1252 12.0261 12.0432 12.238ZM14.9187 15.3379C13.8434 15.3379 12.9652 14.4807 12.9301 13.4139C13.1927 12.9536 13.4971 12.6331 13.867 12.4381C13.6556 12.6822 13.5272 13.0001 13.5272 13.3477C13.5272 14.1149 14.1514 14.7391 14.9186 14.7391C15.6859 14.7391 16.31 14.1149 16.31 13.3477C16.31 13.0367 16.2074 12.7491 16.0343 12.5172C16.4194 12.7547 16.7048 13.0926 16.9074 13.4087C16.8749 14.4779 15.9956 15.3379 14.9187 15.3379ZM14.0556 13.3476C14.0556 12.8717 14.4427 12.4846 14.9186 12.4846C15.3945 12.4846 15.7817 12.8717 15.7817 13.3476C15.7817 13.8235 15.3945 14.2107 14.9186 14.2107C14.4427 14.2107 14.0556 13.8235 14.0556 13.3476ZM17.3264 13.0834C16.7278 12.1734 15.8778 11.6744 14.9187 11.6744C13.549 11.6744 12.8883 12.4416 12.5104 13.0834H12.3784C12.511 11.7989 13.5997 10.7937 14.9187 10.7937C16.2377 10.7937 17.3264 11.7989 17.459 13.0834H17.3264Z" fill="#00B341"/>
<path d="M8.71842 8.57449H6.18215C6.03621 8.57449 5.91797 8.69273 5.91797 8.83871C5.91797 8.98465 6.03621 9.10288 6.18215 9.10288H8.71842C8.86436 9.10288 8.98263 8.98465 8.98263 8.83871C8.98263 8.69276 8.86436 8.57449 8.71842 8.57449Z" fill="#00B341"/>
<path d="M8.15428 10.2654H4.49078C4.34483 10.2654 4.22656 10.3836 4.22656 10.5295C4.22656 10.6755 4.34483 10.7937 4.49078 10.7937H8.15428C8.30022 10.7937 8.4185 10.6755 8.4185 10.5295C8.4185 10.3836 8.30026 10.2654 8.15428 10.2654Z" fill="#00B341"/>
<path d="M7.30825 11.9562H2.79933C2.65339 11.9562 2.53516 12.0744 2.53516 12.2204C2.53516 12.3663 2.65339 12.4846 2.79933 12.4846H7.30825C7.45419 12.4846 7.57247 12.3663 7.57247 12.2204C7.57247 12.0744 7.45419 11.9562 7.30825 11.9562Z" fill="#00B341"/>
</svg>
