<svg width="17" height="17" viewBox="0 0 17 17" fill="none" xmlns="http://www.w3.org/2000/svg">
<path d="M2.00124 14.1684C1.53241 14.1684 1.15234 14.5485 1.15234 15.0173C1.15234 15.4861 1.53241 15.8662 2.00124 15.8662C2.47008 15.8662 2.85014 15.4861 2.85014 15.0173C2.85014 14.5485 2.47008 14.1684 2.00124 14.1684ZM2.00124 15.3003C1.84496 15.3003 1.71828 15.1736 1.71828 15.0173C1.71828 14.861 1.84496 14.7343 2.00124 14.7343C2.15752 14.7343 2.28421 14.861 2.28421 15.0173C2.28421 15.1736 2.15752 15.3003 2.00124 15.3003Z" fill="#00B341"/>
<path d="M16.7081 13.8789C16.9918 13.5956 17.0768 13.1692 16.9233 12.7988C16.7698 12.4284 16.4081 12.1871 16.0072 12.1876H15.0168C14.7541 12.188 14.5023 12.292 14.3159 12.477L12.9075 13.8854H3.62341C3.54471 13.7732 3.45463 13.6695 3.3546 13.5758L3.77905 10.6525C3.81799 10.3817 3.75627 10.106 3.60559 9.87772L4.7168 2.28375H6.44629C6.66923 2.46539 6.94763 2.56525 7.2352 2.56672C7.93845 2.56672 8.50855 1.99662 8.50855 1.29337C8.50855 0.590117 7.93845 0.0200195 7.2352 0.0200195C6.94714 0.0211677 6.66819 0.121043 6.44487 0.302986H3.27367C3.01101 0.303316 2.75911 0.407352 2.57276 0.592461C2.32434 0.840726 2.22646 1.20225 2.31571 1.54193C2.40495 1.88162 2.66789 2.14834 3.00627 2.24244L1.92562 9.63409C1.71685 9.81052 1.57953 10.057 1.53937 10.3274L1.11492 13.2481C0.339682 13.6351 -0.0937425 14.4813 0.045283 15.3365C0.184308 16.1917 0.863457 16.857 1.72133 16.9784C2.57921 17.0999 3.41634 16.6492 3.78725 15.8661H13.2341C13.5521 16.5357 14.2179 16.9711 14.9587 16.994C15.6996 17.017 16.3911 16.6236 16.7499 15.9751C17.1088 15.3265 17.0747 14.5317 16.6617 13.9162C16.6761 13.9029 16.6939 13.893 16.7081 13.8789ZM3.09738 9.45016C3.00952 9.41165 2.91708 9.38455 2.82234 9.36951C2.72746 9.35735 2.63142 9.35735 2.53654 9.36951L3.5722 2.28375H4.14351L3.09738 9.45016ZM7.2352 0.585952C7.62589 0.585952 7.94261 0.902673 7.94261 1.29337C7.94261 1.68406 7.62589 2.00078 7.2352 2.00078C6.8445 2.00078 6.52778 1.68406 6.52778 1.29337C6.52778 0.902673 6.8445 0.585952 7.2352 0.585952ZM2.84922 1.29337C2.84877 1.18066 2.89334 1.07243 2.97304 0.992736C3.05274 0.913038 3.16096 0.868465 3.27367 0.868919L6.03995 0.868915C5.98965 1.00485 5.96323 1.14844 5.96185 1.29337C5.96323 1.43829 5.98965 1.58189 6.03995 1.71782H3.27367C3.03925 1.71782 2.84922 1.52779 2.84922 1.29337ZM2.09936 10.4088C2.14405 10.0993 2.43119 9.88467 2.7407 9.92936C3.05021 9.97406 3.26488 10.2612 3.22019 10.5707L2.83422 13.2229C2.48578 13.0566 2.09511 12.9997 1.71367 13.0597L2.09936 10.4088ZM2.00032 16.4321C1.21893 16.4321 0.585488 15.7986 0.585488 15.0172C0.585488 14.2358 1.21893 13.6024 2.00032 13.6024C2.78171 13.6024 3.41515 14.2358 3.41515 15.0172C3.41422 15.7982 2.78132 16.4311 2.00032 16.4321ZM3.89761 14.4513H13.0247C13.0997 14.4513 13.1717 14.4215 13.2247 14.3684L14.7163 12.8772C14.7962 12.7979 14.9042 12.7535 15.0168 12.7535H16.0072C16.1792 12.753 16.3346 12.8564 16.4005 13.0153C16.4665 13.1743 16.4299 13.3573 16.3079 13.4787C16.2628 13.5231 16.2087 13.5571 16.1492 13.5786C16.1037 13.5944 16.0559 13.6024 16.0077 13.6024H15.3111C15.236 13.6024 15.1641 13.6322 15.111 13.6853L13.6195 15.1765C13.5564 15.2388 13.4759 15.2804 13.3886 15.2957C13.3662 15.2979 13.3416 15.3002 13.319 15.3002H3.95845C4.00276 15.0163 3.98196 14.726 3.89761 14.4513ZM15.2997 15.0172C15.2997 15.1735 15.1731 15.3002 15.0168 15.3002C14.8605 15.3002 14.7338 15.1735 14.7338 15.0172C14.7338 14.861 14.8605 14.7343 15.0168 14.7343C15.1731 14.7343 15.2997 14.861 15.2997 15.0172ZM15.0168 16.4321C14.5176 16.4314 14.0559 16.167 13.8026 15.7368C13.882 15.6937 13.9552 15.6398 14.0199 15.5767L14.2397 15.3568C14.3912 15.7061 14.7568 15.9118 15.134 15.86C15.5112 15.8082 15.8078 15.5117 15.8596 15.1345C15.9113 14.7572 15.7056 14.3917 15.3563 14.2402L15.4282 14.1683H16.0072C16.0486 14.1674 16.09 14.1639 16.1311 14.1579C16.3251 14.4023 16.431 14.7051 16.4316 15.0172C16.4307 15.7982 15.7978 16.4311 15.0168 16.4321Z" fill="#00B341"/>
</svg>
