<svg width="16" height="20" viewBox="0 0 16 20" fill="none" xmlns="http://www.w3.org/2000/svg">
<path d="M14.2914 0.0483398H2.4584C1.51639 0.0483398 0.75 0.814726 0.75 1.75674V2.78414C0.75 2.94534 0.880682 3.07602 1.04188 3.07602C1.20307 3.07602 1.33375 2.94534 1.33375 2.78414V1.75674C1.33375 1.13661 1.83827 0.63209 2.4584 0.63209H14.2914C14.9116 0.63209 15.4161 1.13661 15.4161 1.75674V18.2687C15.4161 18.8888 14.9116 19.3934 14.2914 19.3934H2.4584C1.83827 19.3934 1.33375 18.8888 1.33375 18.2687V3.95165C1.33375 3.79045 1.20307 3.65977 1.04188 3.65977C0.880682 3.65977 0.75 3.79045 0.75 3.95165V18.2687C0.75 19.2107 1.51639 19.9771 2.4584 19.9771H14.2914C15.2334 19.9771 15.9998 19.2107 15.9998 18.2687V1.75674C15.9998 0.814726 15.2334 0.0483398 14.2914 0.0483398Z" fill="#00B341"/>
<path d="M1.91406 2.4394V13.4675C1.91406 13.6287 2.04474 13.7594 2.20594 13.7594C2.36713 13.7594 2.49781 13.6287 2.49781 13.4675V2.73127H14.2557V6.73401C14.2557 6.8952 14.3864 7.02589 14.5476 7.02589C14.7088 7.02589 14.8395 6.8952 14.8395 6.73401V2.4394C14.8395 2.2782 14.7088 2.14752 14.5476 2.14752H2.20594C2.04471 2.14752 1.91406 2.2782 1.91406 2.4394Z" fill="#00B341"/>
<path d="M1.91406 16.8613C1.91406 17.0225 2.04474 17.1531 2.20594 17.1531H14.5476C14.7088 17.1531 14.8395 17.0225 14.8395 16.8613V7.90156C14.8395 7.74036 14.7088 7.60968 14.5476 7.60968C14.3864 7.60968 14.2557 7.74036 14.2557 7.90156V16.5694H2.49781V14.6351C2.49781 14.4739 2.36713 14.3432 2.20594 14.3432C2.04474 14.3432 1.91406 14.4739 1.91406 14.6351V16.8613Z" fill="#00B341"/>
<path d="M7.48438 18.2045C7.48438 18.6948 7.88323 19.0937 8.37354 19.0937C8.86386 19.0937 9.26271 18.6948 9.26271 18.2045C9.26271 17.7142 8.86382 17.3153 8.37354 17.3153C7.88323 17.3153 7.48438 17.7142 7.48438 18.2045ZM8.67896 18.2045C8.67896 18.3729 8.54194 18.5099 8.37354 18.5099C8.20511 18.5099 8.06813 18.3729 8.06813 18.2045C8.06813 18.0361 8.20511 17.8991 8.37354 17.8991C8.54194 17.8991 8.67896 18.0361 8.67896 18.2045Z" fill="#00B341"/>
<path d="M9.63783 1.6757C9.79902 1.6757 9.9297 1.54502 9.9297 1.38382C9.9297 1.22263 9.79902 1.09195 9.63783 1.09195H8.3075C8.14631 1.09195 8.01562 1.22263 8.01562 1.38382C8.01562 1.54502 8.14631 1.6757 8.3075 1.6757H9.63783Z" fill="#00B341"/>
<path d="M7.19031 1.67448C7.35151 1.67448 7.48219 1.5438 7.48219 1.3826C7.48219 1.22141 7.35151 1.09073 7.19031 1.09073C7.02911 1.09073 6.89844 1.22141 6.89844 1.3826C6.89844 1.5438 7.02911 1.67448 7.19031 1.67448Z" fill="#00B341"/>
</svg>
