<svg width="23" height="23" viewBox="0 0 23 23" fill="none" xmlns="http://www.w3.org/2000/svg">
<path d="M15.6404 4.62896C15.685 4.62898 15.7292 4.62021 15.7704 4.60316C15.8116 4.5861 15.849 4.56108 15.8806 4.52954C15.9121 4.498 15.9371 4.46056 15.9542 4.41934C15.9712 4.37813 15.98 4.33396 15.98 4.28935V2.30024C15.98 2.21017 15.9442 2.12379 15.8805 2.0601C15.8168 1.99641 15.7305 1.96063 15.6404 1.96063C15.5503 1.96063 15.4639 1.99641 15.4002 2.0601C15.3366 2.12379 15.3008 2.21017 15.3008 2.30024V4.28935C15.3008 4.33396 15.3095 4.37813 15.3266 4.41934C15.3436 4.46056 15.3687 4.498 15.4002 4.52954C15.4317 4.56108 15.4692 4.5861 15.5104 4.60316C15.5516 4.62021 15.5958 4.62898 15.6404 4.62896Z" fill="#00B341"/>
<path d="M21.496 7.30056H19.5671V2.5752C19.567 2.48515 19.5312 2.3988 19.4676 2.33512C19.4039 2.27144 19.3175 2.23565 19.2275 2.23559H17.1452V0.343511C17.1452 0.253442 17.1094 0.167062 17.0457 0.103374C16.9821 0.039686 16.8957 0.00390625 16.8056 0.00390625H6.1983C6.10823 0.00390625 6.02185 0.039686 5.95816 0.103374C5.89447 0.167062 5.85869 0.253442 5.85869 0.343511V2.23559H3.77643C3.68638 2.23565 3.60003 2.27144 3.53635 2.33512C3.47267 2.3988 3.43688 2.48515 3.43683 2.5752V7.30056H1.50787C1.10914 7.30102 0.726865 7.45962 0.444918 7.74157C0.16297 8.02352 0.00436849 8.40579 0.00390625 8.80452V18.0631C0.00436849 18.4619 0.16297 18.8441 0.444918 19.1261C0.726865 19.408 1.10914 19.5666 1.50787 19.5671H5.85811V22.6604C5.85811 22.7505 5.89389 22.8368 5.95758 22.9005C6.02127 22.9642 6.10765 23 6.19771 23H16.8062C16.8963 23 16.9826 22.9642 17.0463 22.9005C17.11 22.8368 17.1458 22.7505 17.1458 22.6604V19.5671H21.496C21.8948 19.5666 22.277 19.408 22.559 19.1261C22.8409 18.8441 22.9995 18.4619 23 18.0631V8.80452C22.9995 8.40579 22.8409 8.02352 22.559 7.74157C22.277 7.45962 21.8948 7.30102 21.496 7.30056ZM18.8879 2.9148V7.30056H17.1452V2.9148H18.8879ZM6.5379 0.683116H16.466V7.30056H6.5379V0.683116ZM4.11603 2.9148H5.85869V7.30056H4.11603V2.9148ZM4.11603 18.8879V15.4317H5.85811V18.8879H4.11603ZM6.53732 22.3208V15.4317H16.4666C16.4666 15.4317 16.4666 19.2255 16.4666 19.2275C16.4666 19.2294 16.4666 22.3208 16.4666 22.3208H6.53732ZM17.1458 18.8879V15.4317H18.8879V18.8879H17.1458ZM22.3208 18.0631C22.3205 18.2818 22.2336 18.4914 22.0789 18.646C21.9243 18.8006 21.7147 18.8876 21.496 18.8879H19.5671V15.0921C19.567 15.002 19.5312 14.9157 19.4676 14.852C19.4039 14.7883 19.3175 14.7525 19.2275 14.7525H3.77643C3.68638 14.7525 3.60003 14.7883 3.53635 14.852C3.47267 14.9157 3.43688 15.002 3.43683 15.0921V18.8879H1.50787C1.28921 18.8876 1.07958 18.8006 0.924964 18.646C0.770349 18.4914 0.683373 18.2818 0.683116 18.0631V8.80452C0.683373 8.58586 0.770349 8.37623 0.924964 8.22161C1.07958 8.067 1.28921 7.98002 1.50787 7.97977H21.496C21.7147 7.98002 21.9243 8.067 22.0789 8.22161C22.2336 8.37623 22.3205 8.58586 22.3208 8.80452V18.0631Z" fill="#00B341"/>
<path d="M6.90869 9.62851H2.0896C1.99954 9.62851 1.91316 9.66429 1.84947 9.72798C1.78578 9.79167 1.75 9.87805 1.75 9.96811C1.75 10.0582 1.78578 10.1446 1.84947 10.2083C1.91316 10.2719 1.99954 10.3077 2.0896 10.3077H6.90869C6.99876 10.3077 7.08514 10.2719 7.14883 10.2083C7.21252 10.1446 7.2483 10.0582 7.2483 9.96811C7.2483 9.87805 7.21252 9.79167 7.14883 9.72798C7.08514 9.66429 6.99876 9.62851 6.90869 9.62851Z" fill="#00B341"/>
<path d="M14.4114 16.4019H8.5896C8.49954 16.4019 8.41316 16.4377 8.34947 16.5014C8.28578 16.5651 8.25 16.6515 8.25 16.7416C8.25 16.8316 8.28578 16.918 8.34947 16.9817C8.41316 17.0454 8.49954 17.0812 8.5896 17.0812H14.4114C14.5015 17.0812 14.5878 17.0454 14.6515 16.9817C14.7152 16.918 14.751 16.8316 14.751 16.7416C14.751 16.6515 14.7152 16.5651 14.6515 16.5014C14.5878 16.4377 14.5015 16.4019 14.4114 16.4019Z" fill="#00B341"/>
<path d="M14.4114 18.1485H8.5896C8.49954 18.1485 8.41316 18.1843 8.34947 18.248C8.28578 18.3117 8.25 18.398 8.25 18.4881C8.25 18.5782 8.28578 18.6646 8.34947 18.7282C8.41316 18.7919 8.49954 18.8277 8.5896 18.8277H14.4114C14.5015 18.8277 14.5878 18.7919 14.6515 18.7282C14.7152 18.6646 14.751 18.5782 14.751 18.4881C14.751 18.398 14.7152 18.3117 14.6515 18.248C14.5878 18.1843 14.5015 18.1485 14.4114 18.1485Z" fill="#00B341"/>
<path d="M14.4114 19.8951H8.5896C8.49954 19.8951 8.41316 19.9308 8.34947 19.9945C8.28578 20.0582 8.25 20.1446 8.25 20.2347C8.25 20.3247 8.28578 20.4111 8.34947 20.4748C8.41316 20.5385 8.49954 20.5743 8.5896 20.5743H14.4114C14.5015 20.5743 14.5878 20.5385 14.6515 20.4748C14.7152 20.4111 14.751 20.3247 14.751 20.2347C14.751 20.1446 14.7152 20.0582 14.6515 19.9945C14.5878 19.9308 14.5015 19.8951 14.4114 19.8951Z" fill="#00B341"/>
<path d="M20.3319 9.04626C20.1496 9.04626 19.9714 9.10033 19.8198 9.20161C19.6682 9.3029 19.5501 9.44686 19.4803 9.6153C19.4106 9.78373 19.3923 9.96907 19.4279 10.1479C19.4634 10.3267 19.5512 10.4909 19.6801 10.6198C19.8091 10.7488 19.9733 10.8366 20.1521 10.8721C20.3309 10.9077 20.5163 10.8894 20.6847 10.8197C20.8531 10.7499 20.9971 10.6318 21.0984 10.4802C21.1997 10.3286 21.2537 10.1504 21.2537 9.96805C21.2534 9.72367 21.1562 9.48939 20.9834 9.31659C20.8106 9.14379 20.5763 9.04657 20.3319 9.04626ZM20.3319 10.2106C20.284 10.2106 20.2371 10.1964 20.1972 10.1697C20.1573 10.1431 20.1262 10.1052 20.1078 10.0609C20.0895 10.0166 20.0847 9.96778 20.094 9.92073C20.1034 9.87367 20.1265 9.83045 20.1604 9.79652C20.1943 9.7626 20.2376 9.73949 20.2846 9.73013C20.3317 9.72078 20.3804 9.72558 20.4248 9.74394C20.4691 9.7623 20.507 9.79339 20.5336 9.83328C20.5603 9.87317 20.5745 9.92007 20.5745 9.96805C20.5745 10.0324 20.5489 10.094 20.5034 10.1395C20.4579 10.185 20.3963 10.2106 20.3319 10.2106Z" fill="#00B341"/>
<path d="M18.0273 9.04626C17.8449 9.04626 17.6667 9.10033 17.5151 9.20161C17.3636 9.3029 17.2454 9.44686 17.1756 9.6153C17.1059 9.78373 17.0876 9.96907 17.1232 10.1479C17.1587 10.3267 17.2465 10.4909 17.3755 10.6198C17.5044 10.7488 17.6686 10.8366 17.8474 10.8721C18.0262 10.9077 18.2116 10.8894 18.38 10.8197C18.5484 10.7499 18.6924 10.6318 18.7937 10.4802C18.895 10.3286 18.949 10.1504 18.949 9.96805C18.9487 9.72367 18.8515 9.48939 18.6787 9.31659C18.5059 9.14379 18.2716 9.04657 18.0273 9.04626ZM18.0273 10.2106C17.9793 10.2106 17.9324 10.1964 17.8925 10.1697C17.8526 10.1431 17.8215 10.1052 17.8031 10.0609C17.7848 10.0166 17.78 9.96778 17.7893 9.92073C17.7987 9.87367 17.8218 9.83045 17.8557 9.79652C17.8897 9.7626 17.9329 9.73949 17.9799 9.73013C18.027 9.72078 18.0758 9.72558 18.1201 9.74394C18.1644 9.7623 18.2023 9.79339 18.2289 9.83328C18.2556 9.87317 18.2698 9.92007 18.2698 9.96805C18.2698 10.0324 18.2442 10.094 18.1987 10.1395C18.1532 10.185 18.0916 10.2106 18.0273 10.2106Z" fill="#00B341"/>
<path d="M15.7226 9.04626C15.5403 9.04626 15.3621 9.10031 15.2105 9.20156C15.059 9.30281 14.9408 9.44673 14.871 9.61512C14.8012 9.78351 14.7829 9.96881 14.8184 10.1476C14.8539 10.3264 14.9417 10.4906 15.0705 10.6196C15.1993 10.7485 15.3635 10.8364 15.5423 10.872C15.721 10.9077 15.9063 10.8895 16.0748 10.8199C16.2432 10.7502 16.3872 10.6322 16.4886 10.4807C16.59 10.3292 16.6442 10.1511 16.6444 9.96882C16.6442 9.72431 16.5471 9.48983 16.3743 9.31686C16.2015 9.1439 15.9671 9.04657 15.7226 9.04626ZM15.7226 10.2106C15.6746 10.2106 15.6276 10.1964 15.5877 10.1697C15.5478 10.143 15.5167 10.1051 15.4984 10.0607C15.48 10.0163 15.4753 9.96751 15.4847 9.92044C15.4941 9.87336 15.5173 9.83014 15.5513 9.79625C15.5853 9.76235 15.6286 9.73931 15.6757 9.73004C15.7228 9.72077 15.7716 9.72568 15.8159 9.74416C15.8602 9.76264 15.8981 9.79385 15.9246 9.83385C15.9512 9.87384 15.9653 9.92082 15.9651 9.96882C15.9649 10.033 15.9392 10.0945 15.8938 10.1398C15.8483 10.1851 15.7868 10.2106 15.7226 10.2106Z" fill="#00B341"/>
</svg>
