<svg width="17" height="23" viewBox="0 0 17 23" fill="none" xmlns="http://www.w3.org/2000/svg">
<path d="M15.1235 0.474487H2.12647C1.09178 0.474487 0.25 1.31627 0.25 2.35095V3.47942C0.25 3.65647 0.393538 3.80001 0.570588 3.80001C0.747638 3.80001 0.891176 3.65647 0.891176 3.47942V2.35095C0.891176 1.66981 1.44532 1.11566 2.12647 1.11566H15.1235C15.8047 1.11566 16.3588 1.66981 16.3588 2.35095V20.4873C16.3588 21.1684 15.8047 21.7226 15.1235 21.7226H2.12647C1.44532 21.7226 0.891176 21.1684 0.891176 20.4873V4.76178C0.891176 4.58473 0.747638 4.44119 0.570588 4.44119C0.393538 4.44119 0.25 4.58473 0.25 4.76178V20.4873C0.25 21.5219 1.09178 22.3637 2.12647 22.3637H15.1235C16.1582 22.3637 17 21.5219 17 20.4873V2.35095C17 1.31627 16.1582 0.474487 15.1235 0.474487Z" fill="#00B341"/>
<path d="M1.52734 3.10068V15.2137C1.52734 15.3907 1.67088 15.5343 1.84793 15.5343C2.02498 15.5343 2.16852 15.3907 2.16852 15.2137V3.42127H15.0831V7.81777C15.0831 7.99482 15.2266 8.13836 15.4037 8.13836C15.5807 8.13836 15.7243 7.99482 15.7243 7.81777V3.10068C15.7243 2.92363 15.5807 2.78009 15.4037 2.78009H1.84793C1.67084 2.78009 1.52734 2.92363 1.52734 3.10068Z" fill="#00B341"/>
<path d="M1.52734 18.9412C1.52734 19.1183 1.67088 19.2618 1.84793 19.2618H15.4037C15.5807 19.2618 15.7243 19.1183 15.7243 18.9412V9.1001C15.7243 8.92305 15.5807 8.77951 15.4037 8.77951C15.2266 8.77951 15.0831 8.92305 15.0831 9.1001V18.6206H2.16852V16.4961C2.16852 16.319 2.02498 16.1755 1.84793 16.1755C1.67088 16.1755 1.52734 16.319 1.52734 16.4961V18.9412Z" fill="#00B341"/>
<path d="M7.64844 20.4163C7.64844 20.9549 8.08653 21.3929 8.62508 21.3929C9.16362 21.3929 9.60172 20.9549 9.60172 20.4163C9.60172 19.8778 9.16358 19.4397 8.62508 19.4397C8.08653 19.4397 7.64844 19.8778 7.64844 20.4163ZM8.96054 20.4163C8.96054 20.6013 8.81004 20.7518 8.62508 20.7518C8.44008 20.7518 8.28961 20.6013 8.28961 20.4163C8.28961 20.2313 8.44008 20.0808 8.62508 20.0808C8.81004 20.0808 8.96054 20.2313 8.96054 20.4163Z" fill="#00B341"/>
<path d="M10.0083 2.26196C10.1854 2.26196 10.3289 2.11843 10.3289 1.94138C10.3289 1.76433 10.1854 1.62079 10.0083 1.62079H8.54715C8.3701 1.62079 8.22656 1.76433 8.22656 1.94138C8.22656 2.11843 8.3701 2.26196 8.54715 2.26196H10.0083Z" fill="#00B341"/>
<path d="M7.32449 2.26062C7.50155 2.26062 7.64508 2.11709 7.64508 1.94003C7.64508 1.76298 7.50155 1.61945 7.32449 1.61945C7.14744 1.61945 7.00391 1.76298 7.00391 1.94003C7.00391 2.11709 7.14744 2.26062 7.32449 2.26062Z" fill="#00B341"/>
</svg>
