<svg width="845" height="71" viewBox="0 0 845 71" fill="none" xmlns="http://www.w3.org/2000/svg">
<path d="M838.383 3.16552C838.383 4.88467 839.777 6.27831 841.496 6.27831C843.215 6.27831 844.609 4.88467 844.609 3.16552C844.609 1.44638 843.215 0.0527419 841.496 0.0527419C839.777 0.0527418 838.383 1.44638 838.383 3.16552Z" fill="#4F4E4E"/>
<path d="M838.383 24.6091C838.383 26.3283 839.777 27.7219 841.496 27.7219C843.215 27.7219 844.609 26.3283 844.609 24.6091C844.609 22.89 843.215 21.4964 841.496 21.4964C839.777 21.4964 838.383 22.89 838.383 24.6091Z" fill="#4F4E4E"/>
<path d="M838.383 46.0527C838.383 47.7719 839.777 49.1655 841.496 49.1655C843.215 49.1655 844.609 47.7719 844.609 46.0527C844.609 44.3336 843.215 42.94 841.496 42.94C839.777 42.94 838.383 44.3336 838.383 46.0527Z" fill="#4F4E4E"/>
<path d="M838.383 67.4963C838.383 69.2155 839.777 70.6091 841.496 70.6091C843.215 70.6091 844.609 69.2155 844.609 67.4963C844.609 65.7772 843.215 64.3836 841.496 64.3836C839.777 64.3836 838.383 65.7772 838.383 67.4963Z" fill="#4F4E4E"/>
<path d="M816.94 3.16552C816.94 4.88467 818.333 6.27831 820.052 6.27831C821.771 6.27831 823.165 4.88467 823.165 3.16552C823.165 1.44638 821.771 0.0527419 820.052 0.0527419C818.333 0.0527418 816.94 1.44638 816.94 3.16552Z" fill="#4F4E4E"/>
<path d="M816.94 24.6091C816.94 26.3283 818.333 27.7219 820.052 27.7219C821.771 27.7219 823.165 26.3283 823.165 24.6091C823.165 22.89 821.771 21.4964 820.052 21.4964C818.333 21.4964 816.94 22.89 816.94 24.6091Z" fill="#4F4E4E"/>
<path d="M816.94 46.0527C816.94 47.7719 818.333 49.1655 820.052 49.1655C821.771 49.1655 823.165 47.7719 823.165 46.0527C823.165 44.3336 821.771 42.94 820.052 42.94C818.333 42.94 816.94 44.3336 816.94 46.0527Z" fill="#4F4E4E"/>
<path d="M816.94 67.4963C816.94 69.2155 818.333 70.6091 820.052 70.6091C821.771 70.6091 823.165 69.2155 823.165 67.4963C823.165 65.7772 821.771 64.3836 820.052 64.3836C818.333 64.3836 816.94 65.7772 816.94 67.4963Z" fill="#4F4E4E"/>
<path d="M795.496 3.16552C795.496 4.88467 796.89 6.27831 798.609 6.27831C800.328 6.27831 801.721 4.88467 801.721 3.16552C801.721 1.44638 800.328 0.0527419 798.609 0.0527419C796.89 0.0527418 795.496 1.44638 795.496 3.16552Z" fill="#4F4E4E"/>
<path d="M795.496 24.6091C795.496 26.3283 796.89 27.7219 798.609 27.7219C800.328 27.7219 801.721 26.3283 801.721 24.6091C801.721 22.89 800.328 21.4963 798.609 21.4963C796.89 21.4963 795.496 22.89 795.496 24.6091Z" fill="#4F4E4E"/>
<path d="M795.496 46.0527C795.496 47.7719 796.89 49.1655 798.609 49.1655C800.328 49.1655 801.721 47.7719 801.721 46.0527C801.721 44.3336 800.328 42.94 798.609 42.94C796.89 42.94 795.496 44.3336 795.496 46.0527Z" fill="#4F4E4E"/>
<path d="M795.496 67.4963C795.496 69.2155 796.89 70.6091 798.609 70.6091C800.328 70.6091 801.721 69.2155 801.721 67.4963C801.721 65.7772 800.328 64.3836 798.609 64.3836C796.89 64.3836 795.496 65.7772 795.496 67.4963Z" fill="#4F4E4E"/>
<path d="M774.052 3.16552C774.052 4.88466 775.446 6.2783 777.165 6.2783C778.884 6.2783 780.278 4.88466 780.278 3.16552C780.278 1.44638 778.884 0.0527381 777.165 0.0527381C775.446 0.052738 774.052 1.44638 774.052 3.16552Z" fill="#4F4E4E"/>
<path d="M774.052 24.6091C774.052 26.3283 775.446 27.7219 777.165 27.7219C778.884 27.7219 780.278 26.3283 780.278 24.6091C780.278 22.89 778.884 21.4963 777.165 21.4963C775.446 21.4963 774.052 22.89 774.052 24.6091Z" fill="#4F4E4E"/>
<path d="M774.052 46.0527C774.052 47.7719 775.446 49.1655 777.165 49.1655C778.884 49.1655 780.278 47.7719 780.278 46.0527C780.278 44.3336 778.884 42.94 777.165 42.94C775.446 42.94 774.052 44.3336 774.052 46.0527Z" fill="#4F4E4E"/>
<path d="M774.052 67.4963C774.052 69.2155 775.446 70.6091 777.165 70.6091C778.884 70.6091 780.278 69.2155 780.278 67.4963C780.278 65.7772 778.884 64.3836 777.165 64.3836C775.446 64.3836 774.052 65.7772 774.052 67.4963Z" fill="#4F4E4E"/>
<path d="M752.609 3.16552C752.609 4.88466 754.002 6.2783 755.721 6.2783C757.441 6.2783 758.834 4.88466 758.834 3.16552C758.834 1.44638 757.441 0.0527381 755.721 0.0527381C754.002 0.052738 752.609 1.44638 752.609 3.16552Z" fill="#4F4E4E"/>
<path d="M752.609 24.6091C752.609 26.3283 754.002 27.7219 755.721 27.7219C757.441 27.7219 758.834 26.3283 758.834 24.6091C758.834 22.89 757.441 21.4963 755.721 21.4963C754.002 21.4963 752.609 22.89 752.609 24.6091Z" fill="#4F4E4E"/>
<path d="M752.609 46.0527C752.609 47.7719 754.002 49.1655 755.721 49.1655C757.441 49.1655 758.834 47.7719 758.834 46.0527C758.834 44.3336 757.441 42.94 755.721 42.94C754.002 42.94 752.609 44.3336 752.609 46.0527Z" fill="#4F4E4E"/>
<path d="M752.609 67.4963C752.609 69.2155 754.002 70.6091 755.721 70.6091C757.441 70.6091 758.834 69.2155 758.834 67.4963C758.834 65.7772 757.441 64.3836 755.721 64.3836C754.002 64.3836 752.609 65.7772 752.609 67.4963Z" fill="#4F4E4E"/>
<path d="M731.165 3.16552C731.165 4.88466 732.559 6.2783 734.278 6.2783C735.997 6.2783 737.391 4.88466 737.391 3.16552C737.391 1.44638 735.997 0.0527381 734.278 0.0527381C732.559 0.052738 731.165 1.44638 731.165 3.16552Z" fill="#4F4E4E"/>
<path d="M731.165 24.6091C731.165 26.3283 732.559 27.7219 734.278 27.7219C735.997 27.7219 737.391 26.3283 737.391 24.6091C737.391 22.89 735.997 21.4963 734.278 21.4963C732.559 21.4963 731.165 22.89 731.165 24.6091Z" fill="#4F4E4E"/>
<path d="M731.165 46.0527C731.165 47.7719 732.559 49.1655 734.278 49.1655C735.997 49.1655 737.391 47.7719 737.391 46.0527C737.391 44.3336 735.997 42.94 734.278 42.94C732.559 42.94 731.165 44.3336 731.165 46.0527Z" fill="#4F4E4E"/>
<path d="M731.165 67.4963C731.165 69.2155 732.559 70.6091 734.278 70.6091C735.997 70.6091 737.391 69.2155 737.391 67.4963C737.391 65.7772 735.997 64.3836 734.278 64.3836C732.559 64.3836 731.165 65.7772 731.165 67.4963Z" fill="#4F4E4E"/>
<path d="M709.721 3.16552C709.721 4.88466 711.115 6.2783 712.834 6.2783C714.553 6.2783 715.947 4.88466 715.947 3.16552C715.947 1.44638 714.553 0.0527381 712.834 0.0527381C711.115 0.052738 709.721 1.44638 709.721 3.16552Z" fill="#4F4E4E"/>
<path d="M709.721 24.6091C709.721 26.3283 711.115 27.7219 712.834 27.7219C714.553 27.7219 715.947 26.3283 715.947 24.6091C715.947 22.89 714.553 21.4963 712.834 21.4963C711.115 21.4963 709.721 22.89 709.721 24.6091Z" fill="#4F4E4E"/>
<path d="M709.721 46.0527C709.721 47.7719 711.115 49.1655 712.834 49.1655C714.553 49.1655 715.947 47.7719 715.947 46.0527C715.947 44.3336 714.553 42.94 712.834 42.94C711.115 42.94 709.721 44.3336 709.721 46.0527Z" fill="#4F4E4E"/>
<path d="M709.721 67.4963C709.721 69.2155 711.115 70.6091 712.834 70.6091C714.553 70.6091 715.947 69.2155 715.947 67.4963C715.947 65.7772 714.553 64.3836 712.834 64.3836C711.115 64.3836 709.721 65.7772 709.721 67.4963Z" fill="#4F4E4E"/>
<path d="M688.278 3.16552C688.278 4.88466 689.671 6.2783 691.391 6.2783C693.11 6.2783 694.503 4.88466 694.503 3.16552C694.503 1.44637 693.11 0.0527343 691.391 0.0527342C689.671 0.0527342 688.278 1.44637 688.278 3.16552Z" fill="#4F4E4E"/>
<path d="M688.278 24.6091C688.278 26.3283 689.671 27.7219 691.391 27.7219C693.11 27.7219 694.503 26.3283 694.503 24.6091C694.503 22.89 693.11 21.4963 691.391 21.4963C689.671 21.4963 688.278 22.89 688.278 24.6091Z" fill="#4F4E4E"/>
<path d="M688.278 46.0527C688.278 47.7719 689.671 49.1655 691.391 49.1655C693.11 49.1655 694.503 47.7719 694.503 46.0527C694.503 44.3336 693.11 42.9399 691.391 42.9399C689.671 42.9399 688.278 44.3336 688.278 46.0527Z" fill="#4F4E4E"/>
<path d="M688.278 67.4963C688.278 69.2155 689.671 70.6091 691.391 70.6091C693.11 70.6091 694.503 69.2155 694.503 67.4963C694.503 65.7772 693.11 64.3836 691.391 64.3836C689.671 64.3836 688.278 65.7772 688.278 67.4963Z" fill="#4F4E4E"/>
<path d="M666.834 3.16552C666.834 4.88466 668.228 6.2783 669.947 6.2783C671.666 6.2783 673.06 4.88466 673.06 3.16552C673.06 1.44637 671.666 0.0527343 669.947 0.0527342C668.228 0.0527342 666.834 1.44637 666.834 3.16552Z" fill="#4F4E4E"/>
<path d="M666.834 24.6091C666.834 26.3283 668.228 27.7219 669.947 27.7219C671.666 27.7219 673.06 26.3283 673.06 24.6091C673.06 22.89 671.666 21.4963 669.947 21.4963C668.228 21.4963 666.834 22.89 666.834 24.6091Z" fill="#4F4E4E"/>
<path d="M666.834 46.0527C666.834 47.7719 668.228 49.1655 669.947 49.1655C671.666 49.1655 673.06 47.7719 673.06 46.0527C673.06 44.3336 671.666 42.9399 669.947 42.9399C668.228 42.9399 666.834 44.3336 666.834 46.0527Z" fill="#4F4E4E"/>
<path d="M666.834 67.4963C666.834 69.2155 668.228 70.6091 669.947 70.6091C671.666 70.6091 673.06 69.2155 673.06 67.4963C673.06 65.7772 671.666 64.3836 669.947 64.3836C668.228 64.3836 666.834 65.7772 666.834 67.4963Z" fill="#4F4E4E"/>
<path d="M645.391 3.16552C645.391 4.88466 646.784 6.2783 648.503 6.2783C650.223 6.2783 651.616 4.88466 651.616 3.16552C651.616 1.44637 650.223 0.0527343 648.503 0.0527342C646.784 0.0527342 645.391 1.44637 645.391 3.16552Z" fill="#4F4E4E"/>
<path d="M645.391 24.6091C645.391 26.3283 646.784 27.7219 648.503 27.7219C650.223 27.7219 651.616 26.3283 651.616 24.6091C651.616 22.89 650.223 21.4963 648.503 21.4963C646.784 21.4963 645.391 22.89 645.391 24.6091Z" fill="#4F4E4E"/>
<path d="M645.391 46.0527C645.391 47.7719 646.784 49.1655 648.503 49.1655C650.223 49.1655 651.616 47.7719 651.616 46.0527C651.616 44.3336 650.223 42.9399 648.503 42.9399C646.784 42.9399 645.391 44.3336 645.391 46.0527Z" fill="#4F4E4E"/>
<path d="M645.391 67.4963C645.391 69.2155 646.784 70.6091 648.503 70.6091C650.223 70.6091 651.616 69.2155 651.616 67.4963C651.616 65.7772 650.223 64.3836 648.503 64.3836C646.784 64.3836 645.391 65.7772 645.391 67.4963Z" fill="#4F4E4E"/>
<path d="M623.383 3.16552C623.383 4.88467 624.777 6.27831 626.496 6.27831C628.215 6.27831 629.609 4.88467 629.609 3.16552C629.609 1.44638 628.215 0.0527419 626.496 0.0527419C624.777 0.0527418 623.383 1.44638 623.383 3.16552Z" fill="#4F4E4E"/>
<path d="M623.383 24.6091C623.383 26.3283 624.777 27.7219 626.496 27.7219C628.215 27.7219 629.609 26.3283 629.609 24.6091C629.609 22.89 628.215 21.4964 626.496 21.4964C624.777 21.4964 623.383 22.89 623.383 24.6091Z" fill="#4F4E4E"/>
<path d="M623.383 46.0527C623.383 47.7719 624.777 49.1655 626.496 49.1655C628.215 49.1655 629.609 47.7719 629.609 46.0527C629.609 44.3336 628.215 42.94 626.496 42.94C624.777 42.94 623.383 44.3336 623.383 46.0527Z" fill="#4F4E4E"/>
<path d="M623.383 67.4963C623.383 69.2155 624.777 70.6091 626.496 70.6091C628.215 70.6091 629.609 69.2155 629.609 67.4963C629.609 65.7772 628.215 64.3836 626.496 64.3836C624.777 64.3836 623.383 65.7772 623.383 67.4963Z" fill="#4F4E4E"/>
<path d="M601.94 3.16552C601.94 4.88467 603.333 6.27831 605.052 6.27831C606.771 6.27831 608.165 4.88467 608.165 3.16552C608.165 1.44638 606.771 0.0527419 605.052 0.0527419C603.333 0.0527418 601.94 1.44638 601.94 3.16552Z" fill="#4F4E4E"/>
<path d="M601.94 24.6091C601.94 26.3283 603.333 27.7219 605.052 27.7219C606.771 27.7219 608.165 26.3283 608.165 24.6091C608.165 22.89 606.771 21.4964 605.052 21.4964C603.333 21.4964 601.94 22.89 601.94 24.6091Z" fill="#4F4E4E"/>
<path d="M601.94 46.0527C601.94 47.7719 603.333 49.1655 605.052 49.1655C606.771 49.1655 608.165 47.7719 608.165 46.0527C608.165 44.3336 606.771 42.94 605.052 42.94C603.333 42.94 601.94 44.3336 601.94 46.0527Z" fill="#4F4E4E"/>
<path d="M601.94 67.4963C601.94 69.2155 603.333 70.6091 605.052 70.6091C606.771 70.6091 608.165 69.2155 608.165 67.4963C608.165 65.7772 606.771 64.3836 605.052 64.3836C603.333 64.3836 601.94 65.7772 601.94 67.4963Z" fill="#4F4E4E"/>
<path d="M580.496 3.16552C580.496 4.88467 581.89 6.27831 583.609 6.27831C585.328 6.27831 586.721 4.88467 586.721 3.16552C586.721 1.44638 585.328 0.0527419 583.609 0.0527419C581.89 0.0527418 580.496 1.44638 580.496 3.16552Z" fill="#4F4E4E"/>
<path d="M580.496 24.6091C580.496 26.3283 581.89 27.7219 583.609 27.7219C585.328 27.7219 586.721 26.3283 586.721 24.6091C586.721 22.89 585.328 21.4963 583.609 21.4963C581.89 21.4963 580.496 22.89 580.496 24.6091Z" fill="#4F4E4E"/>
<path d="M580.496 46.0527C580.496 47.7719 581.89 49.1655 583.609 49.1655C585.328 49.1655 586.721 47.7719 586.721 46.0527C586.721 44.3336 585.328 42.94 583.609 42.94C581.89 42.94 580.496 44.3336 580.496 46.0527Z" fill="#4F4E4E"/>
<path d="M580.496 67.4963C580.496 69.2155 581.89 70.6091 583.609 70.6091C585.328 70.6091 586.721 69.2155 586.721 67.4963C586.721 65.7772 585.328 64.3836 583.609 64.3836C581.89 64.3836 580.496 65.7772 580.496 67.4963Z" fill="#4F4E4E"/>
<path d="M559.052 3.16552C559.052 4.88466 560.446 6.2783 562.165 6.2783C563.884 6.2783 565.278 4.88466 565.278 3.16552C565.278 1.44638 563.884 0.0527381 562.165 0.0527381C560.446 0.052738 559.052 1.44638 559.052 3.16552Z" fill="#4F4E4E"/>
<path d="M559.052 24.6091C559.052 26.3283 560.446 27.7219 562.165 27.7219C563.884 27.7219 565.278 26.3283 565.278 24.6091C565.278 22.89 563.884 21.4963 562.165 21.4963C560.446 21.4963 559.052 22.89 559.052 24.6091Z" fill="#4F4E4E"/>
<path d="M559.052 46.0527C559.052 47.7719 560.446 49.1655 562.165 49.1655C563.884 49.1655 565.278 47.7719 565.278 46.0527C565.278 44.3336 563.884 42.94 562.165 42.94C560.446 42.94 559.052 44.3336 559.052 46.0527Z" fill="#4F4E4E"/>
<path d="M559.052 67.4963C559.052 69.2155 560.446 70.6091 562.165 70.6091C563.884 70.6091 565.278 69.2155 565.278 67.4963C565.278 65.7772 563.884 64.3836 562.165 64.3836C560.446 64.3836 559.052 65.7772 559.052 67.4963Z" fill="#4F4E4E"/>
<path d="M537.609 3.16552C537.609 4.88466 539.002 6.2783 540.721 6.2783C542.441 6.2783 543.834 4.88466 543.834 3.16552C543.834 1.44638 542.441 0.0527381 540.721 0.0527381C539.002 0.052738 537.609 1.44638 537.609 3.16552Z" fill="#4F4E4E"/>
<path d="M537.609 24.6091C537.609 26.3283 539.002 27.7219 540.721 27.7219C542.441 27.7219 543.834 26.3283 543.834 24.6091C543.834 22.89 542.441 21.4963 540.721 21.4963C539.002 21.4963 537.609 22.89 537.609 24.6091Z" fill="#4F4E4E"/>
<path d="M537.609 46.0527C537.609 47.7719 539.002 49.1655 540.721 49.1655C542.441 49.1655 543.834 47.7719 543.834 46.0527C543.834 44.3336 542.441 42.94 540.721 42.94C539.002 42.94 537.609 44.3336 537.609 46.0527Z" fill="#4F4E4E"/>
<path d="M537.609 67.4963C537.609 69.2155 539.002 70.6091 540.721 70.6091C542.441 70.6091 543.834 69.2155 543.834 67.4963C543.834 65.7772 542.441 64.3836 540.721 64.3836C539.002 64.3836 537.609 65.7772 537.609 67.4963Z" fill="#4F4E4E"/>
<path d="M516.165 3.16552C516.165 4.88466 517.559 6.2783 519.278 6.2783C520.997 6.2783 522.391 4.88466 522.391 3.16552C522.391 1.44638 520.997 0.0527381 519.278 0.0527381C517.559 0.052738 516.165 1.44638 516.165 3.16552Z" fill="#4F4E4E"/>
<path d="M516.165 24.6091C516.165 26.3283 517.559 27.7219 519.278 27.7219C520.997 27.7219 522.391 26.3283 522.391 24.6091C522.391 22.89 520.997 21.4963 519.278 21.4963C517.559 21.4963 516.165 22.89 516.165 24.6091Z" fill="#4F4E4E"/>
<path d="M516.165 46.0527C516.165 47.7719 517.559 49.1655 519.278 49.1655C520.997 49.1655 522.391 47.7719 522.391 46.0527C522.391 44.3336 520.997 42.94 519.278 42.94C517.559 42.94 516.165 44.3336 516.165 46.0527Z" fill="#4F4E4E"/>
<path d="M516.165 67.4963C516.165 69.2155 517.559 70.6091 519.278 70.6091C520.997 70.6091 522.391 69.2155 522.391 67.4963C522.391 65.7772 520.997 64.3836 519.278 64.3836C517.559 64.3836 516.165 65.7772 516.165 67.4963Z" fill="#4F4E4E"/>
<path d="M494.721 3.16552C494.721 4.88466 496.115 6.2783 497.834 6.2783C499.553 6.2783 500.947 4.88466 500.947 3.16552C500.947 1.44638 499.553 0.0527381 497.834 0.0527381C496.115 0.052738 494.721 1.44638 494.721 3.16552Z" fill="#4F4E4E"/>
<path d="M494.721 24.6091C494.721 26.3283 496.115 27.7219 497.834 27.7219C499.553 27.7219 500.947 26.3283 500.947 24.6091C500.947 22.89 499.553 21.4963 497.834 21.4963C496.115 21.4963 494.721 22.89 494.721 24.6091Z" fill="#4F4E4E"/>
<path d="M494.721 46.0527C494.721 47.7719 496.115 49.1655 497.834 49.1655C499.553 49.1655 500.947 47.7719 500.947 46.0527C500.947 44.3336 499.553 42.94 497.834 42.94C496.115 42.94 494.721 44.3336 494.721 46.0527Z" fill="#4F4E4E"/>
<path d="M494.721 67.4963C494.721 69.2155 496.115 70.6091 497.834 70.6091C499.553 70.6091 500.947 69.2155 500.947 67.4963C500.947 65.7772 499.553 64.3836 497.834 64.3836C496.115 64.3836 494.721 65.7772 494.721 67.4963Z" fill="#4F4E4E"/>
<path d="M473.278 3.16552C473.278 4.88466 474.672 6.2783 476.391 6.2783C478.11 6.2783 479.503 4.88466 479.503 3.16552C479.503 1.44637 478.11 0.0527343 476.391 0.0527342C474.672 0.0527342 473.278 1.44637 473.278 3.16552Z" fill="#4F4E4E"/>
<path d="M473.278 24.6091C473.278 26.3283 474.672 27.7219 476.391 27.7219C478.11 27.7219 479.503 26.3283 479.503 24.6091C479.503 22.89 478.11 21.4963 476.391 21.4963C474.672 21.4963 473.278 22.89 473.278 24.6091Z" fill="#4F4E4E"/>
<path d="M473.278 46.0527C473.278 47.7719 474.672 49.1655 476.391 49.1655C478.11 49.1655 479.503 47.7719 479.503 46.0527C479.503 44.3336 478.11 42.9399 476.391 42.9399C474.672 42.9399 473.278 44.3336 473.278 46.0527Z" fill="#4F4E4E"/>
<path d="M473.278 67.4963C473.278 69.2155 474.672 70.6091 476.391 70.6091C478.11 70.6091 479.503 69.2155 479.503 67.4963C479.503 65.7772 478.11 64.3836 476.391 64.3836C474.672 64.3836 473.278 65.7772 473.278 67.4963Z" fill="#4F4E4E"/>
<path d="M451.834 3.16552C451.834 4.88466 453.228 6.2783 454.947 6.2783C456.666 6.2783 458.06 4.88466 458.06 3.16552C458.06 1.44637 456.666 0.0527343 454.947 0.0527342C453.228 0.0527342 451.834 1.44637 451.834 3.16552Z" fill="#4F4E4E"/>
<path d="M451.834 24.6091C451.834 26.3283 453.228 27.7219 454.947 27.7219C456.666 27.7219 458.06 26.3283 458.06 24.6091C458.06 22.89 456.666 21.4963 454.947 21.4963C453.228 21.4963 451.834 22.89 451.834 24.6091Z" fill="#4F4E4E"/>
<path d="M451.834 46.0527C451.834 47.7719 453.228 49.1655 454.947 49.1655C456.666 49.1655 458.06 47.7719 458.06 46.0527C458.06 44.3336 456.666 42.9399 454.947 42.9399C453.228 42.9399 451.834 44.3336 451.834 46.0527Z" fill="#4F4E4E"/>
<path d="M451.834 67.4963C451.834 69.2155 453.228 70.6091 454.947 70.6091C456.666 70.6091 458.06 69.2155 458.06 67.4963C458.06 65.7772 456.666 64.3836 454.947 64.3836C453.228 64.3836 451.834 65.7772 451.834 67.4963Z" fill="#4F4E4E"/>
<path d="M430.391 3.16552C430.391 4.88466 431.784 6.2783 433.503 6.2783C435.223 6.2783 436.616 4.88466 436.616 3.16552C436.616 1.44637 435.223 0.0527343 433.503 0.0527342C431.784 0.0527342 430.391 1.44637 430.391 3.16552Z" fill="#4F4E4E"/>
<path d="M430.391 24.6091C430.391 26.3283 431.784 27.7219 433.503 27.7219C435.223 27.7219 436.616 26.3283 436.616 24.6091C436.616 22.89 435.223 21.4963 433.503 21.4963C431.784 21.4963 430.391 22.89 430.391 24.6091Z" fill="#4F4E4E"/>
<path d="M430.391 46.0527C430.391 47.7719 431.784 49.1655 433.503 49.1655C435.223 49.1655 436.616 47.7719 436.616 46.0527C436.616 44.3336 435.223 42.9399 433.503 42.9399C431.784 42.9399 430.391 44.3336 430.391 46.0527Z" fill="#4F4E4E"/>
<path d="M430.391 67.4963C430.391 69.2155 431.784 70.6091 433.503 70.6091C435.223 70.6091 436.616 69.2155 436.616 67.4963C436.616 65.7772 435.223 64.3836 433.503 64.3836C431.784 64.3836 430.391 65.7772 430.391 67.4963Z" fill="#4F4E4E"/>
<path d="M408.383 3.16552C408.383 4.88467 409.777 6.27831 411.496 6.27831C413.215 6.27831 414.609 4.88467 414.609 3.16552C414.609 1.44638 413.215 0.0527419 411.496 0.0527419C409.777 0.0527418 408.383 1.44638 408.383 3.16552Z" fill="#4F4E4E"/>
<path d="M408.383 24.6091C408.383 26.3283 409.777 27.7219 411.496 27.7219C413.215 27.7219 414.609 26.3283 414.609 24.6091C414.609 22.89 413.215 21.4964 411.496 21.4964C409.777 21.4964 408.383 22.89 408.383 24.6091Z" fill="#4F4E4E"/>
<path d="M408.383 46.0527C408.383 47.7719 409.777 49.1655 411.496 49.1655C413.215 49.1655 414.609 47.7719 414.609 46.0527C414.609 44.3336 413.215 42.94 411.496 42.94C409.777 42.94 408.383 44.3336 408.383 46.0527Z" fill="#4F4E4E"/>
<path d="M408.383 67.4963C408.383 69.2155 409.777 70.6091 411.496 70.6091C413.215 70.6091 414.609 69.2155 414.609 67.4963C414.609 65.7772 413.215 64.3836 411.496 64.3836C409.777 64.3836 408.383 65.7772 408.383 67.4963Z" fill="#4F4E4E"/>
<path d="M386.939 3.16552C386.939 4.88467 388.333 6.27831 390.052 6.27831C391.771 6.27831 393.165 4.88467 393.165 3.16552C393.165 1.44638 391.771 0.0527419 390.052 0.0527419C388.333 0.0527418 386.939 1.44638 386.939 3.16552Z" fill="#4F4E4E"/>
<path d="M386.939 24.6091C386.939 26.3283 388.333 27.7219 390.052 27.7219C391.771 27.7219 393.165 26.3283 393.165 24.6091C393.165 22.89 391.771 21.4964 390.052 21.4964C388.333 21.4964 386.939 22.89 386.939 24.6091Z" fill="#4F4E4E"/>
<path d="M386.939 46.0527C386.939 47.7719 388.333 49.1655 390.052 49.1655C391.771 49.1655 393.165 47.7719 393.165 46.0527C393.165 44.3336 391.771 42.94 390.052 42.94C388.333 42.94 386.939 44.3336 386.939 46.0527Z" fill="#4F4E4E"/>
<path d="M386.939 67.4963C386.939 69.2155 388.333 70.6091 390.052 70.6091C391.771 70.6091 393.165 69.2155 393.165 67.4963C393.165 65.7772 391.771 64.3836 390.052 64.3836C388.333 64.3836 386.939 65.7772 386.939 67.4963Z" fill="#4F4E4E"/>
<path d="M365.496 3.16552C365.496 4.88467 366.89 6.27831 368.609 6.27831C370.328 6.27831 371.721 4.88467 371.721 3.16552C371.721 1.44638 370.328 0.0527419 368.609 0.0527419C366.89 0.0527418 365.496 1.44638 365.496 3.16552Z" fill="#4F4E4E"/>
<path d="M365.496 24.6091C365.496 26.3283 366.89 27.7219 368.609 27.7219C370.328 27.7219 371.721 26.3283 371.721 24.6091C371.721 22.89 370.328 21.4963 368.609 21.4963C366.89 21.4963 365.496 22.89 365.496 24.6091Z" fill="#4F4E4E"/>
<path d="M365.496 46.0527C365.496 47.7719 366.89 49.1655 368.609 49.1655C370.328 49.1655 371.721 47.7719 371.721 46.0527C371.721 44.3336 370.328 42.94 368.609 42.94C366.89 42.94 365.496 44.3336 365.496 46.0527Z" fill="#4F4E4E"/>
<path d="M365.496 67.4963C365.496 69.2155 366.89 70.6091 368.609 70.6091C370.328 70.6091 371.721 69.2155 371.721 67.4963C371.721 65.7772 370.328 64.3836 368.609 64.3836C366.89 64.3836 365.496 65.7772 365.496 67.4963Z" fill="#4F4E4E"/>
<path d="M344.052 3.16552C344.052 4.88466 345.446 6.2783 347.165 6.2783C348.884 6.2783 350.278 4.88466 350.278 3.16552C350.278 1.44638 348.884 0.0527381 347.165 0.0527381C345.446 0.052738 344.052 1.44638 344.052 3.16552Z" fill="#4F4E4E"/>
<path d="M344.052 24.6091C344.052 26.3283 345.446 27.7219 347.165 27.7219C348.884 27.7219 350.278 26.3283 350.278 24.6091C350.278 22.89 348.884 21.4963 347.165 21.4963C345.446 21.4963 344.052 22.89 344.052 24.6091Z" fill="#4F4E4E"/>
<path d="M344.052 46.0527C344.052 47.7719 345.446 49.1655 347.165 49.1655C348.884 49.1655 350.278 47.7719 350.278 46.0527C350.278 44.3336 348.884 42.94 347.165 42.94C345.446 42.94 344.052 44.3336 344.052 46.0527Z" fill="#4F4E4E"/>
<path d="M344.052 67.4963C344.052 69.2155 345.446 70.6091 347.165 70.6091C348.884 70.6091 350.278 69.2155 350.278 67.4963C350.278 65.7772 348.884 64.3836 347.165 64.3836C345.446 64.3836 344.052 65.7772 344.052 67.4963Z" fill="#4F4E4E"/>
<path d="M322.609 3.16552C322.609 4.88466 324.002 6.2783 325.721 6.2783C327.441 6.2783 328.834 4.88466 328.834 3.16552C328.834 1.44638 327.441 0.0527381 325.721 0.0527381C324.002 0.052738 322.609 1.44638 322.609 3.16552Z" fill="#4F4E4E"/>
<path d="M322.609 24.6091C322.609 26.3283 324.002 27.7219 325.721 27.7219C327.441 27.7219 328.834 26.3283 328.834 24.6091C328.834 22.89 327.441 21.4963 325.721 21.4963C324.002 21.4963 322.609 22.89 322.609 24.6091Z" fill="#4F4E4E"/>
<path d="M322.609 46.0527C322.609 47.7719 324.002 49.1655 325.721 49.1655C327.441 49.1655 328.834 47.7719 328.834 46.0527C328.834 44.3336 327.441 42.94 325.721 42.94C324.002 42.94 322.609 44.3336 322.609 46.0527Z" fill="#4F4E4E"/>
<path d="M322.609 67.4963C322.609 69.2155 324.002 70.6091 325.721 70.6091C327.441 70.6091 328.834 69.2155 328.834 67.4963C328.834 65.7772 327.441 64.3836 325.721 64.3836C324.002 64.3836 322.609 65.7772 322.609 67.4963Z" fill="#4F4E4E"/>
<path d="M301.165 3.16552C301.165 4.88466 302.559 6.2783 304.278 6.2783C305.997 6.2783 307.391 4.88466 307.391 3.16552C307.391 1.44638 305.997 0.0527381 304.278 0.0527381C302.559 0.052738 301.165 1.44638 301.165 3.16552Z" fill="#4F4E4E"/>
<path d="M301.165 24.6091C301.165 26.3283 302.559 27.7219 304.278 27.7219C305.997 27.7219 307.391 26.3283 307.391 24.6091C307.391 22.89 305.997 21.4963 304.278 21.4963C302.559 21.4963 301.165 22.89 301.165 24.6091Z" fill="#4F4E4E"/>
<path d="M301.165 46.0527C301.165 47.7719 302.559 49.1655 304.278 49.1655C305.997 49.1655 307.391 47.7719 307.391 46.0527C307.391 44.3336 305.997 42.94 304.278 42.94C302.559 42.94 301.165 44.3336 301.165 46.0527Z" fill="#4F4E4E"/>
<path d="M301.165 67.4963C301.165 69.2155 302.559 70.6091 304.278 70.6091C305.997 70.6091 307.391 69.2155 307.391 67.4963C307.391 65.7772 305.997 64.3836 304.278 64.3836C302.559 64.3836 301.165 65.7772 301.165 67.4963Z" fill="#4F4E4E"/>
<path d="M279.721 3.16552C279.721 4.88466 281.115 6.2783 282.834 6.2783C284.553 6.2783 285.947 4.88466 285.947 3.16552C285.947 1.44638 284.553 0.0527381 282.834 0.0527381C281.115 0.052738 279.721 1.44638 279.721 3.16552Z" fill="#4F4E4E"/>
<path d="M279.721 24.6091C279.721 26.3283 281.115 27.7219 282.834 27.7219C284.553 27.7219 285.947 26.3283 285.947 24.6091C285.947 22.89 284.553 21.4963 282.834 21.4963C281.115 21.4963 279.721 22.89 279.721 24.6091Z" fill="#4F4E4E"/>
<path d="M279.721 46.0527C279.721 47.7719 281.115 49.1655 282.834 49.1655C284.553 49.1655 285.947 47.7719 285.947 46.0527C285.947 44.3336 284.553 42.94 282.834 42.94C281.115 42.94 279.721 44.3336 279.721 46.0527Z" fill="#4F4E4E"/>
<path d="M279.721 67.4963C279.721 69.2155 281.115 70.6091 282.834 70.6091C284.553 70.6091 285.947 69.2155 285.947 67.4963C285.947 65.7772 284.553 64.3836 282.834 64.3836C281.115 64.3836 279.721 65.7772 279.721 67.4963Z" fill="#4F4E4E"/>
<path d="M258.278 3.16552C258.278 4.88466 259.671 6.2783 261.391 6.2783C263.11 6.2783 264.503 4.88466 264.503 3.16552C264.503 1.44637 263.11 0.0527343 261.391 0.0527342C259.671 0.0527342 258.278 1.44637 258.278 3.16552Z" fill="#4F4E4E"/>
<path d="M258.278 24.6091C258.278 26.3283 259.671 27.7219 261.391 27.7219C263.11 27.7219 264.503 26.3283 264.503 24.6091C264.503 22.89 263.11 21.4963 261.391 21.4963C259.671 21.4963 258.278 22.89 258.278 24.6091Z" fill="#4F4E4E"/>
<path d="M258.278 46.0527C258.278 47.7719 259.671 49.1655 261.391 49.1655C263.11 49.1655 264.503 47.7719 264.503 46.0527C264.503 44.3336 263.11 42.9399 261.391 42.9399C259.671 42.9399 258.278 44.3336 258.278 46.0527Z" fill="#4F4E4E"/>
<path d="M258.278 67.4963C258.278 69.2155 259.671 70.6091 261.391 70.6091C263.11 70.6091 264.503 69.2155 264.503 67.4963C264.503 65.7772 263.11 64.3836 261.391 64.3836C259.671 64.3836 258.278 65.7772 258.278 67.4963Z" fill="#4F4E4E"/>
<path d="M236.834 3.16552C236.834 4.88466 238.228 6.2783 239.947 6.2783C241.666 6.2783 243.06 4.88466 243.06 3.16552C243.06 1.44637 241.666 0.0527343 239.947 0.0527342C238.228 0.0527342 236.834 1.44637 236.834 3.16552Z" fill="#4F4E4E"/>
<path d="M236.834 24.6091C236.834 26.3283 238.228 27.7219 239.947 27.7219C241.666 27.7219 243.06 26.3283 243.06 24.6091C243.06 22.89 241.666 21.4963 239.947 21.4963C238.228 21.4963 236.834 22.89 236.834 24.6091Z" fill="#4F4E4E"/>
<path d="M236.834 46.0527C236.834 47.7719 238.228 49.1655 239.947 49.1655C241.666 49.1655 243.06 47.7719 243.06 46.0527C243.06 44.3336 241.666 42.9399 239.947 42.9399C238.228 42.9399 236.834 44.3336 236.834 46.0527Z" fill="#4F4E4E"/>
<path d="M236.834 67.4963C236.834 69.2155 238.228 70.6091 239.947 70.6091C241.666 70.6091 243.06 69.2155 243.06 67.4963C243.06 65.7772 241.666 64.3836 239.947 64.3836C238.228 64.3836 236.834 65.7772 236.834 67.4963Z" fill="#4F4E4E"/>
<path d="M215.391 3.16552C215.391 4.88466 216.784 6.2783 218.503 6.2783C220.223 6.2783 221.616 4.88466 221.616 3.16552C221.616 1.44637 220.223 0.0527343 218.503 0.0527342C216.784 0.0527342 215.391 1.44637 215.391 3.16552Z" fill="#4F4E4E"/>
<path d="M215.391 24.6091C215.391 26.3283 216.784 27.7219 218.503 27.7219C220.223 27.7219 221.616 26.3283 221.616 24.6091C221.616 22.89 220.223 21.4963 218.503 21.4963C216.784 21.4963 215.391 22.89 215.391 24.6091Z" fill="#4F4E4E"/>
<path d="M215.391 46.0527C215.391 47.7719 216.784 49.1655 218.503 49.1655C220.223 49.1655 221.616 47.7719 221.616 46.0527C221.616 44.3336 220.223 42.9399 218.503 42.9399C216.784 42.9399 215.391 44.3336 215.391 46.0527Z" fill="#4F4E4E"/>
<path d="M215.391 67.4963C215.391 69.2155 216.784 70.6091 218.503 70.6091C220.223 70.6091 221.616 69.2155 221.616 67.4963C221.616 65.7772 220.223 64.3836 218.503 64.3836C216.784 64.3836 215.391 65.7772 215.391 67.4963Z" fill="#4F4E4E"/>
<path d="M193.383 3.16552C193.383 4.88467 194.777 6.27831 196.496 6.27831C198.215 6.27831 199.609 4.88467 199.609 3.16552C199.609 1.44638 198.215 0.0527419 196.496 0.0527419C194.777 0.0527418 193.383 1.44638 193.383 3.16552Z" fill="#4F4E4E"/>
<path d="M193.383 24.6091C193.383 26.3283 194.777 27.7219 196.496 27.7219C198.215 27.7219 199.609 26.3283 199.609 24.6091C199.609 22.89 198.215 21.4964 196.496 21.4964C194.777 21.4964 193.383 22.89 193.383 24.6091Z" fill="#4F4E4E"/>
<path d="M193.383 46.0527C193.383 47.7719 194.777 49.1655 196.496 49.1655C198.215 49.1655 199.609 47.7719 199.609 46.0527C199.609 44.3336 198.215 42.94 196.496 42.94C194.777 42.94 193.383 44.3336 193.383 46.0527Z" fill="#4F4E4E"/>
<path d="M193.383 67.4963C193.383 69.2155 194.777 70.6091 196.496 70.6091C198.215 70.6091 199.609 69.2155 199.609 67.4963C199.609 65.7772 198.215 64.3836 196.496 64.3836C194.777 64.3836 193.383 65.7772 193.383 67.4963Z" fill="#4F4E4E"/>
<path d="M171.94 3.16552C171.94 4.88467 173.333 6.27831 175.052 6.27831C176.771 6.27831 178.165 4.88467 178.165 3.16552C178.165 1.44638 176.771 0.0527419 175.052 0.0527419C173.333 0.0527418 171.94 1.44638 171.94 3.16552Z" fill="#4F4E4E"/>
<path d="M171.94 24.6091C171.94 26.3283 173.333 27.7219 175.052 27.7219C176.771 27.7219 178.165 26.3283 178.165 24.6091C178.165 22.89 176.771 21.4964 175.052 21.4964C173.333 21.4964 171.94 22.89 171.94 24.6091Z" fill="#4F4E4E"/>
<path d="M171.94 46.0527C171.94 47.7719 173.333 49.1655 175.052 49.1655C176.771 49.1655 178.165 47.7719 178.165 46.0527C178.165 44.3336 176.771 42.94 175.052 42.94C173.333 42.94 171.94 44.3336 171.94 46.0527Z" fill="#4F4E4E"/>
<path d="M171.939 67.4963C171.939 69.2155 173.333 70.6091 175.052 70.6091C176.771 70.6091 178.165 69.2155 178.165 67.4963C178.165 65.7772 176.771 64.3836 175.052 64.3836C173.333 64.3836 171.939 65.7772 171.939 67.4963Z" fill="#4F4E4E"/>
<path d="M150.496 3.16552C150.496 4.88467 151.89 6.27831 153.609 6.27831C155.328 6.27831 156.721 4.88467 156.721 3.16552C156.721 1.44638 155.328 0.0527419 153.609 0.0527419C151.89 0.0527418 150.496 1.44638 150.496 3.16552Z" fill="#4F4E4E"/>
<path d="M150.496 24.6091C150.496 26.3283 151.89 27.7219 153.609 27.7219C155.328 27.7219 156.721 26.3283 156.721 24.6091C156.721 22.89 155.328 21.4963 153.609 21.4963C151.89 21.4963 150.496 22.89 150.496 24.6091Z" fill="#4F4E4E"/>
<path d="M150.496 46.0527C150.496 47.7719 151.89 49.1655 153.609 49.1655C155.328 49.1655 156.721 47.7719 156.721 46.0527C156.721 44.3336 155.328 42.94 153.609 42.94C151.89 42.94 150.496 44.3336 150.496 46.0527Z" fill="#4F4E4E"/>
<path d="M150.496 67.4963C150.496 69.2155 151.89 70.6091 153.609 70.6091C155.328 70.6091 156.721 69.2155 156.721 67.4963C156.721 65.7772 155.328 64.3836 153.609 64.3836C151.89 64.3836 150.496 65.7772 150.496 67.4963Z" fill="#4F4E4E"/>
<path d="M129.052 3.16552C129.052 4.88466 130.446 6.2783 132.165 6.2783C133.884 6.2783 135.278 4.88466 135.278 3.16552C135.278 1.44638 133.884 0.0527381 132.165 0.0527381C130.446 0.052738 129.052 1.44638 129.052 3.16552Z" fill="#4F4E4E"/>
<path d="M129.052 24.6091C129.052 26.3283 130.446 27.7219 132.165 27.7219C133.884 27.7219 135.278 26.3283 135.278 24.6091C135.278 22.89 133.884 21.4963 132.165 21.4963C130.446 21.4963 129.052 22.89 129.052 24.6091Z" fill="#4F4E4E"/>
<path d="M129.052 46.0527C129.052 47.7719 130.446 49.1655 132.165 49.1655C133.884 49.1655 135.278 47.7719 135.278 46.0527C135.278 44.3336 133.884 42.94 132.165 42.94C130.446 42.94 129.052 44.3336 129.052 46.0527Z" fill="#4F4E4E"/>
<path d="M129.052 67.4963C129.052 69.2155 130.446 70.6091 132.165 70.6091C133.884 70.6091 135.278 69.2155 135.278 67.4963C135.278 65.7772 133.884 64.3836 132.165 64.3836C130.446 64.3836 129.052 65.7772 129.052 67.4963Z" fill="#4F4E4E"/>
<path d="M107.609 3.16552C107.609 4.88466 109.002 6.2783 110.721 6.2783C112.441 6.2783 113.834 4.88466 113.834 3.16552C113.834 1.44638 112.441 0.0527381 110.721 0.0527381C109.002 0.052738 107.609 1.44638 107.609 3.16552Z" fill="#4F4E4E"/>
<path d="M107.609 24.6091C107.609 26.3283 109.002 27.7219 110.721 27.7219C112.441 27.7219 113.834 26.3283 113.834 24.6091C113.834 22.89 112.441 21.4963 110.721 21.4963C109.002 21.4963 107.609 22.89 107.609 24.6091Z" fill="#4F4E4E"/>
<path d="M107.609 46.0527C107.609 47.7719 109.002 49.1655 110.721 49.1655C112.441 49.1655 113.834 47.7719 113.834 46.0527C113.834 44.3336 112.441 42.94 110.721 42.94C109.002 42.94 107.609 44.3336 107.609 46.0527Z" fill="#4F4E4E"/>
<path d="M107.609 67.4963C107.609 69.2155 109.002 70.6091 110.721 70.6091C112.441 70.6091 113.834 69.2155 113.834 67.4963C113.834 65.7772 112.441 64.3836 110.721 64.3836C109.002 64.3836 107.609 65.7772 107.609 67.4963Z" fill="#4F4E4E"/>
<path d="M86.1651 3.16552C86.1651 4.88466 87.5587 6.2783 89.2778 6.2783C90.997 6.2783 92.3906 4.88466 92.3906 3.16552C92.3906 1.44638 90.997 0.0527381 89.2778 0.0527381C87.5587 0.052738 86.1651 1.44638 86.1651 3.16552Z" fill="#4F4E4E"/>
<path d="M86.1651 24.6091C86.1651 26.3283 87.5587 27.7219 89.2778 27.7219C90.997 27.7219 92.3906 26.3283 92.3906 24.6091C92.3906 22.89 90.997 21.4963 89.2778 21.4963C87.5587 21.4963 86.1651 22.89 86.1651 24.6091Z" fill="#4F4E4E"/>
<path d="M86.1651 46.0527C86.1651 47.7719 87.5587 49.1655 89.2778 49.1655C90.997 49.1655 92.3906 47.7719 92.3906 46.0527C92.3906 44.3336 90.997 42.94 89.2778 42.94C87.5587 42.94 86.1651 44.3336 86.1651 46.0527Z" fill="#4F4E4E"/>
<path d="M86.1651 67.4963C86.1651 69.2155 87.5587 70.6091 89.2778 70.6091C90.997 70.6091 92.3906 69.2155 92.3906 67.4963C92.3906 65.7772 90.997 64.3836 89.2778 64.3836C87.5587 64.3836 86.1651 65.7772 86.1651 67.4963Z" fill="#4F4E4E"/>
<path d="M64.7215 3.16552C64.7215 4.88466 66.1151 6.2783 67.8342 6.2783C69.5534 6.2783 70.947 4.88466 70.947 3.16552C70.947 1.44638 69.5534 0.0527381 67.8342 0.0527381C66.1151 0.052738 64.7215 1.44638 64.7215 3.16552Z" fill="#4F4E4E"/>
<path d="M64.7215 24.6091C64.7215 26.3283 66.1151 27.7219 67.8342 27.7219C69.5534 27.7219 70.947 26.3283 70.947 24.6091C70.947 22.89 69.5534 21.4963 67.8342 21.4963C66.1151 21.4963 64.7215 22.89 64.7215 24.6091Z" fill="#4F4E4E"/>
<path d="M64.7215 46.0527C64.7215 47.7719 66.1151 49.1655 67.8342 49.1655C69.5534 49.1655 70.947 47.7719 70.947 46.0527C70.947 44.3336 69.5534 42.94 67.8342 42.94C66.1151 42.94 64.7215 44.3336 64.7215 46.0527Z" fill="#4F4E4E"/>
<path d="M64.7215 67.4963C64.7215 69.2155 66.1151 70.6091 67.8342 70.6091C69.5534 70.6091 70.947 69.2155 70.947 67.4963C70.947 65.7772 69.5534 64.3836 67.8342 64.3836C66.1151 64.3836 64.7215 65.7772 64.7215 67.4963Z" fill="#4F4E4E"/>
<path d="M43.2779 3.16552C43.2779 4.88466 44.6715 6.2783 46.3906 6.2783C48.1098 6.2783 49.5034 4.88466 49.5034 3.16552C49.5034 1.44637 48.1098 0.0527343 46.3906 0.0527342C44.6715 0.0527342 43.2779 1.44637 43.2779 3.16552Z" fill="#4F4E4E"/>
<path d="M43.2778 24.6091C43.2778 26.3283 44.6715 27.7219 46.3906 27.7219C48.1097 27.7219 49.5034 26.3283 49.5034 24.6091C49.5034 22.89 48.1097 21.4963 46.3906 21.4963C44.6715 21.4963 43.2778 22.89 43.2778 24.6091Z" fill="#4F4E4E"/>
<path d="M43.2778 46.0527C43.2778 47.7719 44.6715 49.1655 46.3906 49.1655C48.1097 49.1655 49.5034 47.7719 49.5034 46.0527C49.5034 44.3336 48.1097 42.9399 46.3906 42.9399C44.6715 42.9399 43.2778 44.3336 43.2778 46.0527Z" fill="#4F4E4E"/>
<path d="M43.2778 67.4963C43.2778 69.2155 44.6715 70.6091 46.3906 70.6091C48.1097 70.6091 49.5034 69.2155 49.5034 67.4963C49.5034 65.7772 48.1097 64.3836 46.3906 64.3836C44.6715 64.3836 43.2778 65.7772 43.2778 67.4963Z" fill="#4F4E4E"/>
<path d="M21.8343 3.16552C21.8343 4.88466 23.2279 6.2783 24.947 6.2783C26.6662 6.2783 28.0598 4.88466 28.0598 3.16552C28.0598 1.44637 26.6662 0.0527343 24.947 0.0527342C23.2279 0.0527342 21.8343 1.44637 21.8343 3.16552Z" fill="#4F4E4E"/>
<path d="M21.8342 24.6091C21.8342 26.3283 23.2279 27.7219 24.947 27.7219C26.6661 27.7219 28.0598 26.3283 28.0598 24.6091C28.0598 22.89 26.6661 21.4963 24.947 21.4963C23.2279 21.4963 21.8342 22.89 21.8342 24.6091Z" fill="#4F4E4E"/>
<path d="M21.8342 46.0527C21.8342 47.7719 23.2279 49.1655 24.947 49.1655C26.6661 49.1655 28.0598 47.7719 28.0598 46.0527C28.0598 44.3336 26.6661 42.9399 24.947 42.9399C23.2279 42.9399 21.8342 44.3336 21.8342 46.0527Z" fill="#4F4E4E"/>
<path d="M21.8342 67.4963C21.8342 69.2155 23.2279 70.6091 24.947 70.6091C26.6661 70.6091 28.0598 69.2155 28.0598 67.4963C28.0598 65.7772 26.6661 64.3836 24.947 64.3836C23.2279 64.3836 21.8342 65.7772 21.8342 67.4963Z" fill="#4F4E4E"/>
<path d="M0.390647 3.16552C0.390647 4.88466 1.78429 6.2783 3.50343 6.2783C5.22257 6.2783 6.61621 4.88466 6.61621 3.16552C6.61621 1.44637 5.22257 0.0527343 3.50343 0.0527342C1.78429 0.0527342 0.390647 1.44637 0.390647 3.16552Z" fill="#4F4E4E"/>
<path d="M0.390616 24.6091C0.390616 26.3283 1.78426 27.7219 3.5034 27.7219C5.22254 27.7219 6.61618 26.3283 6.61618 24.6091C6.61618 22.89 5.22254 21.4963 3.5034 21.4963C1.78426 21.4963 0.390616 22.89 0.390616 24.6091Z" fill="#4F4E4E"/>
<path d="M0.390616 46.0527C0.390616 47.7719 1.78426 49.1655 3.5034 49.1655C5.22254 49.1655 6.61618 47.7719 6.61618 46.0527C6.61618 44.3336 5.22254 42.9399 3.5034 42.9399C1.78426 42.9399 0.390616 44.3336 0.390616 46.0527Z" fill="#4F4E4E"/>
<path d="M0.390616 67.4963C0.390616 69.2155 1.78426 70.6091 3.5034 70.6091C5.22254 70.6091 6.61618 69.2155 6.61618 67.4963C6.61618 65.7772 5.22254 64.3836 3.5034 64.3836C1.78426 64.3836 0.390616 65.7772 0.390616 67.4963Z" fill="#4F4E4E"/>
</svg>
