<svg width="714" height="71" viewBox="0 0 714 71" fill="none" xmlns="http://www.w3.org/2000/svg">
<path d="M707.384 3.16527C707.384 4.88441 708.777 6.27805 710.497 6.27805C712.216 6.27805 713.609 4.88441 713.609 3.16527C713.609 1.44613 712.216 0.0524902 710.497 0.0524901C708.777 0.05249 707.384 1.44613 707.384 3.16527Z" fill="#4F4E4E"/>
<path d="M707.384 24.6089C707.384 26.328 708.777 27.7217 710.497 27.7217C712.216 27.7217 713.609 26.328 713.609 24.6089C713.609 22.8897 712.216 21.4961 710.497 21.4961C708.777 21.4961 707.384 22.8897 707.384 24.6089Z" fill="#4F4E4E"/>
<path d="M707.384 46.0525C707.384 47.7716 708.777 49.1653 710.497 49.1653C712.216 49.1653 713.609 47.7716 713.609 46.0525C713.609 44.3333 712.216 42.9397 710.497 42.9397C708.777 42.9397 707.384 44.3333 707.384 46.0525Z" fill="#4F4E4E"/>
<path d="M707.384 67.4961C707.384 69.2152 708.777 70.6089 710.497 70.6089C712.216 70.6089 713.609 69.2152 713.609 67.4961C713.609 65.7769 712.216 64.3833 710.497 64.3833C708.777 64.3833 707.384 65.7769 707.384 67.4961Z" fill="#4F4E4E"/>
<path d="M685.94 3.16527C685.94 4.88441 687.334 6.27805 689.053 6.27805C690.772 6.27805 692.166 4.88441 692.166 3.16527C692.166 1.44613 690.772 0.0524902 689.053 0.0524901C687.334 0.05249 685.94 1.44613 685.94 3.16527Z" fill="#4F4E4E"/>
<path d="M685.94 24.6089C685.94 26.328 687.334 27.7217 689.053 27.7217C690.772 27.7217 692.166 26.328 692.166 24.6089C692.166 22.8897 690.772 21.4961 689.053 21.4961C687.334 21.4961 685.94 22.8897 685.94 24.6089Z" fill="#4F4E4E"/>
<path d="M685.94 46.0525C685.94 47.7716 687.334 49.1653 689.053 49.1653C690.772 49.1653 692.166 47.7716 692.166 46.0525C692.166 44.3333 690.772 42.9397 689.053 42.9397C687.334 42.9397 685.94 44.3333 685.94 46.0525Z" fill="#4F4E4E"/>
<path d="M685.94 67.4961C685.94 69.2152 687.334 70.6089 689.053 70.6089C690.772 70.6089 692.166 69.2152 692.166 67.4961C692.166 65.7769 690.772 64.3833 689.053 64.3833C687.334 64.3833 685.94 65.7769 685.94 67.4961Z" fill="#4F4E4E"/>
<path d="M664.497 3.16527C664.497 4.88441 665.891 6.27805 667.61 6.27805C669.329 6.27805 670.723 4.88441 670.723 3.16527C670.723 1.44613 669.329 0.0524902 667.61 0.0524901C665.891 0.05249 664.497 1.44613 664.497 3.16527Z" fill="#4F4E4E"/>
<path d="M664.497 24.6089C664.497 26.328 665.891 27.7217 667.61 27.7217C669.329 27.7217 670.723 26.328 670.723 24.6089C670.723 22.8897 669.329 21.4961 667.61 21.4961C665.891 21.4961 664.497 22.8897 664.497 24.6089Z" fill="#4F4E4E"/>
<path d="M664.497 46.0525C664.497 47.7716 665.891 49.1653 667.61 49.1653C669.329 49.1653 670.723 47.7716 670.723 46.0525C670.723 44.3333 669.329 42.9397 667.61 42.9397C665.891 42.9397 664.497 44.3333 664.497 46.0525Z" fill="#4F4E4E"/>
<path d="M664.497 67.4961C664.497 69.2152 665.891 70.6089 667.61 70.6089C669.329 70.6089 670.723 69.2152 670.723 67.4961C670.723 65.7769 669.329 64.3833 667.61 64.3833C665.891 64.3833 664.497 65.7769 664.497 67.4961Z" fill="#4F4E4E"/>
<path d="M643.054 3.16527C643.054 4.88441 644.447 6.27805 646.167 6.27805C647.886 6.27805 649.279 4.88441 649.279 3.16527C649.279 1.44613 647.886 0.0524902 646.167 0.0524901C644.447 0.05249 643.054 1.44613 643.054 3.16527Z" fill="#4F4E4E"/>
<path d="M643.054 24.6089C643.054 26.328 644.447 27.7217 646.167 27.7217C647.886 27.7217 649.279 26.328 649.279 24.6089C649.279 22.8897 647.886 21.4961 646.167 21.4961C644.447 21.4961 643.054 22.8897 643.054 24.6089Z" fill="#4F4E4E"/>
<path d="M643.054 46.0525C643.054 47.7716 644.447 49.1653 646.167 49.1653C647.886 49.1653 649.279 47.7716 649.279 46.0525C649.279 44.3333 647.886 42.9397 646.167 42.9397C644.447 42.9397 643.054 44.3333 643.054 46.0525Z" fill="#4F4E4E"/>
<path d="M643.054 67.4961C643.054 69.2152 644.447 70.6089 646.167 70.6089C647.886 70.6089 649.279 69.2152 649.279 67.4961C649.279 65.7769 647.886 64.3833 646.167 64.3833C644.447 64.3833 643.054 65.7769 643.054 67.4961Z" fill="#4F4E4E"/>
<path d="M621.608 3.16527C621.608 4.88441 623.002 6.27805 624.721 6.27805C626.44 6.27805 627.834 4.88441 627.834 3.16527C627.834 1.44613 626.44 0.0524902 624.721 0.0524901C623.002 0.05249 621.608 1.44613 621.608 3.16527Z" fill="#4F4E4E"/>
<path d="M621.608 24.6089C621.608 26.328 623.002 27.7217 624.721 27.7217C626.44 27.7217 627.834 26.328 627.834 24.6089C627.834 22.8897 626.44 21.4961 624.721 21.4961C623.002 21.4961 621.608 22.8897 621.608 24.6089Z" fill="#4F4E4E"/>
<path d="M621.608 46.0525C621.608 47.7716 623.002 49.1653 624.721 49.1653C626.44 49.1653 627.834 47.7716 627.834 46.0525C627.834 44.3333 626.44 42.9397 624.721 42.9397C623.002 42.9397 621.608 44.3333 621.608 46.0525Z" fill="#4F4E4E"/>
<path d="M621.608 67.4961C621.608 69.2152 623.002 70.6089 624.721 70.6089C626.44 70.6089 627.834 69.2152 627.834 67.4961C627.834 65.7769 626.44 64.3833 624.721 64.3833C623.002 64.3833 621.608 65.7769 621.608 67.4961Z" fill="#4F4E4E"/>
<path d="M600.165 3.16527C600.165 4.88441 601.559 6.27805 603.278 6.27805C604.997 6.27805 606.391 4.88441 606.391 3.16527C606.391 1.44613 604.997 0.0524902 603.278 0.0524901C601.559 0.05249 600.165 1.44613 600.165 3.16527Z" fill="#4F4E4E"/>
<path d="M600.165 24.6089C600.165 26.328 601.559 27.7217 603.278 27.7217C604.997 27.7217 606.391 26.328 606.391 24.6089C606.391 22.8897 604.997 21.4961 603.278 21.4961C601.559 21.4961 600.165 22.8897 600.165 24.6089Z" fill="#4F4E4E"/>
<path d="M600.165 46.0525C600.165 47.7716 601.559 49.1653 603.278 49.1653C604.997 49.1653 606.391 47.7716 606.391 46.0525C606.391 44.3333 604.997 42.9397 603.278 42.9397C601.559 42.9397 600.165 44.3333 600.165 46.0525Z" fill="#4F4E4E"/>
<path d="M600.165 67.4961C600.165 69.2152 601.559 70.6089 603.278 70.6089C604.997 70.6089 606.391 69.2152 606.391 67.4961C606.391 65.7769 604.997 64.3833 603.278 64.3833C601.559 64.3833 600.165 65.7769 600.165 67.4961Z" fill="#4F4E4E"/>
<path d="M578.722 3.16527C578.722 4.88441 580.115 6.27805 581.834 6.27805C583.554 6.27805 584.947 4.88441 584.947 3.16527C584.947 1.44613 583.554 0.0524902 581.834 0.0524901C580.115 0.05249 578.722 1.44613 578.722 3.16527Z" fill="#4F4E4E"/>
<path d="M578.722 24.6089C578.722 26.328 580.115 27.7217 581.834 27.7217C583.554 27.7217 584.947 26.328 584.947 24.6089C584.947 22.8897 583.554 21.4961 581.834 21.4961C580.115 21.4961 578.722 22.8897 578.722 24.6089Z" fill="#4F4E4E"/>
<path d="M578.722 46.0525C578.722 47.7716 580.115 49.1653 581.834 49.1653C583.554 49.1653 584.947 47.7716 584.947 46.0525C584.947 44.3333 583.554 42.9397 581.834 42.9397C580.115 42.9397 578.722 44.3333 578.722 46.0525Z" fill="#4F4E4E"/>
<path d="M578.722 67.4961C578.722 69.2152 580.115 70.6089 581.834 70.6089C583.554 70.6089 584.947 69.2152 584.947 67.4961C584.947 65.7769 583.554 64.3833 581.834 64.3833C580.115 64.3833 578.722 65.7769 578.722 67.4961Z" fill="#4F4E4E"/>
<path d="M557.278 3.16527C557.278 4.88441 558.672 6.27805 560.391 6.27805C562.11 6.27805 563.504 4.88441 563.504 3.16527C563.504 1.44613 562.11 0.0524902 560.391 0.0524901C558.672 0.05249 557.278 1.44613 557.278 3.16527Z" fill="#4F4E4E"/>
<path d="M557.278 24.6089C557.278 26.328 558.672 27.7217 560.391 27.7217C562.11 27.7217 563.504 26.328 563.504 24.6089C563.504 22.8897 562.11 21.4961 560.391 21.4961C558.672 21.4961 557.278 22.8897 557.278 24.6089Z" fill="#4F4E4E"/>
<path d="M557.278 46.0525C557.278 47.7716 558.672 49.1653 560.391 49.1653C562.11 49.1653 563.504 47.7716 563.504 46.0525C563.504 44.3333 562.11 42.9397 560.391 42.9397C558.672 42.9397 557.278 44.3333 557.278 46.0525Z" fill="#4F4E4E"/>
<path d="M557.278 67.4961C557.278 69.2152 558.672 70.6089 560.391 70.6089C562.11 70.6089 563.504 69.2152 563.504 67.4961C563.504 65.7769 562.11 64.3833 560.391 64.3833C558.672 64.3833 557.278 65.7769 557.278 67.4961Z" fill="#4F4E4E"/>
<path d="M535.835 3.16527C535.835 4.88441 537.229 6.27805 538.948 6.27805C540.667 6.27805 542.061 4.88441 542.061 3.16527C542.061 1.44613 540.667 0.0524902 538.948 0.0524901C537.229 0.05249 535.835 1.44613 535.835 3.16527Z" fill="#4F4E4E"/>
<path d="M535.835 24.6089C535.835 26.328 537.229 27.7217 538.948 27.7217C540.667 27.7217 542.061 26.328 542.061 24.6089C542.061 22.8897 540.667 21.4961 538.948 21.4961C537.229 21.4961 535.835 22.8897 535.835 24.6089Z" fill="#4F4E4E"/>
<path d="M535.835 46.0525C535.835 47.7716 537.229 49.1653 538.948 49.1653C540.667 49.1653 542.061 47.7716 542.061 46.0525C542.061 44.3333 540.667 42.9397 538.948 42.9397C537.229 42.9397 535.835 44.3333 535.835 46.0525Z" fill="#4F4E4E"/>
<path d="M535.835 67.4961C535.835 69.2152 537.229 70.6089 538.948 70.6089C540.667 70.6089 542.061 69.2152 542.061 67.4961C542.061 65.7769 540.667 64.3833 538.948 64.3833C537.229 64.3833 535.835 65.7769 535.835 67.4961Z" fill="#4F4E4E"/>
<path d="M514.392 3.16527C514.392 4.88441 515.785 6.27805 517.504 6.27805C519.224 6.27805 520.617 4.88441 520.617 3.16527C520.617 1.44613 519.224 0.0524902 517.504 0.0524901C515.785 0.05249 514.392 1.44613 514.392 3.16527Z" fill="#4F4E4E"/>
<path d="M514.392 24.6089C514.392 26.328 515.785 27.7217 517.504 27.7217C519.224 27.7217 520.617 26.328 520.617 24.6089C520.617 22.8897 519.224 21.4961 517.504 21.4961C515.785 21.4961 514.392 22.8897 514.392 24.6089Z" fill="#4F4E4E"/>
<path d="M514.392 46.0525C514.392 47.7716 515.785 49.1653 517.504 49.1653C519.224 49.1653 520.617 47.7716 520.617 46.0525C520.617 44.3333 519.224 42.9397 517.504 42.9397C515.785 42.9397 514.392 44.3333 514.392 46.0525Z" fill="#4F4E4E"/>
<path d="M514.392 67.4961C514.392 69.2152 515.785 70.6089 517.504 70.6089C519.224 70.6089 520.617 69.2152 520.617 67.4961C520.617 65.7769 519.224 64.3833 517.504 64.3833C515.785 64.3833 514.392 65.7769 514.392 67.4961Z" fill="#4F4E4E"/>
<path d="M492.384 3.16527C492.384 4.88441 493.777 6.27805 495.497 6.27805C497.216 6.27805 498.609 4.88441 498.609 3.16527C498.609 1.44613 497.216 0.0524902 495.497 0.0524901C493.777 0.05249 492.384 1.44613 492.384 3.16527Z" fill="#4F4E4E"/>
<path d="M492.384 24.6089C492.384 26.328 493.777 27.7217 495.497 27.7217C497.216 27.7217 498.609 26.328 498.609 24.6089C498.609 22.8897 497.216 21.4961 495.497 21.4961C493.777 21.4961 492.384 22.8897 492.384 24.6089Z" fill="#4F4E4E"/>
<path d="M492.384 46.0525C492.384 47.7716 493.777 49.1653 495.497 49.1653C497.216 49.1653 498.609 47.7716 498.609 46.0525C498.609 44.3333 497.216 42.9397 495.497 42.9397C493.777 42.9397 492.384 44.3333 492.384 46.0525Z" fill="#4F4E4E"/>
<path d="M492.384 67.4961C492.384 69.2152 493.777 70.6089 495.497 70.6089C497.216 70.6089 498.609 69.2152 498.609 67.4961C498.609 65.7769 497.216 64.3833 495.497 64.3833C493.777 64.3833 492.384 65.7769 492.384 67.4961Z" fill="#4F4E4E"/>
<path d="M470.94 3.16527C470.94 4.88441 472.334 6.27805 474.053 6.27805C475.772 6.27805 477.166 4.88441 477.166 3.16527C477.166 1.44613 475.772 0.0524902 474.053 0.0524901C472.334 0.05249 470.94 1.44613 470.94 3.16527Z" fill="#4F4E4E"/>
<path d="M470.94 24.6089C470.94 26.328 472.334 27.7217 474.053 27.7217C475.772 27.7217 477.166 26.328 477.166 24.6089C477.166 22.8897 475.772 21.4961 474.053 21.4961C472.334 21.4961 470.94 22.8897 470.94 24.6089Z" fill="#4F4E4E"/>
<path d="M470.94 46.0525C470.94 47.7716 472.334 49.1653 474.053 49.1653C475.772 49.1653 477.166 47.7716 477.166 46.0525C477.166 44.3333 475.772 42.9397 474.053 42.9397C472.334 42.9397 470.94 44.3333 470.94 46.0525Z" fill="#4F4E4E"/>
<path d="M470.94 67.4961C470.94 69.2152 472.334 70.6089 474.053 70.6089C475.772 70.6089 477.166 69.2152 477.166 67.4961C477.166 65.7769 475.772 64.3833 474.053 64.3833C472.334 64.3833 470.94 65.7769 470.94 67.4961Z" fill="#4F4E4E"/>
<path d="M449.497 3.16527C449.497 4.88441 450.891 6.27805 452.61 6.27805C454.329 6.27805 455.723 4.88441 455.723 3.16527C455.723 1.44613 454.329 0.0524902 452.61 0.0524901C450.891 0.05249 449.497 1.44613 449.497 3.16527Z" fill="#4F4E4E"/>
<path d="M449.497 24.6089C449.497 26.328 450.891 27.7217 452.61 27.7217C454.329 27.7217 455.723 26.328 455.723 24.6089C455.723 22.8897 454.329 21.4961 452.61 21.4961C450.891 21.4961 449.497 22.8897 449.497 24.6089Z" fill="#4F4E4E"/>
<path d="M449.497 46.0525C449.497 47.7716 450.891 49.1653 452.61 49.1653C454.329 49.1653 455.723 47.7716 455.723 46.0525C455.723 44.3333 454.329 42.9397 452.61 42.9397C450.891 42.9397 449.497 44.3333 449.497 46.0525Z" fill="#4F4E4E"/>
<path d="M449.497 67.4961C449.497 69.2152 450.891 70.6089 452.61 70.6089C454.329 70.6089 455.723 69.2152 455.723 67.4961C455.723 65.7769 454.329 64.3833 452.61 64.3833C450.891 64.3833 449.497 65.7769 449.497 67.4961Z" fill="#4F4E4E"/>
<path d="M428.054 3.16527C428.054 4.88441 429.447 6.27805 431.167 6.27805C432.886 6.27805 434.279 4.88441 434.279 3.16527C434.279 1.44613 432.886 0.0524902 431.167 0.0524901C429.447 0.05249 428.054 1.44613 428.054 3.16527Z" fill="#4F4E4E"/>
<path d="M428.054 24.6089C428.054 26.328 429.447 27.7217 431.167 27.7217C432.886 27.7217 434.279 26.328 434.279 24.6089C434.279 22.8897 432.886 21.4961 431.167 21.4961C429.447 21.4961 428.054 22.8897 428.054 24.6089Z" fill="#4F4E4E"/>
<path d="M428.054 46.0525C428.054 47.7716 429.447 49.1653 431.167 49.1653C432.886 49.1653 434.279 47.7716 434.279 46.0525C434.279 44.3333 432.886 42.9397 431.167 42.9397C429.447 42.9397 428.054 44.3333 428.054 46.0525Z" fill="#4F4E4E"/>
<path d="M428.054 67.4961C428.054 69.2152 429.447 70.6089 431.167 70.6089C432.886 70.6089 434.279 69.2152 434.279 67.4961C434.279 65.7769 432.886 64.3833 431.167 64.3833C429.447 64.3833 428.054 65.7769 428.054 67.4961Z" fill="#4F4E4E"/>
<path d="M406.608 3.16527C406.608 4.88441 408.002 6.27805 409.721 6.27805C411.44 6.27805 412.834 4.88441 412.834 3.16527C412.834 1.44613 411.44 0.0524902 409.721 0.0524901C408.002 0.05249 406.608 1.44613 406.608 3.16527Z" fill="#4F4E4E"/>
<path d="M406.608 24.6089C406.608 26.328 408.002 27.7217 409.721 27.7217C411.44 27.7217 412.834 26.328 412.834 24.6089C412.834 22.8897 411.44 21.4961 409.721 21.4961C408.002 21.4961 406.608 22.8897 406.608 24.6089Z" fill="#4F4E4E"/>
<path d="M406.608 46.0525C406.608 47.7716 408.002 49.1653 409.721 49.1653C411.44 49.1653 412.834 47.7716 412.834 46.0525C412.834 44.3333 411.44 42.9397 409.721 42.9397C408.002 42.9397 406.608 44.3333 406.608 46.0525Z" fill="#4F4E4E"/>
<path d="M406.608 67.4961C406.608 69.2152 408.002 70.6089 409.721 70.6089C411.44 70.6089 412.834 69.2152 412.834 67.4961C412.834 65.7769 411.44 64.3833 409.721 64.3833C408.002 64.3833 406.608 65.7769 406.608 67.4961Z" fill="#4F4E4E"/>
<path d="M385.165 3.16527C385.165 4.88441 386.559 6.27805 388.278 6.27805C389.997 6.27805 391.391 4.88441 391.391 3.16527C391.391 1.44613 389.997 0.0524902 388.278 0.0524901C386.559 0.05249 385.165 1.44613 385.165 3.16527Z" fill="#4F4E4E"/>
<path d="M385.165 24.6089C385.165 26.328 386.559 27.7217 388.278 27.7217C389.997 27.7217 391.391 26.328 391.391 24.6089C391.391 22.8897 389.997 21.4961 388.278 21.4961C386.559 21.4961 385.165 22.8897 385.165 24.6089Z" fill="#4F4E4E"/>
<path d="M385.165 46.0525C385.165 47.7716 386.559 49.1653 388.278 49.1653C389.997 49.1653 391.391 47.7716 391.391 46.0525C391.391 44.3333 389.997 42.9397 388.278 42.9397C386.559 42.9397 385.165 44.3333 385.165 46.0525Z" fill="#4F4E4E"/>
<path d="M385.165 67.4961C385.165 69.2152 386.559 70.6089 388.278 70.6089C389.997 70.6089 391.391 69.2152 391.391 67.4961C391.391 65.7769 389.997 64.3833 388.278 64.3833C386.559 64.3833 385.165 65.7769 385.165 67.4961Z" fill="#4F4E4E"/>
<path d="M363.722 3.16527C363.722 4.88441 365.115 6.27805 366.834 6.27805C368.554 6.27805 369.947 4.88441 369.947 3.16527C369.947 1.44613 368.554 0.0524902 366.834 0.0524901C365.115 0.05249 363.722 1.44613 363.722 3.16527Z" fill="#4F4E4E"/>
<path d="M363.722 24.6089C363.722 26.328 365.115 27.7217 366.834 27.7217C368.554 27.7217 369.947 26.328 369.947 24.6089C369.947 22.8897 368.554 21.4961 366.834 21.4961C365.115 21.4961 363.722 22.8897 363.722 24.6089Z" fill="#4F4E4E"/>
<path d="M363.722 46.0525C363.722 47.7716 365.115 49.1653 366.834 49.1653C368.554 49.1653 369.947 47.7716 369.947 46.0525C369.947 44.3333 368.554 42.9397 366.834 42.9397C365.115 42.9397 363.722 44.3333 363.722 46.0525Z" fill="#4F4E4E"/>
<path d="M363.722 67.4961C363.722 69.2152 365.115 70.6089 366.834 70.6089C368.554 70.6089 369.947 69.2152 369.947 67.4961C369.947 65.7769 368.554 64.3833 366.834 64.3833C365.115 64.3833 363.722 65.7769 363.722 67.4961Z" fill="#4F4E4E"/>
<path d="M342.278 3.16527C342.278 4.88441 343.672 6.27805 345.391 6.27805C347.11 6.27805 348.504 4.88441 348.504 3.16527C348.504 1.44613 347.11 0.0524902 345.391 0.0524901C343.672 0.05249 342.278 1.44613 342.278 3.16527Z" fill="#4F4E4E"/>
<path d="M342.278 24.6089C342.278 26.328 343.672 27.7217 345.391 27.7217C347.11 27.7217 348.504 26.328 348.504 24.6089C348.504 22.8897 347.11 21.4961 345.391 21.4961C343.672 21.4961 342.278 22.8897 342.278 24.6089Z" fill="#4F4E4E"/>
<path d="M342.278 46.0525C342.278 47.7716 343.672 49.1653 345.391 49.1653C347.11 49.1653 348.504 47.7716 348.504 46.0525C348.504 44.3333 347.11 42.9397 345.391 42.9397C343.672 42.9397 342.278 44.3333 342.278 46.0525Z" fill="#4F4E4E"/>
<path d="M342.278 67.4961C342.278 69.2152 343.672 70.6089 345.391 70.6089C347.11 70.6089 348.504 69.2152 348.504 67.4961C348.504 65.7769 347.11 64.3833 345.391 64.3833C343.672 64.3833 342.278 65.7769 342.278 67.4961Z" fill="#4F4E4E"/>
<path d="M320.835 3.16527C320.835 4.88441 322.229 6.27805 323.948 6.27805C325.667 6.27805 327.061 4.88441 327.061 3.16527C327.061 1.44613 325.667 0.0524902 323.948 0.0524901C322.229 0.05249 320.835 1.44613 320.835 3.16527Z" fill="#4F4E4E"/>
<path d="M320.835 24.6089C320.835 26.328 322.229 27.7217 323.948 27.7217C325.667 27.7217 327.061 26.328 327.061 24.6089C327.061 22.8897 325.667 21.4961 323.948 21.4961C322.229 21.4961 320.835 22.8897 320.835 24.6089Z" fill="#4F4E4E"/>
<path d="M320.835 46.0525C320.835 47.7716 322.229 49.1653 323.948 49.1653C325.667 49.1653 327.061 47.7716 327.061 46.0525C327.061 44.3333 325.667 42.9397 323.948 42.9397C322.229 42.9397 320.835 44.3333 320.835 46.0525Z" fill="#4F4E4E"/>
<path d="M320.835 67.4961C320.835 69.2152 322.229 70.6089 323.948 70.6089C325.667 70.6089 327.061 69.2152 327.061 67.4961C327.061 65.7769 325.667 64.3833 323.948 64.3833C322.229 64.3833 320.835 65.7769 320.835 67.4961Z" fill="#4F4E4E"/>
<path d="M299.392 3.16527C299.392 4.88441 300.785 6.27805 302.504 6.27805C304.224 6.27805 305.617 4.88441 305.617 3.16527C305.617 1.44613 304.224 0.0524902 302.504 0.0524901C300.785 0.05249 299.392 1.44613 299.392 3.16527Z" fill="#4F4E4E"/>
<path d="M299.392 24.6089C299.392 26.328 300.785 27.7217 302.504 27.7217C304.224 27.7217 305.617 26.328 305.617 24.6089C305.617 22.8897 304.224 21.4961 302.504 21.4961C300.785 21.4961 299.392 22.8897 299.392 24.6089Z" fill="#4F4E4E"/>
<path d="M299.392 46.0525C299.392 47.7716 300.785 49.1653 302.504 49.1653C304.224 49.1653 305.617 47.7716 305.617 46.0525C305.617 44.3333 304.224 42.9397 302.504 42.9397C300.785 42.9397 299.392 44.3333 299.392 46.0525Z" fill="#4F4E4E"/>
<path d="M299.392 67.4961C299.392 69.2152 300.785 70.6089 302.504 70.6089C304.224 70.6089 305.617 69.2152 305.617 67.4961C305.617 65.7769 304.224 64.3833 302.504 64.3833C300.785 64.3833 299.392 65.7769 299.392 67.4961Z" fill="#4F4E4E"/>
<path d="M277.384 3.16527C277.384 4.88441 278.777 6.27805 280.497 6.27805C282.216 6.27805 283.609 4.88441 283.609 3.16527C283.609 1.44613 282.216 0.0524902 280.497 0.0524901C278.777 0.05249 277.384 1.44613 277.384 3.16527Z" fill="#4F4E4E"/>
<path d="M277.384 24.6089C277.384 26.328 278.777 27.7217 280.497 27.7217C282.216 27.7217 283.609 26.328 283.609 24.6089C283.609 22.8897 282.216 21.4961 280.497 21.4961C278.777 21.4961 277.384 22.8897 277.384 24.6089Z" fill="#4F4E4E"/>
<path d="M277.384 46.0525C277.384 47.7716 278.777 49.1653 280.497 49.1653C282.216 49.1653 283.609 47.7716 283.609 46.0525C283.609 44.3333 282.216 42.9397 280.497 42.9397C278.777 42.9397 277.384 44.3333 277.384 46.0525Z" fill="#4F4E4E"/>
<path d="M277.384 67.4961C277.384 69.2152 278.777 70.6089 280.497 70.6089C282.216 70.6089 283.609 69.2152 283.609 67.4961C283.609 65.7769 282.216 64.3833 280.497 64.3833C278.777 64.3833 277.384 65.7769 277.384 67.4961Z" fill="#4F4E4E"/>
<path d="M255.94 3.16527C255.94 4.88441 257.334 6.27805 259.053 6.27805C260.772 6.27805 262.166 4.88441 262.166 3.16527C262.166 1.44613 260.772 0.0524902 259.053 0.0524901C257.334 0.05249 255.94 1.44613 255.94 3.16527Z" fill="#4F4E4E"/>
<path d="M255.94 24.6089C255.94 26.328 257.334 27.7217 259.053 27.7217C260.772 27.7217 262.166 26.328 262.166 24.6089C262.166 22.8897 260.772 21.4961 259.053 21.4961C257.334 21.4961 255.94 22.8897 255.94 24.6089Z" fill="#4F4E4E"/>
<path d="M255.94 46.0525C255.94 47.7716 257.334 49.1653 259.053 49.1653C260.772 49.1653 262.166 47.7716 262.166 46.0525C262.166 44.3333 260.772 42.9397 259.053 42.9397C257.334 42.9397 255.94 44.3333 255.94 46.0525Z" fill="#4F4E4E"/>
<path d="M255.94 67.4961C255.94 69.2152 257.334 70.6089 259.053 70.6089C260.772 70.6089 262.166 69.2152 262.166 67.4961C262.166 65.7769 260.772 64.3833 259.053 64.3833C257.334 64.3833 255.94 65.7769 255.94 67.4961Z" fill="#4F4E4E"/>
<path d="M234.497 3.16527C234.497 4.88441 235.891 6.27805 237.61 6.27805C239.329 6.27805 240.723 4.88441 240.723 3.16527C240.723 1.44613 239.329 0.0524902 237.61 0.0524901C235.891 0.05249 234.497 1.44613 234.497 3.16527Z" fill="#4F4E4E"/>
<path d="M234.497 24.6089C234.497 26.328 235.891 27.7217 237.61 27.7217C239.329 27.7217 240.723 26.328 240.723 24.6089C240.723 22.8897 239.329 21.4961 237.61 21.4961C235.891 21.4961 234.497 22.8897 234.497 24.6089Z" fill="#4F4E4E"/>
<path d="M234.497 46.0525C234.497 47.7716 235.891 49.1653 237.61 49.1653C239.329 49.1653 240.723 47.7716 240.723 46.0525C240.723 44.3333 239.329 42.9397 237.61 42.9397C235.891 42.9397 234.497 44.3333 234.497 46.0525Z" fill="#4F4E4E"/>
<path d="M234.497 67.4961C234.497 69.2152 235.891 70.6089 237.61 70.6089C239.329 70.6089 240.723 69.2152 240.723 67.4961C240.723 65.7769 239.329 64.3833 237.61 64.3833C235.891 64.3833 234.497 65.7769 234.497 67.4961Z" fill="#4F4E4E"/>
<path d="M213.054 3.16527C213.054 4.88441 214.447 6.27805 216.167 6.27805C217.886 6.27805 219.279 4.88441 219.279 3.16527C219.279 1.44613 217.886 0.0524902 216.167 0.0524901C214.447 0.05249 213.054 1.44613 213.054 3.16527Z" fill="#4F4E4E"/>
<path d="M213.054 24.6089C213.054 26.328 214.447 27.7217 216.167 27.7217C217.886 27.7217 219.279 26.328 219.279 24.6089C219.279 22.8897 217.886 21.4961 216.167 21.4961C214.447 21.4961 213.054 22.8897 213.054 24.6089Z" fill="#4F4E4E"/>
<path d="M213.054 46.0525C213.054 47.7716 214.447 49.1653 216.167 49.1653C217.886 49.1653 219.279 47.7716 219.279 46.0525C219.279 44.3333 217.886 42.9397 216.167 42.9397C214.447 42.9397 213.054 44.3333 213.054 46.0525Z" fill="#4F4E4E"/>
<path d="M213.054 67.4961C213.054 69.2152 214.447 70.6089 216.167 70.6089C217.886 70.6089 219.279 69.2152 219.279 67.4961C219.279 65.7769 217.886 64.3833 216.167 64.3833C214.447 64.3833 213.054 65.7769 213.054 67.4961Z" fill="#4F4E4E"/>
<path d="M191.608 3.16527C191.608 4.88441 193.002 6.27805 194.721 6.27805C196.44 6.27805 197.834 4.88441 197.834 3.16527C197.834 1.44613 196.44 0.0524902 194.721 0.0524901C193.002 0.05249 191.608 1.44613 191.608 3.16527Z" fill="#4F4E4E"/>
<path d="M191.608 24.6089C191.608 26.328 193.002 27.7217 194.721 27.7217C196.44 27.7217 197.834 26.328 197.834 24.6089C197.834 22.8897 196.44 21.4961 194.721 21.4961C193.002 21.4961 191.608 22.8897 191.608 24.6089Z" fill="#4F4E4E"/>
<path d="M191.608 46.0525C191.608 47.7716 193.002 49.1653 194.721 49.1653C196.44 49.1653 197.834 47.7716 197.834 46.0525C197.834 44.3333 196.44 42.9397 194.721 42.9397C193.002 42.9397 191.608 44.3333 191.608 46.0525Z" fill="#4F4E4E"/>
<path d="M191.608 67.4961C191.608 69.2152 193.002 70.6089 194.721 70.6089C196.44 70.6089 197.834 69.2152 197.834 67.4961C197.834 65.7769 196.44 64.3833 194.721 64.3833C193.002 64.3833 191.608 65.7769 191.608 67.4961Z" fill="#4F4E4E"/>
<path d="M170.165 3.16527C170.165 4.88441 171.559 6.27805 173.278 6.27805C174.997 6.27805 176.391 4.88441 176.391 3.16527C176.391 1.44613 174.997 0.0524902 173.278 0.0524901C171.559 0.05249 170.165 1.44613 170.165 3.16527Z" fill="#4F4E4E"/>
<path d="M170.165 24.6089C170.165 26.328 171.559 27.7217 173.278 27.7217C174.997 27.7217 176.391 26.328 176.391 24.6089C176.391 22.8897 174.997 21.4961 173.278 21.4961C171.559 21.4961 170.165 22.8897 170.165 24.6089Z" fill="#4F4E4E"/>
<path d="M170.165 46.0525C170.165 47.7716 171.559 49.1653 173.278 49.1653C174.997 49.1653 176.391 47.7716 176.391 46.0525C176.391 44.3333 174.997 42.9397 173.278 42.9397C171.559 42.9397 170.165 44.3333 170.165 46.0525Z" fill="#4F4E4E"/>
<path d="M170.165 67.4961C170.165 69.2152 171.559 70.6089 173.278 70.6089C174.997 70.6089 176.391 69.2152 176.391 67.4961C176.391 65.7769 174.997 64.3833 173.278 64.3833C171.559 64.3833 170.165 65.7769 170.165 67.4961Z" fill="#4F4E4E"/>
<path d="M148.722 3.16527C148.722 4.88441 150.115 6.27805 151.834 6.27805C153.554 6.27805 154.947 4.88441 154.947 3.16527C154.947 1.44613 153.554 0.0524902 151.834 0.0524901C150.115 0.05249 148.722 1.44613 148.722 3.16527Z" fill="#4F4E4E"/>
<path d="M148.722 24.6089C148.722 26.328 150.115 27.7217 151.834 27.7217C153.554 27.7217 154.947 26.328 154.947 24.6089C154.947 22.8897 153.554 21.4961 151.834 21.4961C150.115 21.4961 148.722 22.8897 148.722 24.6089Z" fill="#4F4E4E"/>
<path d="M148.722 46.0525C148.722 47.7716 150.115 49.1653 151.834 49.1653C153.554 49.1653 154.947 47.7716 154.947 46.0525C154.947 44.3333 153.554 42.9397 151.834 42.9397C150.115 42.9397 148.722 44.3333 148.722 46.0525Z" fill="#4F4E4E"/>
<path d="M148.722 67.4961C148.722 69.2152 150.115 70.6089 151.834 70.6089C153.554 70.6089 154.947 69.2152 154.947 67.4961C154.947 65.7769 153.554 64.3833 151.834 64.3833C150.115 64.3833 148.722 65.7769 148.722 67.4961Z" fill="#4F4E4E"/>
<path d="M127.278 3.16527C127.278 4.88441 128.672 6.27805 130.391 6.27805C132.11 6.27805 133.504 4.88441 133.504 3.16527C133.504 1.44613 132.11 0.0524902 130.391 0.0524901C128.672 0.05249 127.278 1.44613 127.278 3.16527Z" fill="#4F4E4E"/>
<path d="M127.278 24.6089C127.278 26.328 128.672 27.7217 130.391 27.7217C132.11 27.7217 133.504 26.328 133.504 24.6089C133.504 22.8897 132.11 21.4961 130.391 21.4961C128.672 21.4961 127.278 22.8897 127.278 24.6089Z" fill="#4F4E4E"/>
<path d="M127.278 46.0525C127.278 47.7716 128.672 49.1653 130.391 49.1653C132.11 49.1653 133.504 47.7716 133.504 46.0525C133.504 44.3333 132.11 42.9397 130.391 42.9397C128.672 42.9397 127.278 44.3333 127.278 46.0525Z" fill="#4F4E4E"/>
<path d="M127.278 67.4961C127.278 69.2152 128.672 70.6089 130.391 70.6089C132.11 70.6089 133.504 69.2152 133.504 67.4961C133.504 65.7769 132.11 64.3833 130.391 64.3833C128.672 64.3833 127.278 65.7769 127.278 67.4961Z" fill="#4F4E4E"/>
<path d="M105.835 3.16527C105.835 4.88441 107.229 6.27805 108.948 6.27805C110.667 6.27805 112.061 4.88441 112.061 3.16527C112.061 1.44613 110.667 0.0524902 108.948 0.0524901C107.229 0.05249 105.835 1.44613 105.835 3.16527Z" fill="#4F4E4E"/>
<path d="M105.835 24.6089C105.835 26.328 107.229 27.7217 108.948 27.7217C110.667 27.7217 112.061 26.328 112.061 24.6089C112.061 22.8897 110.667 21.4961 108.948 21.4961C107.229 21.4961 105.835 22.8897 105.835 24.6089Z" fill="#4F4E4E"/>
<path d="M105.835 46.0525C105.835 47.7716 107.229 49.1653 108.948 49.1653C110.667 49.1653 112.061 47.7716 112.061 46.0525C112.061 44.3333 110.667 42.9397 108.948 42.9397C107.229 42.9397 105.835 44.3333 105.835 46.0525Z" fill="#4F4E4E"/>
<path d="M105.835 67.4961C105.835 69.2152 107.229 70.6089 108.948 70.6089C110.667 70.6089 112.061 69.2152 112.061 67.4961C112.061 65.7769 110.667 64.3833 108.948 64.3833C107.229 64.3833 105.835 65.7769 105.835 67.4961Z" fill="#4F4E4E"/>
<path d="M84.3916 3.16527C84.3916 4.88441 85.7853 6.27805 87.5044 6.27805C89.2235 6.27805 90.6172 4.88441 90.6172 3.16527C90.6172 1.44613 89.2235 0.0524902 87.5044 0.0524901C85.7853 0.05249 84.3916 1.44613 84.3916 3.16527Z" fill="#4F4E4E"/>
<path d="M84.3916 24.6089C84.3916 26.328 85.7853 27.7217 87.5044 27.7217C89.2235 27.7217 90.6172 26.328 90.6172 24.6089C90.6172 22.8897 89.2235 21.4961 87.5044 21.4961C85.7853 21.4961 84.3916 22.8897 84.3916 24.6089Z" fill="#4F4E4E"/>
<path d="M84.3916 46.0525C84.3916 47.7716 85.7853 49.1653 87.5044 49.1653C89.2235 49.1653 90.6172 47.7716 90.6172 46.0525C90.6172 44.3333 89.2235 42.9397 87.5044 42.9397C85.7853 42.9397 84.3916 44.3333 84.3916 46.0525Z" fill="#4F4E4E"/>
<path d="M84.3916 67.4961C84.3916 69.2152 85.7853 70.6089 87.5044 70.6089C89.2235 70.6089 90.6172 69.2152 90.6172 67.4961C90.6172 65.7769 89.2235 64.3833 87.5044 64.3833C85.7853 64.3833 84.3916 65.7769 84.3916 67.4961Z" fill="#4F4E4E"/>
<path d="M62.3838 3.16527C62.3838 4.88441 63.7775 6.27805 65.4966 6.27805C67.2157 6.27805 68.6094 4.88441 68.6094 3.16527C68.6094 1.44613 67.2157 0.0524902 65.4966 0.0524901C63.7775 0.05249 62.3838 1.44613 62.3838 3.16527Z" fill="#4F4E4E"/>
<path d="M62.3838 24.6089C62.3838 26.328 63.7775 27.7217 65.4966 27.7217C67.2157 27.7217 68.6094 26.328 68.6094 24.6089C68.6094 22.8897 67.2157 21.4961 65.4966 21.4961C63.7775 21.4961 62.3838 22.8897 62.3838 24.6089Z" fill="#4F4E4E"/>
<path d="M62.3838 46.0525C62.3838 47.7716 63.7775 49.1653 65.4966 49.1653C67.2157 49.1653 68.6094 47.7716 68.6094 46.0525C68.6094 44.3333 67.2157 42.9397 65.4966 42.9397C63.7775 42.9397 62.3838 44.3333 62.3838 46.0525Z" fill="#4F4E4E"/>
<path d="M62.3838 67.4961C62.3838 69.2152 63.7775 70.6089 65.4966 70.6089C67.2157 70.6089 68.6094 69.2152 68.6094 67.4961C68.6094 65.7769 67.2157 64.3833 65.4966 64.3833C63.7775 64.3833 62.3838 65.7769 62.3838 67.4961Z" fill="#4F4E4E"/>
<path d="M40.9405 3.16527C40.9405 4.88441 42.3341 6.27805 44.0532 6.27805C45.7724 6.27805 47.166 4.88441 47.166 3.16527C47.166 1.44613 45.7724 0.0524902 44.0532 0.0524901C42.3341 0.05249 40.9405 1.44613 40.9405 3.16527Z" fill="#4F4E4E"/>
<path d="M40.9405 24.6089C40.9405 26.328 42.3341 27.7217 44.0532 27.7217C45.7724 27.7217 47.166 26.328 47.166 24.6089C47.166 22.8897 45.7724 21.4961 44.0532 21.4961C42.3341 21.4961 40.9405 22.8897 40.9405 24.6089Z" fill="#4F4E4E"/>
<path d="M40.9405 46.0525C40.9405 47.7716 42.3341 49.1653 44.0532 49.1653C45.7724 49.1653 47.166 47.7716 47.166 46.0525C47.166 44.3333 45.7724 42.9397 44.0532 42.9397C42.3341 42.9397 40.9405 44.3333 40.9405 46.0525Z" fill="#4F4E4E"/>
<path d="M40.9405 67.4961C40.9405 69.2152 42.3341 70.6089 44.0532 70.6089C45.7724 70.6089 47.166 69.2152 47.166 67.4961C47.166 65.7769 45.7724 64.3833 44.0532 64.3833C42.3341 64.3833 40.9405 65.7769 40.9405 67.4961Z" fill="#4F4E4E"/>
<path d="M19.4971 3.16527C19.4971 4.88441 20.8907 6.27805 22.6099 6.27805C24.329 6.27805 25.7227 4.88441 25.7227 3.16527C25.7227 1.44613 24.329 0.0524902 22.6099 0.0524901C20.8907 0.05249 19.4971 1.44613 19.4971 3.16527Z" fill="#4F4E4E"/>
<path d="M19.4971 24.6089C19.4971 26.328 20.8907 27.7217 22.6099 27.7217C24.329 27.7217 25.7227 26.328 25.7227 24.6089C25.7227 22.8897 24.329 21.4961 22.6099 21.4961C20.8907 21.4961 19.4971 22.8897 19.4971 24.6089Z" fill="#4F4E4E"/>
<path d="M19.4971 46.0525C19.4971 47.7716 20.8907 49.1653 22.6099 49.1653C24.329 49.1653 25.7227 47.7716 25.7227 46.0525C25.7227 44.3333 24.329 42.9397 22.6099 42.9397C20.8907 42.9397 19.4971 44.3333 19.4971 46.0525Z" fill="#4F4E4E"/>
<path d="M19.4971 67.4961C19.4971 69.2152 20.8907 70.6089 22.6099 70.6089C24.329 70.6089 25.7227 69.2152 25.7227 67.4961C25.7227 65.7769 24.329 64.3833 22.6099 64.3833C20.8907 64.3833 19.4971 65.7769 19.4971 67.4961Z" fill="#4F4E4E"/>
<path d="M-1.94627 3.16527C-1.94627 4.88441 -0.552627 6.27805 1.16651 6.27805C2.88566 6.27805 4.2793 4.88441 4.2793 3.16527C4.2793 1.44613 2.88566 0.0524902 1.16651 0.0524901C-0.552627 0.05249 -1.94627 1.44613 -1.94627 3.16527Z" fill="#4F4E4E"/>
<path d="M-1.94627 24.6089C-1.94627 26.328 -0.552627 27.7217 1.16651 27.7217C2.88566 27.7217 4.2793 26.328 4.2793 24.6089C4.2793 22.8897 2.88566 21.4961 1.16651 21.4961C-0.552627 21.4961 -1.94627 22.8897 -1.94627 24.6089Z" fill="#4F4E4E"/>
<path d="M-1.94627 46.0525C-1.94627 47.7716 -0.552627 49.1653 1.16651 49.1653C2.88566 49.1653 4.2793 47.7716 4.2793 46.0525C4.2793 44.3333 2.88566 42.9397 1.16651 42.9397C-0.552627 42.9397 -1.94627 44.3333 -1.94627 46.0525Z" fill="#4F4E4E"/>
<path d="M-1.94627 67.4961C-1.94627 69.2152 -0.552627 70.6089 1.16651 70.6089C2.88566 70.6089 4.2793 69.2152 4.2793 67.4961C4.2793 65.7769 2.88566 64.3833 1.16651 64.3833C-0.552627 64.3833 -1.94627 65.7769 -1.94627 67.4961Z" fill="#4F4E4E"/>
</svg>
