<svg width="715" height="71" viewBox="0 0 715 71" fill="none" xmlns="http://www.w3.org/2000/svg">
<path d="M709.722 3.16527C709.722 4.88441 711.115 6.27805 712.834 6.27805C714.554 6.27805 715.947 4.88441 715.947 3.16527C715.947 1.44613 714.554 0.0524902 712.834 0.0524901C711.115 0.05249 709.722 1.44613 709.722 3.16527Z" fill="#4F4E4E"/>
<path d="M709.722 24.6089C709.722 26.328 711.115 27.7217 712.834 27.7217C714.554 27.7217 715.947 26.328 715.947 24.6089C715.947 22.8897 714.554 21.4961 712.834 21.4961C711.115 21.4961 709.722 22.8897 709.722 24.6089Z" fill="#4F4E4E"/>
<path d="M709.722 46.0525C709.722 47.7716 711.115 49.1653 712.834 49.1653C714.554 49.1653 715.947 47.7716 715.947 46.0525C715.947 44.3333 714.554 42.9397 712.834 42.9397C711.115 42.9397 709.722 44.3333 709.722 46.0525Z" fill="#4F4E4E"/>
<path d="M709.722 67.4961C709.722 69.2152 711.115 70.6089 712.834 70.6089C714.554 70.6089 715.947 69.2152 715.947 67.4961C715.947 65.7769 714.554 64.3833 712.834 64.3833C711.115 64.3833 709.722 65.7769 709.722 67.4961Z" fill="#4F4E4E"/>
<path d="M688.278 3.16527C688.278 4.88441 689.672 6.27805 691.391 6.27805C693.11 6.27805 694.504 4.88441 694.504 3.16527C694.504 1.44613 693.11 0.0524902 691.391 0.0524901C689.672 0.05249 688.278 1.44613 688.278 3.16527Z" fill="#4F4E4E"/>
<path d="M688.278 24.6089C688.278 26.328 689.672 27.7217 691.391 27.7217C693.11 27.7217 694.504 26.328 694.504 24.6089C694.504 22.8897 693.11 21.4961 691.391 21.4961C689.672 21.4961 688.278 22.8897 688.278 24.6089Z" fill="#4F4E4E"/>
<path d="M688.278 46.0525C688.278 47.7716 689.672 49.1653 691.391 49.1653C693.11 49.1653 694.504 47.7716 694.504 46.0525C694.504 44.3333 693.11 42.9397 691.391 42.9397C689.672 42.9397 688.278 44.3333 688.278 46.0525Z" fill="#4F4E4E"/>
<path d="M688.278 67.4961C688.278 69.2152 689.672 70.6089 691.391 70.6089C693.11 70.6089 694.504 69.2152 694.504 67.4961C694.504 65.7769 693.11 64.3833 691.391 64.3833C689.672 64.3833 688.278 65.7769 688.278 67.4961Z" fill="#4F4E4E"/>
<path d="M666.835 3.16527C666.835 4.88441 668.229 6.27805 669.948 6.27805C671.667 6.27805 673.061 4.88441 673.061 3.16527C673.061 1.44613 671.667 0.0524902 669.948 0.0524901C668.229 0.05249 666.835 1.44613 666.835 3.16527Z" fill="#4F4E4E"/>
<path d="M666.835 24.6089C666.835 26.328 668.229 27.7217 669.948 27.7217C671.667 27.7217 673.061 26.328 673.061 24.6089C673.061 22.8897 671.667 21.4961 669.948 21.4961C668.229 21.4961 666.835 22.8897 666.835 24.6089Z" fill="#4F4E4E"/>
<path d="M666.835 46.0525C666.835 47.7716 668.229 49.1653 669.948 49.1653C671.667 49.1653 673.061 47.7716 673.061 46.0525C673.061 44.3333 671.667 42.9397 669.948 42.9397C668.229 42.9397 666.835 44.3333 666.835 46.0525Z" fill="#4F4E4E"/>
<path d="M666.835 67.4961C666.835 69.2152 668.229 70.6089 669.948 70.6089C671.667 70.6089 673.061 69.2152 673.061 67.4961C673.061 65.7769 671.667 64.3833 669.948 64.3833C668.229 64.3833 666.835 65.7769 666.835 67.4961Z" fill="#4F4E4E"/>
<path d="M645.392 3.16527C645.392 4.88441 646.785 6.27805 648.504 6.27805C650.224 6.27805 651.617 4.88441 651.617 3.16527C651.617 1.44613 650.224 0.0524902 648.504 0.0524901C646.785 0.05249 645.392 1.44613 645.392 3.16527Z" fill="#4F4E4E"/>
<path d="M645.392 24.6089C645.392 26.328 646.785 27.7217 648.504 27.7217C650.224 27.7217 651.617 26.328 651.617 24.6089C651.617 22.8897 650.224 21.4961 648.504 21.4961C646.785 21.4961 645.392 22.8897 645.392 24.6089Z" fill="#4F4E4E"/>
<path d="M645.392 46.0525C645.392 47.7716 646.785 49.1653 648.504 49.1653C650.224 49.1653 651.617 47.7716 651.617 46.0525C651.617 44.3333 650.224 42.9397 648.504 42.9397C646.785 42.9397 645.392 44.3333 645.392 46.0525Z" fill="#4F4E4E"/>
<path d="M645.392 67.4961C645.392 69.2152 646.785 70.6089 648.504 70.6089C650.224 70.6089 651.617 69.2152 651.617 67.4961C651.617 65.7769 650.224 64.3833 648.504 64.3833C646.785 64.3833 645.392 65.7769 645.392 67.4961Z" fill="#4F4E4E"/>
<path d="M623.384 3.16527C623.384 4.88441 624.777 6.27805 626.497 6.27805C628.216 6.27805 629.609 4.88441 629.609 3.16527C629.609 1.44613 628.216 0.0524902 626.497 0.0524901C624.777 0.05249 623.384 1.44613 623.384 3.16527Z" fill="#4F4E4E"/>
<path d="M623.384 24.6089C623.384 26.328 624.777 27.7217 626.497 27.7217C628.216 27.7217 629.609 26.328 629.609 24.6089C629.609 22.8897 628.216 21.4961 626.497 21.4961C624.777 21.4961 623.384 22.8897 623.384 24.6089Z" fill="#4F4E4E"/>
<path d="M623.384 46.0525C623.384 47.7716 624.777 49.1653 626.497 49.1653C628.216 49.1653 629.609 47.7716 629.609 46.0525C629.609 44.3333 628.216 42.9397 626.497 42.9397C624.777 42.9397 623.384 44.3333 623.384 46.0525Z" fill="#4F4E4E"/>
<path d="M623.384 67.4961C623.384 69.2152 624.777 70.6089 626.497 70.6089C628.216 70.6089 629.609 69.2152 629.609 67.4961C629.609 65.7769 628.216 64.3833 626.497 64.3833C624.777 64.3833 623.384 65.7769 623.384 67.4961Z" fill="#4F4E4E"/>
<path d="M601.94 3.16527C601.94 4.88441 603.334 6.27805 605.053 6.27805C606.772 6.27805 608.166 4.88441 608.166 3.16527C608.166 1.44613 606.772 0.0524902 605.053 0.0524901C603.334 0.05249 601.94 1.44613 601.94 3.16527Z" fill="#4F4E4E"/>
<path d="M601.94 24.6089C601.94 26.328 603.334 27.7217 605.053 27.7217C606.772 27.7217 608.166 26.328 608.166 24.6089C608.166 22.8897 606.772 21.4961 605.053 21.4961C603.334 21.4961 601.94 22.8897 601.94 24.6089Z" fill="#4F4E4E"/>
<path d="M601.94 46.0525C601.94 47.7716 603.334 49.1653 605.053 49.1653C606.772 49.1653 608.166 47.7716 608.166 46.0525C608.166 44.3333 606.772 42.9397 605.053 42.9397C603.334 42.9397 601.94 44.3333 601.94 46.0525Z" fill="#4F4E4E"/>
<path d="M601.94 67.4961C601.94 69.2152 603.334 70.6089 605.053 70.6089C606.772 70.6089 608.166 69.2152 608.166 67.4961C608.166 65.7769 606.772 64.3833 605.053 64.3833C603.334 64.3833 601.94 65.7769 601.94 67.4961Z" fill="#4F4E4E"/>
<path d="M580.497 3.16527C580.497 4.88441 581.891 6.27805 583.61 6.27805C585.329 6.27805 586.723 4.88441 586.723 3.16527C586.723 1.44613 585.329 0.0524902 583.61 0.0524901C581.891 0.05249 580.497 1.44613 580.497 3.16527Z" fill="#4F4E4E"/>
<path d="M580.497 24.6089C580.497 26.328 581.891 27.7217 583.61 27.7217C585.329 27.7217 586.723 26.328 586.723 24.6089C586.723 22.8897 585.329 21.4961 583.61 21.4961C581.891 21.4961 580.497 22.8897 580.497 24.6089Z" fill="#4F4E4E"/>
<path d="M580.497 46.0525C580.497 47.7716 581.891 49.1653 583.61 49.1653C585.329 49.1653 586.723 47.7716 586.723 46.0525C586.723 44.3333 585.329 42.9397 583.61 42.9397C581.891 42.9397 580.497 44.3333 580.497 46.0525Z" fill="#4F4E4E"/>
<path d="M580.497 67.4961C580.497 69.2152 581.891 70.6089 583.61 70.6089C585.329 70.6089 586.723 69.2152 586.723 67.4961C586.723 65.7769 585.329 64.3833 583.61 64.3833C581.891 64.3833 580.497 65.7769 580.497 67.4961Z" fill="#4F4E4E"/>
<path d="M559.054 3.16527C559.054 4.88441 560.447 6.27805 562.167 6.27805C563.886 6.27805 565.279 4.88441 565.279 3.16527C565.279 1.44613 563.886 0.0524902 562.167 0.0524901C560.447 0.05249 559.054 1.44613 559.054 3.16527Z" fill="#4F4E4E"/>
<path d="M559.054 24.6089C559.054 26.328 560.447 27.7217 562.167 27.7217C563.886 27.7217 565.279 26.328 565.279 24.6089C565.279 22.8897 563.886 21.4961 562.167 21.4961C560.447 21.4961 559.054 22.8897 559.054 24.6089Z" fill="#4F4E4E"/>
<path d="M559.054 46.0525C559.054 47.7716 560.447 49.1653 562.167 49.1653C563.886 49.1653 565.279 47.7716 565.279 46.0525C565.279 44.3333 563.886 42.9397 562.167 42.9397C560.447 42.9397 559.054 44.3333 559.054 46.0525Z" fill="#4F4E4E"/>
<path d="M559.054 67.4961C559.054 69.2152 560.447 70.6089 562.167 70.6089C563.886 70.6089 565.279 69.2152 565.279 67.4961C565.279 65.7769 563.886 64.3833 562.167 64.3833C560.447 64.3833 559.054 65.7769 559.054 67.4961Z" fill="#4F4E4E"/>
<path d="M537.608 3.16527C537.608 4.88441 539.002 6.27805 540.721 6.27805C542.44 6.27805 543.834 4.88441 543.834 3.16527C543.834 1.44613 542.44 0.0524902 540.721 0.0524901C539.002 0.05249 537.608 1.44613 537.608 3.16527Z" fill="#4F4E4E"/>
<path d="M537.608 24.6089C537.608 26.328 539.002 27.7217 540.721 27.7217C542.44 27.7217 543.834 26.328 543.834 24.6089C543.834 22.8897 542.44 21.4961 540.721 21.4961C539.002 21.4961 537.608 22.8897 537.608 24.6089Z" fill="#4F4E4E"/>
<path d="M537.608 46.0525C537.608 47.7716 539.002 49.1653 540.721 49.1653C542.44 49.1653 543.834 47.7716 543.834 46.0525C543.834 44.3333 542.44 42.9397 540.721 42.9397C539.002 42.9397 537.608 44.3333 537.608 46.0525Z" fill="#4F4E4E"/>
<path d="M537.608 67.4961C537.608 69.2152 539.002 70.6089 540.721 70.6089C542.44 70.6089 543.834 69.2152 543.834 67.4961C543.834 65.7769 542.44 64.3833 540.721 64.3833C539.002 64.3833 537.608 65.7769 537.608 67.4961Z" fill="#4F4E4E"/>
<path d="M516.165 3.16527C516.165 4.88441 517.559 6.27805 519.278 6.27805C520.997 6.27805 522.391 4.88441 522.391 3.16527C522.391 1.44613 520.997 0.0524902 519.278 0.0524901C517.559 0.05249 516.165 1.44613 516.165 3.16527Z" fill="#4F4E4E"/>
<path d="M516.165 24.6089C516.165 26.328 517.559 27.7217 519.278 27.7217C520.997 27.7217 522.391 26.328 522.391 24.6089C522.391 22.8897 520.997 21.4961 519.278 21.4961C517.559 21.4961 516.165 22.8897 516.165 24.6089Z" fill="#4F4E4E"/>
<path d="M516.165 46.0525C516.165 47.7716 517.559 49.1653 519.278 49.1653C520.997 49.1653 522.391 47.7716 522.391 46.0525C522.391 44.3333 520.997 42.9397 519.278 42.9397C517.559 42.9397 516.165 44.3333 516.165 46.0525Z" fill="#4F4E4E"/>
<path d="M516.165 67.4961C516.165 69.2152 517.559 70.6089 519.278 70.6089C520.997 70.6089 522.391 69.2152 522.391 67.4961C522.391 65.7769 520.997 64.3833 519.278 64.3833C517.559 64.3833 516.165 65.7769 516.165 67.4961Z" fill="#4F4E4E"/>
<path d="M494.722 3.16527C494.722 4.88441 496.115 6.27805 497.834 6.27805C499.554 6.27805 500.947 4.88441 500.947 3.16527C500.947 1.44613 499.554 0.0524902 497.834 0.0524901C496.115 0.05249 494.722 1.44613 494.722 3.16527Z" fill="#4F4E4E"/>
<path d="M494.722 24.6089C494.722 26.328 496.115 27.7217 497.834 27.7217C499.554 27.7217 500.947 26.328 500.947 24.6089C500.947 22.8897 499.554 21.4961 497.834 21.4961C496.115 21.4961 494.722 22.8897 494.722 24.6089Z" fill="#4F4E4E"/>
<path d="M494.722 46.0525C494.722 47.7716 496.115 49.1653 497.834 49.1653C499.554 49.1653 500.947 47.7716 500.947 46.0525C500.947 44.3333 499.554 42.9397 497.834 42.9397C496.115 42.9397 494.722 44.3333 494.722 46.0525Z" fill="#4F4E4E"/>
<path d="M494.722 67.4961C494.722 69.2152 496.115 70.6089 497.834 70.6089C499.554 70.6089 500.947 69.2152 500.947 67.4961C500.947 65.7769 499.554 64.3833 497.834 64.3833C496.115 64.3833 494.722 65.7769 494.722 67.4961Z" fill="#4F4E4E"/>
<path d="M473.278 3.16527C473.278 4.88441 474.672 6.27805 476.391 6.27805C478.11 6.27805 479.504 4.88441 479.504 3.16527C479.504 1.44613 478.11 0.0524902 476.391 0.0524901C474.672 0.05249 473.278 1.44613 473.278 3.16527Z" fill="#4F4E4E"/>
<path d="M473.278 24.6089C473.278 26.328 474.672 27.7217 476.391 27.7217C478.11 27.7217 479.504 26.328 479.504 24.6089C479.504 22.8897 478.11 21.4961 476.391 21.4961C474.672 21.4961 473.278 22.8897 473.278 24.6089Z" fill="#4F4E4E"/>
<path d="M473.278 46.0525C473.278 47.7716 474.672 49.1653 476.391 49.1653C478.11 49.1653 479.504 47.7716 479.504 46.0525C479.504 44.3333 478.11 42.9397 476.391 42.9397C474.672 42.9397 473.278 44.3333 473.278 46.0525Z" fill="#4F4E4E"/>
<path d="M473.278 67.4961C473.278 69.2152 474.672 70.6089 476.391 70.6089C478.11 70.6089 479.504 69.2152 479.504 67.4961C479.504 65.7769 478.11 64.3833 476.391 64.3833C474.672 64.3833 473.278 65.7769 473.278 67.4961Z" fill="#4F4E4E"/>
<path d="M451.835 3.16527C451.835 4.88441 453.229 6.27805 454.948 6.27805C456.667 6.27805 458.061 4.88441 458.061 3.16527C458.061 1.44613 456.667 0.0524902 454.948 0.0524901C453.229 0.05249 451.835 1.44613 451.835 3.16527Z" fill="#4F4E4E"/>
<path d="M451.835 24.6089C451.835 26.328 453.229 27.7217 454.948 27.7217C456.667 27.7217 458.061 26.328 458.061 24.6089C458.061 22.8897 456.667 21.4961 454.948 21.4961C453.229 21.4961 451.835 22.8897 451.835 24.6089Z" fill="#4F4E4E"/>
<path d="M451.835 46.0525C451.835 47.7716 453.229 49.1653 454.948 49.1653C456.667 49.1653 458.061 47.7716 458.061 46.0525C458.061 44.3333 456.667 42.9397 454.948 42.9397C453.229 42.9397 451.835 44.3333 451.835 46.0525Z" fill="#4F4E4E"/>
<path d="M451.835 67.4961C451.835 69.2152 453.229 70.6089 454.948 70.6089C456.667 70.6089 458.061 69.2152 458.061 67.4961C458.061 65.7769 456.667 64.3833 454.948 64.3833C453.229 64.3833 451.835 65.7769 451.835 67.4961Z" fill="#4F4E4E"/>
<path d="M430.392 3.16527C430.392 4.88441 431.785 6.27805 433.504 6.27805C435.224 6.27805 436.617 4.88441 436.617 3.16527C436.617 1.44613 435.224 0.0524902 433.504 0.0524901C431.785 0.05249 430.392 1.44613 430.392 3.16527Z" fill="#4F4E4E"/>
<path d="M430.392 24.6089C430.392 26.328 431.785 27.7217 433.504 27.7217C435.224 27.7217 436.617 26.328 436.617 24.6089C436.617 22.8897 435.224 21.4961 433.504 21.4961C431.785 21.4961 430.392 22.8897 430.392 24.6089Z" fill="#4F4E4E"/>
<path d="M430.392 46.0525C430.392 47.7716 431.785 49.1653 433.504 49.1653C435.224 49.1653 436.617 47.7716 436.617 46.0525C436.617 44.3333 435.224 42.9397 433.504 42.9397C431.785 42.9397 430.392 44.3333 430.392 46.0525Z" fill="#4F4E4E"/>
<path d="M430.392 67.4961C430.392 69.2152 431.785 70.6089 433.504 70.6089C435.224 70.6089 436.617 69.2152 436.617 67.4961C436.617 65.7769 435.224 64.3833 433.504 64.3833C431.785 64.3833 430.392 65.7769 430.392 67.4961Z" fill="#4F4E4E"/>
<path d="M408.384 3.16527C408.384 4.88441 409.777 6.27805 411.497 6.27805C413.216 6.27805 414.609 4.88441 414.609 3.16527C414.609 1.44613 413.216 0.0524902 411.497 0.0524901C409.777 0.05249 408.384 1.44613 408.384 3.16527Z" fill="#4F4E4E"/>
<path d="M408.384 24.6089C408.384 26.328 409.777 27.7217 411.497 27.7217C413.216 27.7217 414.609 26.328 414.609 24.6089C414.609 22.8897 413.216 21.4961 411.497 21.4961C409.777 21.4961 408.384 22.8897 408.384 24.6089Z" fill="#4F4E4E"/>
<path d="M408.384 46.0525C408.384 47.7716 409.777 49.1653 411.497 49.1653C413.216 49.1653 414.609 47.7716 414.609 46.0525C414.609 44.3333 413.216 42.9397 411.497 42.9397C409.777 42.9397 408.384 44.3333 408.384 46.0525Z" fill="#4F4E4E"/>
<path d="M408.384 67.4961C408.384 69.2152 409.777 70.6089 411.497 70.6089C413.216 70.6089 414.609 69.2152 414.609 67.4961C414.609 65.7769 413.216 64.3833 411.497 64.3833C409.777 64.3833 408.384 65.7769 408.384 67.4961Z" fill="#4F4E4E"/>
<path d="M386.94 3.16527C386.94 4.88441 388.334 6.27805 390.053 6.27805C391.772 6.27805 393.166 4.88441 393.166 3.16527C393.166 1.44613 391.772 0.0524902 390.053 0.0524901C388.334 0.05249 386.94 1.44613 386.94 3.16527Z" fill="#4F4E4E"/>
<path d="M386.94 24.6089C386.94 26.328 388.334 27.7217 390.053 27.7217C391.772 27.7217 393.166 26.328 393.166 24.6089C393.166 22.8897 391.772 21.4961 390.053 21.4961C388.334 21.4961 386.94 22.8897 386.94 24.6089Z" fill="#4F4E4E"/>
<path d="M386.94 46.0525C386.94 47.7716 388.334 49.1653 390.053 49.1653C391.772 49.1653 393.166 47.7716 393.166 46.0525C393.166 44.3333 391.772 42.9397 390.053 42.9397C388.334 42.9397 386.94 44.3333 386.94 46.0525Z" fill="#4F4E4E"/>
<path d="M386.94 67.4961C386.94 69.2152 388.334 70.6089 390.053 70.6089C391.772 70.6089 393.166 69.2152 393.166 67.4961C393.166 65.7769 391.772 64.3833 390.053 64.3833C388.334 64.3833 386.94 65.7769 386.94 67.4961Z" fill="#4F4E4E"/>
<path d="M365.497 3.16527C365.497 4.88441 366.891 6.27805 368.61 6.27805C370.329 6.27805 371.723 4.88441 371.723 3.16527C371.723 1.44613 370.329 0.0524902 368.61 0.0524901C366.891 0.05249 365.497 1.44613 365.497 3.16527Z" fill="#4F4E4E"/>
<path d="M365.497 24.6089C365.497 26.328 366.891 27.7217 368.61 27.7217C370.329 27.7217 371.723 26.328 371.723 24.6089C371.723 22.8897 370.329 21.4961 368.61 21.4961C366.891 21.4961 365.497 22.8897 365.497 24.6089Z" fill="#4F4E4E"/>
<path d="M365.497 46.0525C365.497 47.7716 366.891 49.1653 368.61 49.1653C370.329 49.1653 371.723 47.7716 371.723 46.0525C371.723 44.3333 370.329 42.9397 368.61 42.9397C366.891 42.9397 365.497 44.3333 365.497 46.0525Z" fill="#4F4E4E"/>
<path d="M365.497 67.4961C365.497 69.2152 366.891 70.6089 368.61 70.6089C370.329 70.6089 371.723 69.2152 371.723 67.4961C371.723 65.7769 370.329 64.3833 368.61 64.3833C366.891 64.3833 365.497 65.7769 365.497 67.4961Z" fill="#4F4E4E"/>
<path d="M344.054 3.16527C344.054 4.88441 345.447 6.27805 347.167 6.27805C348.886 6.27805 350.279 4.88441 350.279 3.16527C350.279 1.44613 348.886 0.0524902 347.167 0.0524901C345.447 0.05249 344.054 1.44613 344.054 3.16527Z" fill="#4F4E4E"/>
<path d="M344.054 24.6089C344.054 26.328 345.447 27.7217 347.167 27.7217C348.886 27.7217 350.279 26.328 350.279 24.6089C350.279 22.8897 348.886 21.4961 347.167 21.4961C345.447 21.4961 344.054 22.8897 344.054 24.6089Z" fill="#4F4E4E"/>
<path d="M344.054 46.0525C344.054 47.7716 345.447 49.1653 347.167 49.1653C348.886 49.1653 350.279 47.7716 350.279 46.0525C350.279 44.3333 348.886 42.9397 347.167 42.9397C345.447 42.9397 344.054 44.3333 344.054 46.0525Z" fill="#4F4E4E"/>
<path d="M344.054 67.4961C344.054 69.2152 345.447 70.6089 347.167 70.6089C348.886 70.6089 350.279 69.2152 350.279 67.4961C350.279 65.7769 348.886 64.3833 347.167 64.3833C345.447 64.3833 344.054 65.7769 344.054 67.4961Z" fill="#4F4E4E"/>
<path d="M322.608 3.16527C322.608 4.88441 324.002 6.27805 325.721 6.27805C327.44 6.27805 328.834 4.88441 328.834 3.16527C328.834 1.44613 327.44 0.0524902 325.721 0.0524901C324.002 0.05249 322.608 1.44613 322.608 3.16527Z" fill="#4F4E4E"/>
<path d="M322.608 24.6089C322.608 26.328 324.002 27.7217 325.721 27.7217C327.44 27.7217 328.834 26.328 328.834 24.6089C328.834 22.8897 327.44 21.4961 325.721 21.4961C324.002 21.4961 322.608 22.8897 322.608 24.6089Z" fill="#4F4E4E"/>
<path d="M322.608 46.0525C322.608 47.7716 324.002 49.1653 325.721 49.1653C327.44 49.1653 328.834 47.7716 328.834 46.0525C328.834 44.3333 327.44 42.9397 325.721 42.9397C324.002 42.9397 322.608 44.3333 322.608 46.0525Z" fill="#4F4E4E"/>
<path d="M322.608 67.4961C322.608 69.2152 324.002 70.6089 325.721 70.6089C327.44 70.6089 328.834 69.2152 328.834 67.4961C328.834 65.7769 327.44 64.3833 325.721 64.3833C324.002 64.3833 322.608 65.7769 322.608 67.4961Z" fill="#4F4E4E"/>
<path d="M301.165 3.16527C301.165 4.88441 302.559 6.27805 304.278 6.27805C305.997 6.27805 307.391 4.88441 307.391 3.16527C307.391 1.44613 305.997 0.0524902 304.278 0.0524901C302.559 0.05249 301.165 1.44613 301.165 3.16527Z" fill="#4F4E4E"/>
<path d="M301.165 24.6089C301.165 26.328 302.559 27.7217 304.278 27.7217C305.997 27.7217 307.391 26.328 307.391 24.6089C307.391 22.8897 305.997 21.4961 304.278 21.4961C302.559 21.4961 301.165 22.8897 301.165 24.6089Z" fill="#4F4E4E"/>
<path d="M301.165 46.0525C301.165 47.7716 302.559 49.1653 304.278 49.1653C305.997 49.1653 307.391 47.7716 307.391 46.0525C307.391 44.3333 305.997 42.9397 304.278 42.9397C302.559 42.9397 301.165 44.3333 301.165 46.0525Z" fill="#4F4E4E"/>
<path d="M301.165 67.4961C301.165 69.2152 302.559 70.6089 304.278 70.6089C305.997 70.6089 307.391 69.2152 307.391 67.4961C307.391 65.7769 305.997 64.3833 304.278 64.3833C302.559 64.3833 301.165 65.7769 301.165 67.4961Z" fill="#4F4E4E"/>
<path d="M279.722 3.16527C279.722 4.88441 281.115 6.27805 282.834 6.27805C284.554 6.27805 285.947 4.88441 285.947 3.16527C285.947 1.44613 284.554 0.0524902 282.834 0.0524901C281.115 0.05249 279.722 1.44613 279.722 3.16527Z" fill="#4F4E4E"/>
<path d="M279.722 24.6089C279.722 26.328 281.115 27.7217 282.834 27.7217C284.554 27.7217 285.947 26.328 285.947 24.6089C285.947 22.8897 284.554 21.4961 282.834 21.4961C281.115 21.4961 279.722 22.8897 279.722 24.6089Z" fill="#4F4E4E"/>
<path d="M279.722 46.0525C279.722 47.7716 281.115 49.1653 282.834 49.1653C284.554 49.1653 285.947 47.7716 285.947 46.0525C285.947 44.3333 284.554 42.9397 282.834 42.9397C281.115 42.9397 279.722 44.3333 279.722 46.0525Z" fill="#4F4E4E"/>
<path d="M279.722 67.4961C279.722 69.2152 281.115 70.6089 282.834 70.6089C284.554 70.6089 285.947 69.2152 285.947 67.4961C285.947 65.7769 284.554 64.3833 282.834 64.3833C281.115 64.3833 279.722 65.7769 279.722 67.4961Z" fill="#4F4E4E"/>
<path d="M258.278 3.16527C258.278 4.88441 259.672 6.27805 261.391 6.27805C263.11 6.27805 264.504 4.88441 264.504 3.16527C264.504 1.44613 263.11 0.0524902 261.391 0.0524901C259.672 0.05249 258.278 1.44613 258.278 3.16527Z" fill="#4F4E4E"/>
<path d="M258.278 24.6089C258.278 26.328 259.672 27.7217 261.391 27.7217C263.11 27.7217 264.504 26.328 264.504 24.6089C264.504 22.8897 263.11 21.4961 261.391 21.4961C259.672 21.4961 258.278 22.8897 258.278 24.6089Z" fill="#4F4E4E"/>
<path d="M258.278 46.0525C258.278 47.7716 259.672 49.1653 261.391 49.1653C263.11 49.1653 264.504 47.7716 264.504 46.0525C264.504 44.3333 263.11 42.9397 261.391 42.9397C259.672 42.9397 258.278 44.3333 258.278 46.0525Z" fill="#4F4E4E"/>
<path d="M258.278 67.4961C258.278 69.2152 259.672 70.6089 261.391 70.6089C263.11 70.6089 264.504 69.2152 264.504 67.4961C264.504 65.7769 263.11 64.3833 261.391 64.3833C259.672 64.3833 258.278 65.7769 258.278 67.4961Z" fill="#4F4E4E"/>
<path d="M236.835 3.16527C236.835 4.88441 238.229 6.27805 239.948 6.27805C241.667 6.27805 243.061 4.88441 243.061 3.16527C243.061 1.44613 241.667 0.0524902 239.948 0.0524901C238.229 0.05249 236.835 1.44613 236.835 3.16527Z" fill="#4F4E4E"/>
<path d="M236.835 24.6089C236.835 26.328 238.229 27.7217 239.948 27.7217C241.667 27.7217 243.061 26.328 243.061 24.6089C243.061 22.8897 241.667 21.4961 239.948 21.4961C238.229 21.4961 236.835 22.8897 236.835 24.6089Z" fill="#4F4E4E"/>
<path d="M236.835 46.0525C236.835 47.7716 238.229 49.1653 239.948 49.1653C241.667 49.1653 243.061 47.7716 243.061 46.0525C243.061 44.3333 241.667 42.9397 239.948 42.9397C238.229 42.9397 236.835 44.3333 236.835 46.0525Z" fill="#4F4E4E"/>
<path d="M236.835 67.4961C236.835 69.2152 238.229 70.6089 239.948 70.6089C241.667 70.6089 243.061 69.2152 243.061 67.4961C243.061 65.7769 241.667 64.3833 239.948 64.3833C238.229 64.3833 236.835 65.7769 236.835 67.4961Z" fill="#4F4E4E"/>
<path d="M215.392 3.16527C215.392 4.88441 216.785 6.27805 218.504 6.27805C220.224 6.27805 221.617 4.88441 221.617 3.16527C221.617 1.44613 220.224 0.0524902 218.504 0.0524901C216.785 0.05249 215.392 1.44613 215.392 3.16527Z" fill="#4F4E4E"/>
<path d="M215.392 24.6089C215.392 26.328 216.785 27.7217 218.504 27.7217C220.224 27.7217 221.617 26.328 221.617 24.6089C221.617 22.8897 220.224 21.4961 218.504 21.4961C216.785 21.4961 215.392 22.8897 215.392 24.6089Z" fill="#4F4E4E"/>
<path d="M215.392 46.0525C215.392 47.7716 216.785 49.1653 218.504 49.1653C220.224 49.1653 221.617 47.7716 221.617 46.0525C221.617 44.3333 220.224 42.9397 218.504 42.9397C216.785 42.9397 215.392 44.3333 215.392 46.0525Z" fill="#4F4E4E"/>
<path d="M215.392 67.4961C215.392 69.2152 216.785 70.6089 218.504 70.6089C220.224 70.6089 221.617 69.2152 221.617 67.4961C221.617 65.7769 220.224 64.3833 218.504 64.3833C216.785 64.3833 215.392 65.7769 215.392 67.4961Z" fill="#4F4E4E"/>
<path d="M193.384 3.16527C193.384 4.88441 194.777 6.27805 196.497 6.27805C198.216 6.27805 199.609 4.88441 199.609 3.16527C199.609 1.44613 198.216 0.0524902 196.497 0.0524901C194.777 0.05249 193.384 1.44613 193.384 3.16527Z" fill="#4F4E4E"/>
<path d="M193.384 24.6089C193.384 26.328 194.777 27.7217 196.497 27.7217C198.216 27.7217 199.609 26.328 199.609 24.6089C199.609 22.8897 198.216 21.4961 196.497 21.4961C194.777 21.4961 193.384 22.8897 193.384 24.6089Z" fill="#4F4E4E"/>
<path d="M193.384 46.0525C193.384 47.7716 194.777 49.1653 196.497 49.1653C198.216 49.1653 199.609 47.7716 199.609 46.0525C199.609 44.3333 198.216 42.9397 196.497 42.9397C194.777 42.9397 193.384 44.3333 193.384 46.0525Z" fill="#4F4E4E"/>
<path d="M193.384 67.4961C193.384 69.2152 194.777 70.6089 196.497 70.6089C198.216 70.6089 199.609 69.2152 199.609 67.4961C199.609 65.7769 198.216 64.3833 196.497 64.3833C194.777 64.3833 193.384 65.7769 193.384 67.4961Z" fill="#4F4E4E"/>
<path d="M171.94 3.16527C171.94 4.88441 173.334 6.27805 175.053 6.27805C176.772 6.27805 178.166 4.88441 178.166 3.16527C178.166 1.44613 176.772 0.0524902 175.053 0.0524901C173.334 0.05249 171.94 1.44613 171.94 3.16527Z" fill="#4F4E4E"/>
<path d="M171.94 24.6089C171.94 26.328 173.334 27.7217 175.053 27.7217C176.772 27.7217 178.166 26.328 178.166 24.6089C178.166 22.8897 176.772 21.4961 175.053 21.4961C173.334 21.4961 171.94 22.8897 171.94 24.6089Z" fill="#4F4E4E"/>
<path d="M171.94 46.0525C171.94 47.7716 173.334 49.1653 175.053 49.1653C176.772 49.1653 178.166 47.7716 178.166 46.0525C178.166 44.3333 176.772 42.9397 175.053 42.9397C173.334 42.9397 171.94 44.3333 171.94 46.0525Z" fill="#4F4E4E"/>
<path d="M171.94 67.4961C171.94 69.2152 173.334 70.6089 175.053 70.6089C176.772 70.6089 178.166 69.2152 178.166 67.4961C178.166 65.7769 176.772 64.3833 175.053 64.3833C173.334 64.3833 171.94 65.7769 171.94 67.4961Z" fill="#4F4E4E"/>
<path d="M150.497 3.16527C150.497 4.88441 151.891 6.27805 153.61 6.27805C155.329 6.27805 156.723 4.88441 156.723 3.16527C156.723 1.44613 155.329 0.0524902 153.61 0.0524901C151.891 0.05249 150.497 1.44613 150.497 3.16527Z" fill="#4F4E4E"/>
<path d="M150.497 24.6089C150.497 26.328 151.891 27.7217 153.61 27.7217C155.329 27.7217 156.723 26.328 156.723 24.6089C156.723 22.8897 155.329 21.4961 153.61 21.4961C151.891 21.4961 150.497 22.8897 150.497 24.6089Z" fill="#4F4E4E"/>
<path d="M150.497 46.0525C150.497 47.7716 151.891 49.1653 153.61 49.1653C155.329 49.1653 156.723 47.7716 156.723 46.0525C156.723 44.3333 155.329 42.9397 153.61 42.9397C151.891 42.9397 150.497 44.3333 150.497 46.0525Z" fill="#4F4E4E"/>
<path d="M150.497 67.4961C150.497 69.2152 151.891 70.6089 153.61 70.6089C155.329 70.6089 156.723 69.2152 156.723 67.4961C156.723 65.7769 155.329 64.3833 153.61 64.3833C151.891 64.3833 150.497 65.7769 150.497 67.4961Z" fill="#4F4E4E"/>
<path d="M129.054 3.16527C129.054 4.88441 130.447 6.27805 132.167 6.27805C133.886 6.27805 135.279 4.88441 135.279 3.16527C135.279 1.44613 133.886 0.0524902 132.167 0.0524901C130.447 0.05249 129.054 1.44613 129.054 3.16527Z" fill="#4F4E4E"/>
<path d="M129.054 24.6089C129.054 26.328 130.447 27.7217 132.167 27.7217C133.886 27.7217 135.279 26.328 135.279 24.6089C135.279 22.8897 133.886 21.4961 132.167 21.4961C130.447 21.4961 129.054 22.8897 129.054 24.6089Z" fill="#4F4E4E"/>
<path d="M129.054 46.0525C129.054 47.7716 130.447 49.1653 132.167 49.1653C133.886 49.1653 135.279 47.7716 135.279 46.0525C135.279 44.3333 133.886 42.9397 132.167 42.9397C130.447 42.9397 129.054 44.3333 129.054 46.0525Z" fill="#4F4E4E"/>
<path d="M129.054 67.4961C129.054 69.2152 130.447 70.6089 132.167 70.6089C133.886 70.6089 135.279 69.2152 135.279 67.4961C135.279 65.7769 133.886 64.3833 132.167 64.3833C130.447 64.3833 129.054 65.7769 129.054 67.4961Z" fill="#4F4E4E"/>
<path d="M107.608 3.16527C107.608 4.88441 109.002 6.27805 110.721 6.27805C112.44 6.27805 113.834 4.88441 113.834 3.16527C113.834 1.44613 112.44 0.0524902 110.721 0.0524901C109.002 0.05249 107.608 1.44613 107.608 3.16527Z" fill="#4F4E4E"/>
<path d="M107.608 24.6089C107.608 26.328 109.002 27.7217 110.721 27.7217C112.44 27.7217 113.834 26.328 113.834 24.6089C113.834 22.8897 112.44 21.4961 110.721 21.4961C109.002 21.4961 107.608 22.8897 107.608 24.6089Z" fill="#4F4E4E"/>
<path d="M107.608 46.0525C107.608 47.7716 109.002 49.1653 110.721 49.1653C112.44 49.1653 113.834 47.7716 113.834 46.0525C113.834 44.3333 112.44 42.9397 110.721 42.9397C109.002 42.9397 107.608 44.3333 107.608 46.0525Z" fill="#4F4E4E"/>
<path d="M107.608 67.4961C107.608 69.2152 109.002 70.6089 110.721 70.6089C112.44 70.6089 113.834 69.2152 113.834 67.4961C113.834 65.7769 112.44 64.3833 110.721 64.3833C109.002 64.3833 107.608 65.7769 107.608 67.4961Z" fill="#4F4E4E"/>
<path d="M86.1651 3.16527C86.1651 4.88441 87.5587 6.27805 89.2778 6.27805C90.997 6.27805 92.3906 4.88441 92.3906 3.16527C92.3906 1.44613 90.997 0.0524902 89.2778 0.0524901C87.5587 0.05249 86.1651 1.44613 86.1651 3.16527Z" fill="#4F4E4E"/>
<path d="M86.1651 24.6089C86.1651 26.328 87.5587 27.7217 89.2778 27.7217C90.997 27.7217 92.3906 26.328 92.3906 24.6089C92.3906 22.8897 90.997 21.4961 89.2778 21.4961C87.5587 21.4961 86.1651 22.8897 86.1651 24.6089Z" fill="#4F4E4E"/>
<path d="M86.1651 46.0525C86.1651 47.7716 87.5587 49.1653 89.2778 49.1653C90.997 49.1653 92.3906 47.7716 92.3906 46.0525C92.3906 44.3333 90.997 42.9397 89.2778 42.9397C87.5587 42.9397 86.1651 44.3333 86.1651 46.0525Z" fill="#4F4E4E"/>
<path d="M86.1651 67.4961C86.1651 69.2152 87.5587 70.6089 89.2778 70.6089C90.997 70.6089 92.3906 69.2152 92.3906 67.4961C92.3906 65.7769 90.997 64.3833 89.2778 64.3833C87.5587 64.3833 86.1651 65.7769 86.1651 67.4961Z" fill="#4F4E4E"/>
<path d="M64.7217 3.16527C64.7217 4.88441 66.1153 6.27805 67.8345 6.27805C69.5536 6.27805 70.9473 4.88441 70.9473 3.16527C70.9473 1.44613 69.5536 0.0524902 67.8345 0.0524901C66.1153 0.05249 64.7217 1.44613 64.7217 3.16527Z" fill="#4F4E4E"/>
<path d="M64.7217 24.6089C64.7217 26.328 66.1153 27.7217 67.8345 27.7217C69.5536 27.7217 70.9473 26.328 70.9473 24.6089C70.9473 22.8897 69.5536 21.4961 67.8345 21.4961C66.1153 21.4961 64.7217 22.8897 64.7217 24.6089Z" fill="#4F4E4E"/>
<path d="M64.7217 46.0525C64.7217 47.7716 66.1153 49.1653 67.8345 49.1653C69.5536 49.1653 70.9473 47.7716 70.9473 46.0525C70.9473 44.3333 69.5536 42.9397 67.8345 42.9397C66.1153 42.9397 64.7217 44.3333 64.7217 46.0525Z" fill="#4F4E4E"/>
<path d="M64.7217 67.4961C64.7217 69.2152 66.1153 70.6089 67.8345 70.6089C69.5536 70.6089 70.9473 69.2152 70.9473 67.4961C70.9473 65.7769 69.5536 64.3833 67.8345 64.3833C66.1153 64.3833 64.7217 65.7769 64.7217 67.4961Z" fill="#4F4E4E"/>
<path d="M43.2783 3.16527C43.2783 4.88441 44.672 6.27805 46.3911 6.27805C48.1103 6.27805 49.5039 4.88441 49.5039 3.16527C49.5039 1.44613 48.1103 0.0524902 46.3911 0.0524901C44.672 0.05249 43.2783 1.44613 43.2783 3.16527Z" fill="#4F4E4E"/>
<path d="M43.2783 24.6089C43.2783 26.328 44.672 27.7217 46.3911 27.7217C48.1103 27.7217 49.5039 26.328 49.5039 24.6089C49.5039 22.8897 48.1103 21.4961 46.3911 21.4961C44.672 21.4961 43.2783 22.8897 43.2783 24.6089Z" fill="#4F4E4E"/>
<path d="M43.2783 46.0525C43.2783 47.7716 44.672 49.1653 46.3911 49.1653C48.1103 49.1653 49.5039 47.7716 49.5039 46.0525C49.5039 44.3333 48.1103 42.9397 46.3911 42.9397C44.672 42.9397 43.2783 44.3333 43.2783 46.0525Z" fill="#4F4E4E"/>
<path d="M43.2783 67.4961C43.2783 69.2152 44.672 70.6089 46.3911 70.6089C48.1103 70.6089 49.5039 69.2152 49.5039 67.4961C49.5039 65.7769 48.1103 64.3833 46.3911 64.3833C44.672 64.3833 43.2783 65.7769 43.2783 67.4961Z" fill="#4F4E4E"/>
<path d="M21.835 3.16527C21.835 4.88441 23.2286 6.27805 24.9478 6.27805C26.6669 6.27805 28.0605 4.88441 28.0605 3.16527C28.0605 1.44613 26.6669 0.0524902 24.9478 0.0524901C23.2286 0.05249 21.835 1.44613 21.835 3.16527Z" fill="#4F4E4E"/>
<path d="M21.835 24.6089C21.835 26.328 23.2286 27.7217 24.9478 27.7217C26.6669 27.7217 28.0605 26.328 28.0605 24.6089C28.0605 22.8897 26.6669 21.4961 24.9478 21.4961C23.2286 21.4961 21.835 22.8897 21.835 24.6089Z" fill="#4F4E4E"/>
<path d="M21.835 46.0525C21.835 47.7716 23.2286 49.1653 24.9478 49.1653C26.6669 49.1653 28.0605 47.7716 28.0605 46.0525C28.0605 44.3333 26.6669 42.9397 24.9478 42.9397C23.2286 42.9397 21.835 44.3333 21.835 46.0525Z" fill="#4F4E4E"/>
<path d="M21.835 67.4961C21.835 69.2152 23.2286 70.6089 24.9478 70.6089C26.6669 70.6089 28.0605 69.2152 28.0605 67.4961C28.0605 65.7769 26.6669 64.3833 24.9478 64.3833C23.2286 64.3833 21.835 65.7769 21.835 67.4961Z" fill="#4F4E4E"/>
<path d="M0.391623 3.16527C0.391623 4.88441 1.78526 6.27805 3.50441 6.27805C5.22355 6.27805 6.61719 4.88441 6.61719 3.16527C6.61719 1.44613 5.22355 0.0524902 3.50441 0.0524901C1.78526 0.05249 0.391623 1.44613 0.391623 3.16527Z" fill="#4F4E4E"/>
<path d="M0.391623 24.6089C0.391623 26.328 1.78526 27.7217 3.50441 27.7217C5.22355 27.7217 6.61719 26.328 6.61719 24.6089C6.61719 22.8897 5.22355 21.4961 3.50441 21.4961C1.78526 21.4961 0.391623 22.8897 0.391623 24.6089Z" fill="#4F4E4E"/>
<path d="M0.391623 46.0525C0.391623 47.7716 1.78526 49.1653 3.50441 49.1653C5.22355 49.1653 6.61719 47.7716 6.61719 46.0525C6.61719 44.3333 5.22355 42.9397 3.50441 42.9397C1.78526 42.9397 0.391623 44.3333 0.391623 46.0525Z" fill="#4F4E4E"/>
<path d="M0.391623 67.4961C0.391623 69.2152 1.78526 70.6089 3.50441 70.6089C5.22355 70.6089 6.61719 69.2152 6.61719 67.4961C6.61719 65.7769 5.22355 64.3833 3.50441 64.3833C1.78526 64.3833 0.391623 65.7769 0.391623 67.4961Z" fill="#4F4E4E"/>
</svg>
