<svg width="39" height="48" viewBox="0 0 39 48" fill="none" xmlns="http://www.w3.org/2000/svg">
<path d="M38.8527 17.6178C37.5437 7.0079 27.8815 -0.53198 17.2716 0.777059C6.66171 2.0861 -0.878171 11.7483 0.430867 22.3582C1.518 31.1696 8.46019 38.1118 17.2716 39.1989V42.9043H11.7411C10.4321 42.9043 9.37094 43.9654 9.37094 45.2745V47.6447H29.9126V45.2745C29.9126 43.9654 28.8515 42.9043 27.5424 42.9043H22.012V39.1989C32.6218 37.8898 40.1617 28.2277 38.8527 17.6178ZM27.5424 44.4844C27.9787 44.4844 28.3325 44.8382 28.3325 45.2745V46.0645H10.9511V45.2745C10.9511 44.8382 11.3048 44.4844 11.7411 44.4844H27.5424ZM18.8517 42.9043V39.744H20.4318V42.9043H18.8517ZM19.6418 37.7689C9.82414 37.7689 1.86533 29.8101 1.86533 19.9924C1.87669 10.1794 9.82878 2.22732 19.6418 2.21596C29.4594 2.21596 37.4182 10.1748 37.4182 19.9924C37.4182 29.8101 29.4594 37.7689 19.6418 37.7689Z" fill="#00B341"/>
<path d="M36.2335 21.5726V19.9925C36.2335 19.5562 35.8797 19.2024 35.4434 19.2024H26.206C30.1366 16.4538 31.0947 11.0393 28.3461 7.1087C26.7198 4.78315 24.06 3.39885 21.2223 3.40113H19.6421C19.2058 3.40113 18.8521 3.75488 18.8521 4.19119V13.4286C16.1034 9.49805 10.6889 8.5399 6.75836 11.2885C4.4328 12.9148 3.04851 15.5746 3.05078 18.4123V19.9925C3.05078 20.4288 3.40454 20.7825 3.84085 20.7825H13.0783C10.7609 22.4099 9.37851 25.0615 9.3713 27.8931C9.37693 32.6905 13.2646 36.5782 18.062 36.5838H19.6421C20.0785 36.5838 20.4322 36.2301 20.4322 35.7938V26.5563C23.1808 30.4869 28.5953 31.4451 32.5259 28.6964C34.8514 27.0703 36.2358 24.4104 36.2335 21.5726ZM20.4322 4.98125H21.2223C25.1493 4.98669 28.3284 8.1747 28.323 12.1017C28.3187 15.18 26.3342 17.9059 23.406 18.8556C22.991 17.4678 21.8498 16.4185 20.4322 16.1212V4.98125ZM4.63091 19.2024V18.4123C4.63812 14.4853 7.82751 11.3077 11.7546 11.3149C14.8307 11.3205 17.5544 13.3037 18.5044 16.2294C17.1172 16.6445 16.0683 17.7853 15.7708 19.2024H4.63091ZM18.8521 35.0037H18.062C14.135 34.9983 10.9559 31.8103 10.9613 27.8832C10.9656 24.805 12.9501 22.079 15.8783 21.1294C16.2933 22.5171 17.4345 23.5664 18.8521 23.8638V35.0037ZM19.6421 22.3627C18.3331 22.3627 17.2719 21.3015 17.2719 19.9925C17.2719 18.6834 18.3331 17.6223 19.6421 17.6223C20.9512 17.6223 22.0123 18.6834 22.0123 19.9925C22.0123 21.3015 20.9511 22.3627 19.6421 22.3627ZM27.5296 28.6701C24.4535 28.6644 21.7299 26.6813 20.7798 23.7556C22.1671 23.3405 23.216 22.1996 23.5135 20.7825H34.6534V21.5726C34.6461 25.4997 31.4567 28.6774 27.5296 28.6701Z" fill="#00B341"/>
</svg>
