<svg width="47" height="44" viewBox="0 0 47 44" fill="none" xmlns="http://www.w3.org/2000/svg">
<path d="M43.6691 36.6221H3.68729C2.80396 36.621 1.95711 36.2697 1.3325 35.645C0.707897 35.0204 0.356527 34.1736 0.355469 33.2903V9.30116H1.6882V33.2903C1.6882 33.8205 1.89882 34.3289 2.27372 34.7038C2.64862 35.0787 3.1571 35.2894 3.68729 35.2894H43.6691C44.1993 35.2894 44.7078 35.0787 45.0827 34.7038C45.4576 34.3289 45.6682 33.8205 45.6682 33.2903V3.97025C45.6682 3.44006 45.4576 2.93158 45.0827 2.55668C44.7078 2.18177 44.1993 1.97116 43.6691 1.97116H3.68729C3.1571 1.97116 2.64862 2.18177 2.27372 2.55668C1.89882 2.93158 1.6882 3.44006 1.6882 3.97025V6.6357H0.355469V3.97025C0.356527 3.08692 0.707897 2.24007 1.3325 1.61546C1.95711 0.990856 2.80396 0.639486 3.68729 0.638428H43.6691C44.5525 0.639486 45.3993 0.990856 46.0239 1.61546C46.6485 2.24007 46.9999 3.08692 47.001 3.97025V33.2903C46.9999 34.1736 46.6485 35.0204 46.0239 35.645C45.3993 36.2697 44.5525 36.621 43.6691 36.6221Z" fill="#00B341"/>
<path d="M33.6729 43.2858H13.682C13.5053 43.2858 13.3358 43.2155 13.2108 43.0906C13.0858 42.9656 13.0156 42.7961 13.0156 42.6194C13.0156 39.2876 16.5267 39.2876 17.6802 39.2876H29.6747C30.8282 39.2876 34.3393 39.2876 34.3393 42.6194C34.3393 42.7961 34.2691 42.9656 34.1441 43.0906C34.0191 43.2155 33.8496 43.2858 33.6729 43.2858ZM14.429 41.953H32.9259C32.6934 41.1327 31.8891 40.6203 29.6747 40.6203H17.6802C15.4658 40.6203 14.6615 41.1327 14.429 41.953Z" fill="#00B341"/>
<path d="M29.0098 40.6203H18.348C18.1713 40.6203 18.0018 40.5501 17.8768 40.4251C17.7518 40.3001 17.6816 40.1306 17.6816 39.9539V35.9557C17.6816 35.779 17.7518 35.6095 17.8768 35.4845C18.0018 35.3596 18.1713 35.2894 18.348 35.2894H29.0098C29.1866 35.2894 29.3561 35.3596 29.481 35.4845C29.606 35.6095 29.6762 35.779 29.6762 35.9557V39.9539C29.6762 40.1306 29.606 40.3001 29.481 40.4251C29.3561 40.5501 29.1866 40.6203 29.0098 40.6203ZM19.0144 39.2876H28.3435V36.6221H19.0144V39.2876Z" fill="#00B341"/>
<path d="M1.02148 29.9585H46.3342V31.2912H1.02148V29.9585Z" fill="#00B341"/>
<path d="M21.0137 32.6239H26.3446V33.9567H21.0137V32.6239Z" fill="#00B341"/>
</svg>
