<svg width="35" height="50" viewBox="0 0 35 50" fill="none" xmlns="http://www.w3.org/2000/svg">
<path d="M32.8617 33.2143H34.3674C34.3674 24.9905 28.3819 17.9855 20.3384 16.6515V7.91315H23.5938C24.5615 7.91315 25.3486 7.12585 25.3486 6.15835V0.896057H17.0801V2.40179H23.843V6.15835C23.843 6.29348 23.7289 6.40751 23.5938 6.40751H11.5691C11.434 6.40751 11.3198 6.29338 11.3198 6.15835V2.40179H15.0757V0.896057H9.81411V6.15825C9.81411 7.12595 10.6014 7.91305 11.569 7.91305H14.8245V16.6521C12.298 17.0732 9.87962 18.076 7.79394 19.5758L8.67311 20.7983C10.5033 19.482 12.6149 18.5863 14.8245 18.1803V21.2461C12.478 21.7818 10.2993 23.0283 8.636 24.8019C6.48789 27.0829 5.30469 30.0704 5.30469 33.2143C5.30469 36.3558 6.49182 39.3403 8.64348 41.6142C10.9423 44.0779 14.2 45.4909 17.5813 45.4909C20.9626 45.4909 24.2203 44.0778 26.5154 41.618C28.6708 39.3403 29.8579 36.3557 29.8579 33.2142C29.8579 30.0704 28.6748 27.0828 26.5277 24.8029C24.8635 23.0283 22.6847 21.7818 20.3382 21.2461V18.1797C27.5353 19.4949 32.8617 25.8123 32.8617 33.2143ZM16.3303 7.91315H18.8329V10.9168H16.3303V7.91315ZM14.8246 22.7948V28.7537C14.5907 28.8975 14.3705 29.0577 14.1648 29.2338L10.251 25.3201C11.547 24.1148 13.129 23.2411 14.8246 22.7948ZM9.22016 26.4185L13.1692 30.3676C12.7551 30.9992 12.4846 31.7141 12.3751 32.4613H6.83651C6.98957 30.2402 7.8182 28.1394 9.22016 26.4185ZM6.8367 33.967H12.3745C12.4834 34.7164 12.7528 35.4323 13.1654 36.0645L9.2286 40.0012C7.82223 38.2838 6.99053 36.1858 6.8367 33.967ZM16.8287 43.9577C14.3803 43.7844 12.0507 42.7717 10.2593 41.1L14.1563 37.203C14.9068 37.8569 15.8329 38.2788 16.8287 38.4211V43.9577ZM18.3343 43.9578V38.4211C19.33 38.2788 20.2561 37.8568 21.0067 37.203L24.9039 41.1002C23.1146 42.7708 20.7841 43.7845 18.3343 43.9578ZM25.9341 40.0009L21.9996 36.0665C22.4122 35.4381 22.6813 34.7215 22.7893 33.967H28.3263C28.1724 36.1844 27.3414 38.2816 25.9341 40.0009ZM28.3264 32.4613H22.7879C22.6783 31.7141 22.4079 30.9993 21.9937 30.3676L25.9429 26.4185C27.3446 28.1389 28.1733 30.2399 28.3264 32.4613ZM20.3385 22.7948C22.0337 23.2411 23.6154 24.1146 24.9119 25.3201L20.9981 29.2338C20.7924 29.0577 20.5723 28.8975 20.3384 28.7537V22.7948H20.3385ZM20.4243 30.7849L20.431 30.7929C21.0243 31.4733 21.3378 32.3106 21.3378 33.2141C21.3378 34.1208 21.017 34.9829 20.4346 35.6413L20.4205 35.6576C19.7236 36.4921 18.6888 36.9707 17.5813 36.9707C16.4737 36.9707 15.4388 36.4921 14.7421 35.6576L14.7316 35.6454C14.1468 34.9746 13.8248 34.1112 13.8248 33.2141C13.8248 32.3106 14.1384 31.4733 14.7316 30.7929L14.7383 30.7849C15.0588 30.4069 15.4542 30.0989 15.9137 29.8691L16.3298 29.6611V12.4225H18.8324V29.661L19.2489 29.8692C19.7085 30.099 20.1039 30.407 20.4243 30.7849Z" fill="#00B341"/>
<path d="M32.6758 35.603C32.1181 39.1611 30.3012 42.4233 27.5599 44.7886C24.7904 47.1784 21.2464 48.4944 17.5808 48.4944C9.15528 48.4944 2.30056 41.6397 2.30056 33.2141C2.30056 28.7939 4.21504 24.5918 7.55306 21.6851L6.56427 20.5495C2.89777 23.7422 0.794922 28.3582 0.794922 33.214C0.794922 42.4699 8.32511 50.0001 17.5809 50.0001C21.6075 50.0001 25.5008 48.5542 28.5436 45.9285C31.5547 43.3304 33.5505 39.7461 34.1635 35.836L32.6758 35.603Z" fill="#00B341"/>
<path d="M19.0843 32.4615H16.0781V33.9672H19.0843V32.4615Z" fill="#00B341"/>
<path d="M19.0843 3.40131H16.0781V4.90704H19.0843V3.40131Z" fill="#00B341"/>
</svg>
