<svg width="46" height="46" viewBox="0 0 46 46" fill="none" xmlns="http://www.w3.org/2000/svg">
<path d="M31.2828 9.25477C31.372 9.25482 31.4604 9.23729 31.5428 9.20317C31.6252 9.16905 31.7001 9.11902 31.7632 9.05593C31.8263 8.99285 31.8763 8.91794 31.9105 8.83551C31.9446 8.75307 31.9621 8.66472 31.9621 8.5755V4.59693C31.9621 4.41678 31.8905 4.244 31.7631 4.11662C31.6357 3.98923 31.4629 3.91766 31.2828 3.91766C31.1026 3.91766 30.9299 3.98923 30.8025 4.11662C30.6751 4.244 30.6035 4.41678 30.6035 4.59693V8.5755C30.6035 8.66472 30.621 8.75307 30.6551 8.83551C30.6892 8.91794 30.7393 8.99285 30.8024 9.05593C30.8654 9.11902 30.9403 9.16905 31.0228 9.20317C31.1052 9.23729 31.1936 9.25482 31.2828 9.25477Z" fill="#00B341"/>
<path d="M42.9919 14.5985H39.1337V5.14694C39.1335 4.96682 39.0619 4.7941 38.9346 4.66674C38.8072 4.53937 38.6345 4.46777 38.4544 4.46767H34.2895V0.683175C34.2895 0.503022 34.2179 0.330247 34.0905 0.202859C33.9632 0.0754719 33.7904 0.00390625 33.6102 0.00390625H12.3938C12.2136 0.00390625 12.0408 0.0754719 11.9134 0.202859C11.7861 0.330247 11.7145 0.503022 11.7145 0.683175V4.46767H7.54961C7.36949 4.46777 7.19677 4.53937 7.06941 4.66674C6.94204 4.7941 6.87044 4.96682 6.87034 5.14694V14.5985H3.0121C2.21456 14.5994 1.44995 14.9166 0.886006 15.4806C0.322061 16.0445 0.00483081 16.8091 0.00390625 17.6067V36.1255C0.00483081 36.923 0.322061 37.6876 0.886006 38.2516C1.44995 38.8155 2.21456 39.1327 3.0121 39.1337H11.7133V45.3208C11.7133 45.501 11.7849 45.6737 11.9123 45.8011C12.0397 45.9285 12.2124 46.0001 12.3926 46.0001H33.6114C33.7915 46.0001 33.9643 45.9285 34.0917 45.8011C34.2191 45.6737 34.2907 45.501 34.2907 45.3208V39.1337H42.9919C43.7894 39.1327 44.554 38.8155 45.118 38.2516C45.6819 37.6876 45.9992 36.923 46.0001 36.1255V17.6067C45.9992 16.8091 45.6819 16.0445 45.118 15.4806C44.554 14.9166 43.7894 14.5994 42.9919 14.5985ZM37.7751 5.82621V14.5985H34.2895V5.82621H37.7751ZM13.073 1.36244H32.931V14.5985H13.073V1.36244ZM8.22888 5.82621H11.7145V14.5985H8.22888V5.82621ZM8.22888 37.7751V30.8621H11.7133V37.7751H8.22888ZM13.0719 44.6415V30.8621H32.9321C32.9321 30.8621 32.9321 38.4505 32.9321 38.4544C32.9321 38.4583 32.9321 44.6415 32.9321 44.6415H13.0719ZM34.2907 37.7751V30.8621H37.7751V37.7751H34.2907ZM44.6415 36.1255C44.641 36.5628 44.4671 36.9821 44.1578 37.2914C43.8486 37.6006 43.4293 37.7746 42.9919 37.7751H39.1337V30.1828C39.1335 30.0027 39.0619 29.83 38.9346 29.7026C38.8072 29.5753 38.6345 29.5037 38.4544 29.5036H7.54961C7.36949 29.5037 7.19677 29.5753 7.06941 29.7026C6.94204 29.83 6.87044 30.0027 6.87034 30.1828V37.7751H3.0121C2.57474 37.7746 2.15544 37.6006 1.84618 37.2914C1.53692 36.9821 1.36296 36.5628 1.36244 36.1255V17.6067C1.36296 17.1693 1.53692 16.75 1.84618 16.4408C2.15544 16.1315 2.57474 15.9575 3.0121 15.957H42.9919C43.4293 15.9575 43.8486 16.1315 44.1578 16.4408C44.4671 16.75 44.641 17.1693 44.6415 17.6067V36.1255Z" fill="#00B341"/>
<path d="M13.8163 19.2548H4.17732C3.99716 19.2548 3.82439 19.3264 3.697 19.4538C3.56961 19.5812 3.49805 19.7539 3.49805 19.9341C3.49805 20.1142 3.56961 20.287 3.697 20.4144C3.82439 20.5418 3.99716 20.6134 4.17732 20.6134H13.8163C13.9965 20.6134 14.1693 20.5418 14.2966 20.4144C14.424 20.287 14.4956 20.1142 14.4956 19.9341C14.4956 19.7539 14.424 19.5812 14.2966 19.4538C14.1693 19.3264 13.9965 19.2548 13.8163 19.2548Z" fill="#00B341"/>
<path d="M28.8239 32.8028H17.1793C16.9991 32.8028 16.8263 32.8744 16.699 33.0017C16.5716 33.1291 16.5 33.3019 16.5 33.4821C16.5 33.6622 16.5716 33.835 16.699 33.9624C16.8263 34.0898 16.9991 34.1613 17.1793 34.1613H28.8239C29.004 34.1613 29.1768 34.0898 29.3042 33.9624C29.4316 33.835 29.5031 33.6622 29.5031 33.4821C29.5031 33.3019 29.4316 33.1291 29.3042 33.0017C29.1768 32.8744 29.004 32.8028 28.8239 32.8028Z" fill="#00B341"/>
<path d="M28.8239 36.2962H17.1793C16.9991 36.2962 16.8263 36.3678 16.699 36.4952C16.5716 36.6226 16.5 36.7953 16.5 36.9755C16.5 37.1557 16.5716 37.3284 16.699 37.4558C16.8263 37.5832 16.9991 37.6548 17.1793 37.6548H28.8239C29.004 37.6548 29.1768 37.5832 29.3042 37.4558C29.4316 37.3284 29.5031 37.1557 29.5031 36.9755C29.5031 36.7953 29.4316 36.6226 29.3042 36.4952C29.1768 36.3678 29.004 36.2962 28.8239 36.2962Z" fill="#00B341"/>
<path d="M28.8239 39.7897H17.1793C16.9991 39.7897 16.8263 39.8612 16.699 39.9886C16.5716 40.116 16.5 40.2888 16.5 40.4689C16.5 40.6491 16.5716 40.8219 16.699 40.9493C16.8263 41.0766 16.9991 41.1482 17.1793 41.1482H28.8239C29.004 41.1482 29.1768 41.0766 29.3042 40.9493C29.4316 40.8219 29.5031 40.6491 29.5031 40.4689C29.5031 40.2888 29.4316 40.116 29.3042 39.9886C29.1768 39.8612 29.004 39.7897 28.8239 39.7897Z" fill="#00B341"/>
<path d="M40.6621 18.0903C40.2974 18.0903 39.941 18.1984 39.6378 18.401C39.3346 18.6036 39.0983 18.8915 38.9587 19.2284C38.8192 19.5653 38.7826 19.936 38.8538 20.2937C38.9249 20.6513 39.1005 20.9799 39.3584 21.2377C39.6162 21.4956 39.9447 21.6712 40.3024 21.7423C40.66 21.8134 41.0308 21.7769 41.3677 21.6374C41.7046 21.4978 41.9925 21.2615 42.1951 20.9583C42.3977 20.6551 42.5058 20.2987 42.5058 19.934C42.5052 19.4452 42.3108 18.9766 41.9651 18.631C41.6195 18.2853 41.1509 18.0909 40.6621 18.0903ZM40.6621 20.4192C40.5661 20.4192 40.4723 20.3907 40.3925 20.3374C40.3127 20.2841 40.2506 20.2083 40.2138 20.1197C40.1771 20.031 40.1675 19.9335 40.1862 19.8393C40.2049 19.7452 40.2512 19.6588 40.319 19.5909C40.3869 19.5231 40.4733 19.4769 40.5674 19.4581C40.6615 19.4394 40.7591 19.449 40.8478 19.4857C40.9364 19.5225 41.0122 19.5847 41.0655 19.6644C41.1188 19.7442 41.1473 19.838 41.1473 19.934C41.1472 20.0626 41.096 20.186 41.0051 20.277C40.9141 20.3679 40.7907 20.4191 40.6621 20.4192Z" fill="#00B341"/>
<path d="M36.0527 18.0903C35.6881 18.0903 35.3316 18.1984 35.0284 18.401C34.7252 18.6036 34.4889 18.8915 34.3493 19.2284C34.2098 19.5653 34.1733 19.936 34.2444 20.2937C34.3156 20.6513 34.4912 20.9799 34.749 21.2377C35.0069 21.4956 35.3354 21.6712 35.693 21.7423C36.0507 21.8134 36.4214 21.7769 36.7583 21.6374C37.0952 21.4978 37.3831 21.2615 37.5857 20.9583C37.7883 20.6551 37.8964 20.2987 37.8964 19.934C37.8958 19.4452 37.7014 18.9766 37.3557 18.631C37.0101 18.2853 36.5415 18.0909 36.0527 18.0903ZM36.0527 20.4192C35.9568 20.4192 35.8629 20.3907 35.7832 20.3374C35.7034 20.2841 35.6412 20.2083 35.6045 20.1197C35.5677 20.031 35.5581 19.9335 35.5768 19.8393C35.5956 19.7452 35.6418 19.6588 35.7096 19.5909C35.7775 19.5231 35.8639 19.4769 35.9581 19.4581C36.0522 19.4394 36.1497 19.449 36.2384 19.4857C36.327 19.5225 36.4028 19.5847 36.4561 19.6644C36.5094 19.7442 36.5379 19.838 36.5379 19.934C36.5378 20.0626 36.4867 20.186 36.3957 20.277C36.3047 20.3679 36.1814 20.4191 36.0527 20.4192Z" fill="#00B341"/>
<path d="M31.4453 18.0903C31.0807 18.0903 30.7243 18.1984 30.4211 18.4009C30.118 18.6034 29.8816 18.8913 29.7421 19.2281C29.6025 19.5649 29.5659 19.9355 29.6369 20.2931C29.7079 20.6507 29.8833 20.9793 30.141 21.2372C30.3987 21.4951 30.7271 21.6708 31.0846 21.7421C31.4422 21.8134 31.8129 21.7771 32.1498 21.6378C32.4867 21.4985 32.7748 21.2624 32.9775 20.9595C33.1803 20.6565 33.2887 20.3001 33.289 19.9356C33.2888 19.4465 33.0945 18.9775 32.7489 18.6315C32.4032 18.2855 31.9344 18.0909 31.4453 18.0903ZM31.4453 20.4192C31.3493 20.4192 31.2554 20.3907 31.1756 20.3373C31.0957 20.2839 31.0336 20.2081 30.9969 20.1193C30.9602 20.0306 30.9507 19.9329 30.9695 19.8388C30.9884 19.7446 31.0348 19.6582 31.1028 19.5904C31.1708 19.5226 31.2574 19.4765 31.3516 19.4579C31.4458 19.4394 31.5434 19.4492 31.632 19.4862C31.7207 19.5231 31.7963 19.5856 31.8495 19.6656C31.9026 19.7456 31.9308 19.8395 31.9305 19.9356C31.93 20.0639 31.8786 20.1869 31.7877 20.2775C31.6968 20.3682 31.5737 20.4191 31.4453 20.4192Z" fill="#00B341"/>
</svg>
