<svg width="52" height="39" viewBox="0 0 52 39" fill="none" xmlns="http://www.w3.org/2000/svg">
<path d="M49.1153 17.4846H31.3888V16.2479C31.3878 15.5543 31.1374 14.8842 30.6833 14.3599C30.2292 13.8356 29.6017 13.4921 28.9154 13.3921V9.23974H32.2133C32.432 9.23974 32.6417 9.15288 32.7963 8.99826C32.9509 8.84363 33.0378 8.63392 33.0378 8.41525V5.94179H34.6868C34.9054 5.94179 35.1152 5.85493 35.2698 5.70031C35.4244 5.54569 35.5113 5.33597 35.5113 5.11731V2.64385H39.6337C39.8524 2.64385 40.0621 2.55698 40.2167 2.40236C40.3713 2.24774 40.4582 2.03803 40.4582 1.81936C40.4582 1.60069 40.3713 1.39098 40.2167 1.23636C40.0621 1.08174 39.8524 0.994873 39.6337 0.994873H9.95217C9.7335 0.994873 9.52379 1.08174 9.36917 1.23636C9.21455 1.39098 9.12768 1.60069 9.12768 1.81936C9.12768 2.03803 9.21455 2.24774 9.36917 2.40236C9.52379 2.55698 9.7335 2.64385 9.95217 2.64385H17.3726V5.11731C17.3726 5.33597 17.4594 5.54569 17.614 5.70031C17.7687 5.85493 17.9784 5.94179 18.197 5.94179H19.846V8.41525C19.846 8.63392 19.9329 8.84363 20.0875 8.99826C20.2421 9.15288 20.4518 9.23974 20.6705 9.23974H23.9684V13.3921C23.2821 13.4921 22.6546 13.8356 22.2005 14.3599C21.7464 14.8842 21.496 15.5543 21.495 16.2479V17.4846H19.5368C17.9181 16.4093 16.018 15.8356 14.0746 15.8356C12.1312 15.8356 10.2311 16.4093 8.61238 17.4846H3.76852C3.00344 17.4855 2.26994 17.7898 1.72895 18.3307C1.18796 18.8717 0.883658 19.6052 0.882812 20.3703V31.0886C0.883658 31.8537 1.18796 32.5872 1.72895 33.1282C2.26994 33.6692 3.00344 33.9735 3.76852 33.9743H4.18076V35.2111C4.18161 35.9762 4.48591 36.7097 5.0269 37.2506C5.56789 37.7916 6.30139 38.0959 7.06646 38.0968H45.8173C46.5824 38.0959 47.3159 37.7916 47.8569 37.2506C48.3979 36.7097 48.7022 35.9762 48.7031 35.2111V33.9743H49.1153C49.8804 33.9735 50.6139 33.6692 51.1549 33.1282C51.6959 32.5872 52.0002 31.8537 52.001 31.0886V20.3703C52.0002 19.6052 51.6959 18.8717 51.1549 18.3307C50.6139 17.7898 49.8804 17.4855 49.1153 17.4846ZM19.0215 4.29282V2.64385H33.8623V4.29282H19.0215ZM21.495 7.59077V5.94179H31.3888V7.59077H21.495ZM27.2664 9.23974V13.3622H25.6174V9.23974H27.2664ZM23.144 16.2479C23.1442 15.92 23.2746 15.6056 23.5065 15.3737C23.7384 15.1418 24.0528 15.0114 24.3807 15.0111H28.5031C28.831 15.0114 29.1455 15.1418 29.3773 15.3737C29.6092 15.6056 29.7396 15.92 29.7399 16.2479V17.4846H23.144V16.2479ZM14.0746 17.4846C15.7053 17.4846 17.2993 17.9682 18.6552 18.8741C20.0111 19.7801 21.0678 21.0678 21.6919 22.5743C22.3159 24.0809 22.4792 25.7386 22.1611 27.338C21.8429 28.9373 21.0577 30.4064 19.9046 31.5595C18.7515 32.7125 17.2824 33.4978 15.6831 33.8159C14.0837 34.1341 12.426 33.9708 10.9194 33.3467C9.41288 32.7227 8.1252 31.6659 7.21924 30.3101C6.31329 28.9542 5.82973 27.3602 5.82973 25.7295C5.83227 23.5436 6.70174 21.4479 8.2474 19.9023C9.79307 18.3566 11.8887 17.4871 14.0746 17.4846ZM3.76852 32.3254C3.4406 32.3251 3.12619 32.1947 2.89432 31.9628C2.66244 31.731 2.53206 31.4166 2.53179 31.0886V20.3703C2.53206 20.0424 2.66244 19.728 2.89432 19.4961C3.12619 19.2642 3.4406 19.1339 3.76852 19.1336H6.70678C5.08037 20.9456 4.18077 23.2946 4.18077 25.7295C4.18077 28.1643 5.08037 30.5134 6.70678 32.3254H3.76852ZM47.0541 35.2111C47.0538 35.539 46.9234 35.8534 46.6915 36.0853C46.4597 36.3172 46.1453 36.4475 45.8173 36.4478H7.06646C6.73855 36.4475 6.42414 36.3172 6.19227 36.0853C5.96039 35.8534 5.83001 35.539 5.82973 35.2111V33.9743H8.61238C10.2311 35.0497 12.1312 35.6233 14.0746 35.6233C16.018 35.6233 17.9181 35.0497 19.5368 33.9743H47.0541V35.2111ZM50.352 31.0886C50.3518 31.4166 50.2214 31.731 49.9895 31.9628C49.7576 32.1947 49.4432 32.3251 49.1153 32.3254H21.4424C23.0688 30.5134 23.9684 28.1643 23.9684 25.7295C23.9684 23.2946 23.0688 20.9456 21.4424 19.1336H49.1153C49.4432 19.1339 49.7576 19.2642 49.9895 19.4961C50.2214 19.728 50.3518 20.0424 50.352 20.3703V31.0886Z" fill="#00B341"/>
<path d="M14.0744 32.3254C15.379 32.3254 16.6542 31.9385 17.7389 31.2138C18.8236 30.489 19.669 29.4589 20.1682 28.2536C20.6675 27.0484 20.7981 25.7222 20.5436 24.4427C20.2891 23.1632 19.6609 21.9879 18.7384 21.0655C17.816 20.143 16.6407 19.5148 15.3612 19.2603C14.0817 19.0058 12.7555 19.1364 11.5503 19.6357C10.345 20.1349 9.31489 20.9803 8.59012 22.065C7.86536 23.1497 7.47852 24.4249 7.47852 25.7295C7.48048 27.4782 8.17603 29.1548 9.41258 30.3913C10.6491 31.6279 12.3257 32.3234 14.0744 32.3254ZM14.0744 20.7826C15.0528 20.7826 16.0093 21.0727 16.8228 21.6163C17.6363 22.1598 18.2703 22.9324 18.6448 23.8364C19.0192 24.7403 19.1172 25.735 18.9263 26.6946C18.7354 27.6542 18.2643 28.5356 17.5724 29.2275C16.8806 29.9193 15.9991 30.3905 15.0395 30.5813C14.0799 30.7722 13.0852 30.6743 12.1813 30.2998C11.2774 29.9254 10.5048 29.2914 9.9612 28.4778C9.41762 27.6643 9.12749 26.7079 9.12749 25.7295C9.12896 24.4179 9.65063 23.1605 10.578 22.2331C11.5054 21.3057 12.7629 20.784 14.0744 20.7826Z" fill="#00B341"/>
<path d="M47.8788 21.6071H42.9319C42.7132 21.6071 42.5035 21.694 42.3489 21.8486C42.1943 22.0032 42.1074 22.2129 42.1074 22.4316V29.0275C42.1074 29.2462 42.1943 29.4559 42.3489 29.6105C42.5035 29.7651 42.7132 29.852 42.9319 29.852H47.8788C48.0975 29.852 48.3072 29.7651 48.4618 29.6105C48.6165 29.4559 48.7033 29.2462 48.7033 29.0275V22.4316C48.7033 22.2129 48.6165 22.0032 48.4618 21.8486C48.3072 21.694 48.0975 21.6071 47.8788 21.6071ZM47.0543 28.203H43.7564V23.2561H47.0543V28.203Z" fill="#00B341"/>
<path d="M40.458 21.6071H32.2132C31.9945 21.6071 31.7848 21.694 31.6302 21.8486C31.4755 22.0032 31.3887 22.2129 31.3887 22.4316C31.3887 22.6503 31.4755 22.86 31.6302 23.0146C31.7848 23.1692 31.9945 23.2561 32.2132 23.2561H40.458C40.6767 23.2561 40.8864 23.1692 41.041 23.0146C41.1957 22.86 41.2825 22.6503 41.2825 22.4316C41.2825 22.2129 41.1957 22.0032 41.041 21.8486C40.8864 21.694 40.6767 21.6071 40.458 21.6071Z" fill="#00B341"/>
<path d="M40.458 24.905H32.2132C31.9945 24.905 31.7848 24.9918 31.6302 25.1465C31.4755 25.3011 31.3887 25.5108 31.3887 25.7295C31.3887 25.9481 31.4755 26.1578 31.6302 26.3125C31.7848 26.4671 31.9945 26.5539 32.2132 26.5539H40.458C40.6767 26.5539 40.8864 26.4671 41.041 26.3125C41.1957 26.1578 41.2825 25.9481 41.2825 25.7295C41.2825 25.5108 41.1957 25.3011 41.041 25.1465C40.8864 24.9918 40.6767 24.905 40.458 24.905Z" fill="#00B341"/>
<path d="M40.458 28.2029H32.2132C31.9945 28.2029 31.7848 28.2898 31.6302 28.4444C31.4755 28.599 31.3887 28.8087 31.3887 29.0274C31.3887 29.2461 31.4755 29.4558 31.6302 29.6104C31.7848 29.765 31.9945 29.8519 32.2132 29.8519H40.458C40.6767 29.8519 40.8864 29.765 41.041 29.6104C41.1957 29.4558 41.2825 29.2461 41.2825 29.0274C41.2825 28.8087 41.1957 28.599 41.041 28.4444C40.8864 28.2898 40.6767 28.2029 40.458 28.2029Z" fill="#00B341"/>
<path d="M42.1077 2.64385H42.9322C43.1508 2.64385 43.3606 2.55698 43.5152 2.40236C43.6698 2.24774 43.7567 2.03803 43.7567 1.81936C43.7567 1.60069 43.6698 1.39098 43.5152 1.23636C43.3606 1.08174 43.1508 0.994873 42.9322 0.994873H42.1077C41.889 0.994873 41.6793 1.08174 41.5247 1.23636C41.3701 1.39098 41.2832 1.60069 41.2832 1.81936C41.2832 2.03803 41.3701 2.24774 41.5247 2.40236C41.6793 2.55698 41.889 2.64385 42.1077 2.64385Z" fill="#00B341"/>
</svg>
