<svg width="42" height="42" viewBox="0 0 42 42" fill="none" xmlns="http://www.w3.org/2000/svg">
<path d="M41.7966 12.5603C41.5258 12.2896 41.0869 12.2895 40.816 12.5603L39.5084 13.8679L38.8081 13.1676L40.1157 11.86C40.3865 11.5892 40.3865 11.1501 40.1157 10.8794C39.8449 10.6087 39.4059 10.6086 39.1351 10.8794L37.8274 12.1869L37.1271 11.4866L38.4348 10.1789C38.7056 9.90814 38.7056 9.46917 38.4348 9.19838C38.164 8.92768 37.725 8.92758 37.4541 9.19838L36.1466 10.5059L35.4462 9.80561L36.7539 8.49795C37.0247 8.22716 37.0247 7.78819 36.7539 7.5174C36.4831 7.2467 36.0441 7.2466 35.7732 7.5174L34.4657 8.82496L33.7653 8.12463L35.073 6.81698C35.3438 6.54618 35.3438 6.10722 35.073 5.83642C34.8022 5.56572 34.3632 5.56563 34.0924 5.83642L32.7848 7.14398L32.0845 6.44365L33.392 5.136C33.6628 4.86521 33.6628 4.42615 33.3919 4.15535C33.1212 3.88456 32.6822 3.88465 32.4114 4.15535L31.1038 5.46291L30.4035 4.76258L31.711 3.45502C31.9818 3.18423 31.9818 2.74517 31.711 2.47438C31.4402 2.20358 31.0012 2.20358 30.7304 2.47438L29.4228 3.78194L28.7225 3.08161L30.0301 1.77395C30.3009 1.50316 30.3009 1.0641 30.03 0.793306C29.7593 0.522511 29.3202 0.522511 29.0494 0.793306L27.5195 2.32322C27.303 2.33699 27.0902 2.42565 26.9247 2.59114L3.29317 26.2229C-0.0907875 29.6069 -0.297697 34.983 2.67198 38.6108L0.977135 40.3056C0.616107 40.6666 0.616107 41.252 0.977135 41.6131C1.1577 41.7936 1.39428 41.8839 1.63087 41.8839C1.86746 41.8839 2.10404 41.7935 2.2846 41.6131L3.97945 39.9182C5.67513 41.3063 7.75263 42.0005 9.83023 42.0005C12.1976 42.0005 14.5651 41.0994 16.3674 39.2971L39.9986 15.6657C40.1642 15.5002 40.2528 15.2875 40.2665 15.0709L41.7965 13.5409C42.0673 13.2702 42.0673 12.8311 41.7966 12.5603ZM15.0599 37.9897C12.1764 40.8733 7.48424 40.8733 4.60064 37.9897C3.20377 36.5928 2.43438 34.7355 2.43438 32.7601C2.43438 30.7845 3.20368 28.9273 4.60064 27.5305L25.2251 6.90592L27.1044 8.78521L21.6786 14.211C21.5053 14.3843 21.4078 14.6195 21.4078 14.8647C21.4078 15.1099 21.5053 15.3451 21.6786 15.5185L27.0718 20.9115C27.2523 21.0921 27.4889 21.1823 27.7255 21.1823C27.9621 21.1823 28.1987 21.0921 28.3792 20.9115L33.8049 15.4858L35.6842 17.3652L15.0599 37.9897ZM32.4974 14.1783L30.6868 15.989L26.6012 11.9034L28.4119 10.0927L32.4974 14.1783ZM24.1497 14.3548L28.2353 18.4404L27.7255 18.9502L23.6399 14.8646L24.1497 14.3548ZM29.216 17.4599L25.1304 13.3743L25.6206 12.8841L29.7062 16.9698L29.216 17.4599ZM36.9918 16.0576L26.5326 5.59845L27.5782 4.55281L38.0374 15.012L36.9918 16.0576Z" fill="#00B341"/>
<path d="M19.6351 19.9146L14.9089 24.6408C14.5029 25.0468 14.2793 25.5865 14.2793 26.1606C14.2793 26.7348 14.5029 27.2746 14.9089 27.6805C15.315 28.0865 15.8546 28.3102 16.4287 28.3102C17.003 28.3102 17.5427 28.0866 17.9487 27.6805L22.6749 22.9544C23.0809 22.5484 23.3045 22.0087 23.3045 21.4344C23.3045 20.8603 23.0809 20.3206 22.6749 19.9146C21.837 19.0767 20.4735 19.0764 19.6351 19.9146ZM16.9681 26.7001C16.671 26.9974 16.187 26.9975 15.8896 26.7001C15.5922 26.4027 15.5922 25.9189 15.8896 25.6215L19.194 22.3172L20.2726 23.3957L16.9681 26.7001ZM21.6944 21.9738L21.2532 22.415L20.1746 21.3364L20.6157 20.8952C20.7645 20.7465 20.9598 20.6722 21.1551 20.6722C21.3504 20.6722 21.5458 20.7465 21.6944 20.8952C21.9918 21.1926 21.9918 21.6765 21.6944 21.9738Z" fill="#00B341"/>
</svg>
