<svg width="41" height="36" viewBox="0 0 41 36" fill="none" xmlns="http://www.w3.org/2000/svg">
<path d="M21.0303 7.19513C19.1222 7.19513 17.492 8.0162 16.7764 9.33726C16.6213 9.6228 16.7276 9.97971 17.0132 10.1344C17.2987 10.2895 17.6556 10.1831 17.8103 9.89761C18.3128 8.97054 19.5766 8.37128 21.0303 8.37128C22.4843 8.37128 23.7481 8.97054 24.2505 9.89761C24.3571 10.0943 24.5593 10.2058 24.768 10.2058C24.8626 10.2058 24.9588 10.1828 25.0477 10.1347C25.3332 9.98002 25.4392 9.6231 25.2845 9.33726C24.5688 8.0162 22.9387 7.19513 21.0303 7.19513Z" fill="#00B341"/>
<path d="M27.0316 7.92801C27.1382 8.12439 27.3404 8.23591 27.549 8.23591C27.6437 8.23591 27.7399 8.21293 27.8287 8.16483C28.1143 8.01012 28.2203 7.6532 28.0656 7.36766C26.8931 5.20378 24.1974 3.86005 21.0301 3.86005C17.8632 3.86005 15.1674 5.20409 13.995 7.36766C13.8403 7.6532 13.9463 8.01012 14.2318 8.16483C14.5173 8.31955 14.8742 8.21355 15.029 7.92801C15.9956 6.14433 18.2952 5.0362 21.0301 5.0362C23.7654 5.0362 26.065 6.14402 27.0316 7.92801Z" fill="#00B341"/>
<path d="M11.2842 6.62157C11.5701 6.77659 11.9267 6.67059 12.0817 6.38506C13.5327 3.70954 16.9619 2.04749 21.031 2.04749C25.0999 2.04749 28.5291 3.70954 29.9804 6.38506C30.0867 6.58144 30.2889 6.69296 30.4978 6.69296C30.5925 6.69296 30.6884 6.66998 30.7775 6.62157C31.0631 6.46686 31.1691 6.10994 31.0141 5.8244C29.3572 2.76929 25.5319 0.871338 21.031 0.871338C16.5302 0.871338 12.7049 2.76929 11.0477 5.8244C10.893 6.10994 10.999 6.46686 11.2842 6.62157Z" fill="#00B341"/>
<path d="M32.3236 18.8092C33.1664 18.8092 33.8521 18.1226 33.8521 17.2785C33.8521 16.4345 33.1664 15.7479 32.3236 15.7479C31.4798 15.7479 30.793 16.4345 30.793 17.2785C30.793 18.1226 31.4798 18.8092 32.3236 18.8092ZM32.3236 16.9241C32.5181 16.9241 32.6759 17.0831 32.6759 17.2785C32.6759 17.4709 32.5148 17.6333 32.3236 17.6333C32.1281 17.6333 31.9691 17.474 31.9691 17.2785C31.9691 17.0831 32.1284 16.9241 32.3236 16.9241Z" fill="#00B341"/>
<path d="M32.3236 20.5856C31.4798 20.5856 30.793 21.2724 30.793 22.1165C30.793 22.9605 31.4798 23.6471 32.3236 23.6471C33.1664 23.6471 33.8521 22.9605 33.8521 22.1165C33.8521 21.2724 33.1664 20.5856 32.3236 20.5856ZM32.3236 22.471C32.1281 22.471 31.9691 22.312 31.9691 22.1165C31.9691 21.921 32.1281 21.7617 32.3236 21.7617C32.5148 21.7617 32.6759 21.9241 32.6759 22.1165C32.6762 22.312 32.5181 22.471 32.3236 22.471Z" fill="#00B341"/>
<path d="M31.4343 19.6973C31.4343 18.8536 30.7477 18.1667 29.9037 18.1667C29.0596 18.1667 28.373 18.8533 28.373 19.6973C28.373 20.5414 29.0596 21.2282 29.9037 21.2282C30.7477 21.2282 31.4343 20.5414 31.4343 19.6973ZM29.9037 20.0521C29.7082 20.0521 29.5492 19.8931 29.5492 19.6973C29.5492 19.5018 29.7082 19.3428 29.9037 19.3428C30.0991 19.3428 30.2584 19.5018 30.2584 19.6973C30.2584 19.8931 30.0991 20.0521 29.9037 20.0521Z" fill="#00B341"/>
<path d="M34.7438 18.1667C33.8998 18.1667 33.2129 18.8533 33.2129 19.6973C33.2129 20.5414 33.8998 21.2282 34.7438 21.2282C35.5879 21.2282 36.2744 20.5414 36.2744 19.6973C36.2744 18.8536 35.5879 18.1667 34.7438 18.1667ZM34.7438 20.0521C34.5484 20.0521 34.389 19.8931 34.389 19.6973C34.389 19.5018 34.5484 19.3428 34.7438 19.3428C34.9393 19.3428 35.0983 19.5018 35.0983 19.6973C35.0983 19.8931 34.9393 20.0521 34.7438 20.0521Z" fill="#00B341"/>
<path d="M15.4371 21.9485C13.9007 21.9485 12.6504 23.1985 12.6504 24.7353C12.6504 26.272 13.9007 27.522 15.4371 27.522C16.9739 27.522 18.2238 26.2717 18.2238 24.7353C18.2238 23.1985 16.9739 21.9485 15.4371 21.9485ZM15.4371 26.3462C14.549 26.3462 13.8265 25.6234 13.8265 24.7353C13.8265 23.8471 14.549 23.1247 15.4371 23.1247C16.3253 23.1247 17.048 23.8471 17.048 24.7353C17.048 25.6234 16.3253 26.3462 15.4371 26.3462Z" fill="#00B341"/>
<path d="M40.7304 28.7232L37.8981 17.031C37.4906 15.3493 36.6815 14.0675 35.4931 13.221C35.248 13.0463 34.9879 12.8922 34.7155 12.7593V12.5185C34.7155 11.2945 33.7207 10.2988 32.498 10.2988H31.1797C29.9555 10.2988 28.9598 11.2945 28.9598 12.5185V12.8582C28.4852 13.1168 28.1105 13.4321 27.8856 13.7804H22.2135C21.8888 13.7804 21.6253 14.0436 21.6253 14.3683C21.6253 14.6931 21.8888 14.9566 22.2135 14.9566H27.6703V16.1581C27.6703 16.822 27.1311 17.3622 26.4687 17.3622H15.3751C14.7115 17.3622 14.1713 16.822 14.1713 16.1581V14.9566H19.497C19.8217 14.9566 20.0849 14.6931 20.0849 14.3683C20.0849 14.0436 19.8217 13.7804 19.497 13.7804H13.956C13.7317 13.4327 13.3579 13.1177 12.884 12.8592V12.5185C12.884 11.2945 11.8883 10.2985 10.664 10.2985H9.34819C8.12394 10.2985 7.12824 11.2945 7.12824 12.5185V12.759C6.85649 12.8919 6.5973 13.0457 6.35251 13.2197C5.16319 14.0659 4.35346 15.3484 3.94568 17.031L1.1133 28.7229C0.696333 30.4432 0.763428 31.8984 1.31244 33.0485C1.80355 34.0767 2.65525 34.8025 3.77565 35.1469C6.17666 35.8852 8.9879 34.653 9.79181 32.5099L11.1524 28.8859C11.3273 28.4196 11.4661 28.3605 11.4676 28.3599C11.4836 28.3562 11.5902 28.37 11.7924 28.5177C13.6977 30.2477 16.8181 30.173 18.8729 28.3801H22.9706C23.9212 29.21 25.1292 29.7015 26.3982 29.7698C27.7836 29.8442 29.0789 29.3997 30.0511 28.5177C30.279 28.351 30.3743 28.359 30.3752 28.3599C30.3764 28.3605 30.5149 28.4193 30.6911 28.8856L32.0495 32.5099C32.6953 34.2293 34.6325 35.3622 36.6129 35.3619C37.1018 35.3619 37.5935 35.293 38.069 35.1466C39.1891 34.8019 40.0405 34.0761 40.5313 33.0476C41.0803 31.8978 41.1474 30.4429 40.7304 28.7232ZM31.1794 11.4747H32.4977C33.0084 11.4747 33.4337 11.8451 33.5219 12.3319C33.0339 12.2133 32.5213 12.1508 31.9916 12.149C31.9833 12.149 31.9754 12.149 31.9674 12.149C31.3304 12.149 30.7088 12.2366 30.1442 12.391C30.2076 11.8757 30.6472 11.4747 31.1794 11.4747ZM9.34819 11.4747H10.664C11.1965 11.4747 11.6361 11.8757 11.6993 12.3913C11.1349 12.2369 10.513 12.149 9.87606 12.149C9.86932 12.149 9.86258 12.149 9.85584 12.149C9.3249 12.1505 8.81112 12.213 8.32185 12.3319C8.41039 11.8451 8.83624 11.4747 9.34819 11.4747ZM37.7231 34.0225C36.0948 34.5237 33.793 33.8065 33.1509 32.0967L31.7918 28.4714C31.5277 27.7723 31.1714 27.3666 30.7027 27.2306C30.2732 27.1056 29.809 27.2281 29.3231 27.5936C29.3078 27.6053 29.2928 27.6178 29.2787 27.6307C27.7655 29.0222 25.2196 28.9037 23.6038 27.3663C23.4945 27.2622 23.3492 27.2043 23.1985 27.2043H18.6453C18.4945 27.2043 18.3493 27.2622 18.2399 27.3663C16.6229 28.9046 14.0773 29.0235 12.5654 27.631C12.551 27.6178 12.536 27.6053 12.5203 27.5936C12.0338 27.2275 11.5691 27.1056 11.1386 27.2309C10.6692 27.3675 10.3136 27.7738 10.0513 28.4726L8.69072 32.0967C8.04949 33.8065 5.74927 34.5237 4.12123 34.0231C2.29803 33.4621 1.6182 31.6316 2.25606 29.0002L5.08843 17.3082C5.60007 15.1971 6.73609 14.1814 7.86689 13.709C7.91438 13.6965 7.95972 13.6784 8.00169 13.6548C8.67632 13.3981 9.34022 13.3267 9.85921 13.3251C10.7373 13.3239 11.4946 13.5123 12.0476 13.7537C12.0571 13.758 12.0666 13.7626 12.0767 13.7666C12.5795 13.9906 12.907 14.2574 12.9949 14.4612V16.1581C12.9949 17.4703 14.0626 18.538 15.3748 18.538H26.4684C27.7793 18.538 28.8461 17.4703 28.8461 16.1581V14.4615C28.9331 14.2602 29.2536 13.997 29.745 13.7746C29.7738 13.7642 29.8017 13.7525 29.828 13.7381C30.3743 13.505 31.1117 13.3251 31.9659 13.3251H31.987C32.5054 13.327 33.1687 13.3987 33.8424 13.6554C33.8837 13.6784 33.9285 13.6962 33.9753 13.7087C35.1064 14.1808 36.2431 15.1964 36.7547 17.3079L39.5871 29.0002C40.2252 31.631 39.5457 33.4615 37.7231 34.0225Z" fill="#00B341"/>
<path d="M26.8668 21.9485C25.3301 21.9485 24.0801 23.1985 24.0801 24.7353C24.0801 26.272 25.3301 27.522 26.8668 27.522C28.4032 27.522 29.6535 26.2717 29.6535 24.7353C29.6535 23.1985 28.4032 21.9485 26.8668 21.9485ZM26.8668 26.3462C25.9786 26.3462 25.2562 25.6234 25.2562 24.7353C25.2562 23.8471 25.9786 23.1247 26.8668 23.1247C27.755 23.1247 28.4774 23.8471 28.4774 24.7353C28.4774 25.6234 27.755 26.3462 26.8668 26.3462Z" fill="#00B341"/>
<path d="M11.3737 18.1646H11.1947V17.9857C11.1947 16.9909 10.3853 16.1815 9.39054 16.1815C8.39576 16.1815 7.58633 16.9909 7.58633 17.9857V18.1646H7.40741C6.41264 18.1646 5.60352 18.974 5.60352 19.9688C5.60352 20.9636 6.41264 21.773 7.40741 21.773H7.58633V21.9519C7.58633 22.9467 8.39576 23.7561 9.39054 23.7561C10.3853 23.7561 11.1947 22.9467 11.1947 21.9519V21.773H11.3737C12.3684 21.773 13.1779 20.9636 13.1779 19.9688C13.1779 18.974 12.3684 18.1646 11.3737 18.1646ZM11.3737 20.5968H10.6068C10.2821 20.5968 10.0186 20.86 10.0186 21.1848V21.9519C10.0186 22.2981 9.73704 22.58 9.39054 22.58C9.04434 22.58 8.76279 22.2981 8.76279 21.9519V21.1848C8.76279 20.86 8.49931 20.5968 8.17456 20.5968H7.40772C7.06152 20.5968 6.77966 20.315 6.77966 19.9688C6.77966 19.6226 7.06152 19.3407 7.40772 19.3407H8.17456C8.49931 19.3407 8.76279 19.0773 8.76279 18.7525V17.9857C8.76279 17.6392 9.04434 17.3576 9.39054 17.3576C9.73704 17.3576 10.0186 17.6392 10.0186 17.9857V18.7525C10.0186 19.0773 10.2821 19.3407 10.6068 19.3407H11.3737C11.7199 19.3407 12.0017 19.6226 12.0017 19.9688C12.0017 20.315 11.7202 20.5968 11.3737 20.5968Z" fill="#00B341"/>
<path d="M19.3793 20.3411H18.5254C18.2007 20.3411 17.9375 20.6045 17.9375 20.9293C17.9375 21.254 18.2007 21.5172 18.5254 21.5172H19.3793C19.704 21.5172 19.9672 21.254 19.9672 20.9293C19.9672 20.6045 19.704 20.3411 19.3793 20.3411Z" fill="#00B341"/>
<path d="M23.3192 20.3411H22.4632C22.1385 20.3411 21.875 20.6045 21.875 20.9293C21.875 21.254 22.1385 21.5172 22.4632 21.5172H23.3192C23.644 21.5172 23.9071 21.254 23.9071 20.9293C23.9071 20.6045 23.644 20.3411 23.3192 20.3411Z" fill="#00B341"/>
<path d="M21.5746 23.4226H20.721C20.3963 23.4226 20.1328 23.6857 20.1328 24.0105C20.1328 24.3352 20.3963 24.5987 20.721 24.5987H21.5746C21.8996 24.5987 22.1628 24.3352 22.1628 24.0105C22.1628 23.6857 21.8996 23.4226 21.5746 23.4226Z" fill="#00B341"/>
</svg>
