<svg width="38" height="38" viewBox="0 0 38 38" fill="none" xmlns="http://www.w3.org/2000/svg">
<path d="M5.29817 30.8477C4.27594 30.8477 3.44727 31.6764 3.44727 32.6986C3.44727 33.7208 4.27594 34.5495 5.29817 34.5495C6.32039 34.5495 7.14907 33.7208 7.14907 32.6986C7.14907 31.6764 6.32039 30.8477 5.29817 30.8477ZM5.29817 33.3156C4.95742 33.3156 4.6812 33.0394 4.6812 32.6986C4.6812 32.3579 4.95742 32.0817 5.29817 32.0817C5.63891 32.0817 5.91513 32.3579 5.91513 32.6986C5.91513 33.0394 5.63891 33.3156 5.29817 33.3156Z" fill="#00B341"/>
<path d="M37.3654 30.2165C37.9841 29.5989 38.1694 28.6692 37.8347 27.8616C37.5 27.054 36.7114 26.5278 35.8372 26.5289H33.6778C33.1052 26.5298 32.556 26.7566 32.1496 27.1601L29.0789 30.2307H8.83626C8.66466 29.9861 8.46824 29.7599 8.25014 29.5557L9.17559 23.1819C9.2605 22.5915 9.12593 21.9904 8.79739 21.4926L11.2202 4.93506H14.9911C15.4772 5.3311 16.0842 5.54882 16.7112 5.55203C18.2446 5.55203 19.4876 4.30902 19.4876 2.77568C19.4876 1.24234 18.2446 -0.000671387 16.7112 -0.000671387C16.0832 0.00183201 15.475 0.219595 14.988 0.616296H8.07369C7.501 0.617015 6.95176 0.84385 6.54546 1.24745C6.00381 1.78876 5.79041 2.57701 5.98499 3.31764C6.17958 4.05827 6.75288 4.63983 7.49065 4.84499L5.13446 20.9614C4.67927 21.3461 4.37988 21.8835 4.2923 22.473L3.36685 28.8413C1.67656 29.6849 0.731539 31.5299 1.03466 33.3946C1.33779 35.2592 2.81857 36.7099 4.68905 36.9747C6.55952 37.2394 8.38475 36.2567 9.19348 34.5495H29.7909C30.4843 36.0093 31.9359 36.9587 33.5513 37.0087C35.1666 37.0588 36.6743 36.2011 37.4567 34.787C38.2391 33.3729 38.1648 31.6399 37.2642 30.298C37.2957 30.269 37.3346 30.2474 37.3654 30.2165ZM7.68932 20.5604C7.49774 20.4764 7.29621 20.4173 7.08963 20.3845C6.88276 20.358 6.67336 20.358 6.46649 20.3845L8.72459 4.93506H9.97024L7.68932 20.5604ZM16.7112 1.23326C17.5631 1.23326 18.2536 1.92383 18.2536 2.77568C18.2536 3.62753 17.5631 4.3181 16.7112 4.3181C15.8594 4.3181 15.1688 3.62753 15.1688 2.77568C15.1688 1.92383 15.8594 1.23326 16.7112 1.23326ZM7.14824 2.77568C7.14725 2.52993 7.24443 2.29397 7.4182 2.1202C7.59197 1.94643 7.82794 1.84924 8.07369 1.85023L14.1052 1.85022C13.9955 2.1466 13.9379 2.45969 13.9349 2.77568C13.9379 3.09167 13.9955 3.40476 14.1052 3.70113H8.07369C7.56258 3.70113 7.14824 3.28679 7.14824 2.77568ZM5.51327 22.6507C5.61073 21.9758 6.23679 21.5077 6.91163 21.6052C7.58647 21.7027 8.05453 22.3287 7.95708 23.0036L7.11554 28.7864C6.3558 28.4236 5.50401 28.2995 4.67235 28.4304L5.51327 22.6507ZM5.29734 35.7834C3.59363 35.7834 2.2125 34.4023 2.2125 32.6986C2.2125 30.9949 3.59363 29.6137 5.29734 29.6137C7.00104 29.6137 8.38217 30.9949 8.38217 32.6986C8.38013 34.4014 7.0002 35.7814 5.29734 35.7834ZM9.4341 31.4646H29.3344C29.498 31.4646 29.6549 31.3996 29.7706 31.2839L33.0226 28.0325C33.1969 27.8597 33.4324 27.7628 33.6778 27.7628H35.8372C36.2124 27.7617 36.5512 27.9872 36.6949 28.3337C36.8387 28.6803 36.7589 29.0794 36.493 29.3441C36.3947 29.4408 36.2766 29.5151 36.1469 29.5619C36.0477 29.5962 35.9434 29.6137 35.8384 29.6137H34.3195C34.1558 29.6138 33.9989 29.6788 33.8833 29.7945L30.6312 33.0459C30.4937 33.1817 30.3181 33.2723 30.1278 33.3057C30.079 33.3106 30.0254 33.3155 29.976 33.3155H9.56675C9.66337 32.6965 9.61802 32.0636 9.4341 31.4646ZM34.2948 32.6986C34.2948 33.0393 34.0186 33.3155 33.6778 33.3155C33.3371 33.3155 33.0608 33.0393 33.0608 32.6986C33.0608 32.3578 33.3371 32.0816 33.6778 32.0816C34.0186 32.0816 34.2948 32.3578 34.2948 32.6986ZM33.6778 35.7834C32.5894 35.7818 31.5827 35.2054 31.0304 34.2675C31.2037 34.1735 31.3632 34.056 31.5042 33.9183L31.9836 33.4389C32.3139 34.2005 33.111 34.649 33.9334 34.5362C34.7558 34.4233 35.4025 33.7766 35.5154 32.9541C35.6283 32.1317 35.1798 31.3347 34.4182 31.0044L34.5749 30.8477H35.8372C35.9277 30.8456 36.0179 30.838 36.1074 30.8248C36.5305 31.3579 36.7614 32.0181 36.7626 32.6986C36.7606 34.4014 35.3807 35.7814 33.6778 35.7834Z" fill="#00B341"/>
</svg>
