<svg width="22" height="21" viewBox="0 0 22 21" fill="none" xmlns="http://www.w3.org/2000/svg">
<path d="M20.4549 17.3364H1.90158C1.49167 17.3359 1.0987 17.1728 0.808856 16.883C0.51901 16.5932 0.35596 16.2002 0.355469 15.7903V4.65831H0.973912V15.7903C0.973912 16.0363 1.07165 16.2723 1.24562 16.4462C1.41959 16.6202 1.65554 16.7179 1.90158 16.7179H20.4549C20.7009 16.7179 20.9369 16.6202 21.1108 16.4462C21.2848 16.2723 21.3825 16.0363 21.3825 15.7903V2.18454C21.3825 1.9385 21.2848 1.70255 21.1108 1.52858C20.9369 1.35461 20.7009 1.25687 20.4549 1.25687H1.90158C1.65554 1.25687 1.41959 1.35461 1.24562 1.52858C1.07165 1.70255 0.973912 1.9385 0.973912 2.18454V3.42142H0.355469V2.18454C0.35596 1.77463 0.51901 1.38166 0.808856 1.09181C1.0987 0.801969 1.49167 0.638919 1.90158 0.638428H20.4549C20.8648 0.638919 21.2577 0.801969 21.5476 1.09181C21.8374 1.38166 22.0005 1.77463 22.001 2.18454V15.7903C22.0005 16.2002 21.8374 16.5932 21.5476 16.883C21.2577 17.1728 20.8648 17.3359 20.4549 17.3364Z" fill="#00B341"/>
<path d="M15.8163 20.4286H6.53969C6.45768 20.4286 6.37903 20.3961 6.32104 20.3381C6.26305 20.2801 6.23047 20.2014 6.23047 20.1194C6.23047 18.5733 7.85976 18.5733 8.39502 18.5733H13.961C14.4963 18.5733 16.1256 18.5733 16.1256 20.1194C16.1256 20.2014 16.093 20.2801 16.035 20.3381C15.977 20.3961 15.8983 20.4286 15.8163 20.4286ZM6.88633 19.8102H15.4697C15.3618 19.4295 14.9885 19.1917 13.961 19.1917H8.39502C7.36748 19.1917 6.99425 19.4295 6.88633 19.8102Z" fill="#00B341"/>
<path d="M13.6513 19.1917H8.70375C8.62174 19.1917 8.54309 19.1591 8.4851 19.1011C8.42711 19.0431 8.39453 18.9645 8.39453 18.8825V17.0271C8.39453 16.9451 8.42711 16.8665 8.4851 16.8085C8.54309 16.7505 8.62174 16.7179 8.70375 16.7179H13.6513C13.7333 16.7179 13.812 16.7505 13.8699 16.8085C13.9279 16.8665 13.9605 16.9451 13.9605 17.0271V18.8825C13.9605 18.9645 13.9279 19.0431 13.8699 19.1011C13.812 19.1591 13.7333 19.1917 13.6513 19.1917ZM9.01297 18.5733H13.3421V17.3364H9.01297V18.5733Z" fill="#00B341"/>
<path d="M0.664062 14.2442H21.6911V14.8626H0.664062V14.2442Z" fill="#00B341"/>
<path d="M9.94141 15.481H12.4152V16.0995H9.94141V15.481Z" fill="#00B341"/>
</svg>
