<svg width="22" height="16" viewBox="0 0 22 16" fill="none" xmlns="http://www.w3.org/2000/svg">
<path d="M21.6846 12.5312H20.5744V1.27047C20.5744 0.568345 20.0052 -0.000854492 19.303 -0.000854492H3.39395C2.69182 -0.000854492 2.12262 0.568345 2.12262 1.27047V12.5312H1.11177C0.937881 12.5312 0.796875 12.6722 0.796875 12.8461V13.5415C0.796875 14.5486 1.61334 15.3651 2.62051 15.3651H14.4842C14.658 15.3651 14.799 15.2241 14.799 15.0502C14.799 14.8763 14.658 14.7353 14.4842 14.7353H2.62051C1.96116 14.7353 1.42666 14.2008 1.42666 13.5415V13.161H2.43755H8.84815C8.85933 13.7705 9.3583 14.263 9.97053 14.263H12.8258C13.438 14.263 13.937 13.7705 13.9482 13.161H20.2596H21.3698V13.5415C21.3698 14.2008 20.8353 14.7353 20.1759 14.7353H15.9537C15.7798 14.7353 15.6388 14.8763 15.6388 15.0502C15.6388 15.2241 15.7798 15.3651 15.9537 15.3651H20.1759C21.183 15.3651 21.9995 14.5487 21.9995 13.5415V12.8461C21.9995 12.6721 21.8585 12.5312 21.6846 12.5312ZM12.8258 13.6332H9.97048C9.70558 13.6332 9.48875 13.4232 9.47786 13.1609H13.3184C13.3075 13.4232 13.0907 13.6332 12.8258 13.6332ZM19.9446 12.5312H2.75244V1.27047C2.75244 0.916697 3.04021 0.628929 3.39399 0.628929H19.303C19.6568 0.628929 19.9446 0.916697 19.9446 1.27047V12.5312Z" fill="#00B341"/>
<path d="M19.0825 1.17472H6.8836C6.70971 1.17472 6.5687 1.31573 6.5687 1.48962C6.5687 1.6635 6.70971 1.80451 6.8836 1.80451H18.7676V11.3555H3.92666V1.80447H5.41403C5.58792 1.80447 5.72892 1.66346 5.72892 1.48957C5.72892 1.31569 5.58792 1.17468 5.41403 1.17468H3.61177C3.43788 1.17468 3.29688 1.31569 3.29688 1.48957V11.6704C3.29688 11.8443 3.43788 11.9853 3.61177 11.9853H19.0825C19.2564 11.9853 19.3974 11.8443 19.3974 11.6704V1.48962C19.3974 1.31569 19.2564 1.17472 19.0825 1.17472Z" fill="#00B341"/>
</svg>
