<svg width="48" height="43" viewBox="0 0 48 43" fill="none" xmlns="http://www.w3.org/2000/svg">
<path d="M42.5172 28.409C42.7091 26.71 42.9181 23.7065 42.4984 20.676C42.4452 20.2905 42.0889 20.0208 41.7041 20.0749C41.3186 20.1281 41.0496 20.4838 41.103 20.8692C41.4938 23.6927 41.2958 26.5643 41.1385 28.053C40.6972 27.9795 40.2443 27.9405 39.7823 27.9405C38.6759 27.9405 37.6201 28.1608 36.6559 28.5589C37.3504 26.4631 37.7686 24.1005 37.8255 21.8616C37.904 18.7823 37.3157 15.9425 36.1171 13.5693H36.7068L37.2083 13.6696C38.6037 14.4077 39.6625 15.7601 40.357 17.6985C40.4882 18.065 40.8914 18.2554 41.2578 18.1242C41.624 17.993 41.8147 17.5897 41.6834 17.2233C41.2626 16.0486 40.7174 15.0535 40.0553 14.2391L40.3957 14.3071C40.8251 14.393 41.2383 14.0536 41.2383 13.6164V9.10777C41.2383 8.67025 40.825 8.33107 40.3957 8.41703L37.4812 8.99996V5.35044C37.4812 5.06245 37.3057 4.80343 37.0383 4.69636L33.6818 3.3538C33.4461 1.95658 32.2283 0.888794 30.7651 0.888794C29.1336 0.888794 27.8063 2.21608 27.8063 3.84757C27.8063 5.47907 29.1336 6.80635 30.7651 6.80635C32.0552 6.80635 33.1544 5.97602 33.5582 4.82189L36.072 5.82743V9.15455H29.2622C28.873 9.15455 28.5577 9.46982 28.5577 9.85897C28.5577 10.2481 28.8729 10.5635 29.2622 10.5635H33.8178V12.8647C33.8178 13.2512 34.1289 13.5645 34.5144 13.5688C37.7398 19.1021 36.2233 26.1694 34.7871 29.5271C34.767 29.5742 34.7526 29.6224 34.7432 29.6708C34.5305 29.8364 34.326 30.0121 34.1306 30.1974C34.1125 30.196 34.0944 30.1947 34.0759 30.1947H27.7062C28.3037 28.3501 28.724 26.1841 28.4047 24.1867C28.0393 21.9022 26.7942 20.1985 24.7066 19.1181V15.1191C24.7066 14.7299 24.3913 14.4146 24.0022 14.4146H15.7364C13.2763 14.4146 11.2748 16.4162 11.2748 18.8763V18.9256C11.2592 18.9246 11.2436 18.9233 11.2278 18.9233H11.1808V14.3207H11.9792C12.3683 14.3207 12.6836 14.0054 12.6836 13.6162V9.85906C12.6836 9.46991 12.3683 9.15464 11.9792 9.15464H0.707693C0.318545 9.15464 0.00317723 9.46991 0.00317723 9.85906V13.6162C0.00317723 14.0053 0.318451 14.3207 0.707693 14.3207H1.50605V18.9233H0.707693C0.318545 18.9233 0.00317723 19.2386 0.00317723 19.6278C0.00317723 20.0169 0.318451 20.3322 0.707693 20.3322H8.62967C8.08903 20.6047 7.57304 20.9014 7.08443 21.2217C-0.146257 25.9615 -0.0295408 33.0685 0.00889585 35.4039C0.0116145 35.5701 0.0162082 35.7368 0.0124583 35.903C0.00955209 36.0306 -0.00591631 36.1525 0.0292391 36.2782C0.113519 36.5786 0.395325 36.7926 0.707599 36.7926H2.28819C2.60853 40.1997 5.48387 42.8752 8.97345 42.8752C12.463 42.8752 15.3384 40.1997 15.6587 36.7926H24.0022C24.1881 36.7926 24.3664 36.7192 24.4982 36.5883C24.7 36.3881 25.1993 35.6456 25.7705 34.6094H31.7106C31.6144 35.1116 31.5634 35.6295 31.5634 36.1593C31.5634 36.5484 31.8787 36.8638 32.2679 36.8638H33.1035C33.4567 40.237 36.3171 42.8753 39.7822 42.8753C43.2473 42.8753 46.1076 40.2371 46.4609 36.8638H47.2965C47.6856 36.8638 48.001 36.5485 48.001 36.1593C48.0009 32.5859 45.7085 29.5384 42.5172 28.409ZM37.4808 10.4365L39.829 9.96687V12.7569L37.6707 12.3252C37.6077 12.2944 37.545 12.2631 37.4808 12.2342V10.4365ZM30.7649 5.39741C29.9103 5.39741 29.215 4.70218 29.215 3.84757C29.215 2.99297 29.9103 2.29773 30.7649 2.29773C31.6195 2.29773 32.3147 2.99297 32.3147 3.84757C32.3147 4.70218 31.6195 5.39741 30.7649 5.39741ZM36.0718 12.1603H35.2265V10.5635H35.2735H36.0718V12.1603ZM12.6835 18.8763C12.6835 17.193 14.0529 15.8236 15.7362 15.8236H23.2976V18.9233H12.6835V18.8763ZM1.41202 12.9118V10.5636H11.2746V12.9118H1.41202ZM2.91489 18.9233V14.3207H9.77171V18.9233H2.91489ZM8.97335 41.4663C6.26141 41.4663 4.01962 39.4212 3.70547 36.7926H5.3184C5.6199 38.5376 7.14358 39.8695 8.97335 39.8695C10.8031 39.8695 12.3268 38.5376 12.6283 36.7926H14.2411C13.9271 39.4212 11.6852 41.4663 8.97335 41.4663ZM6.76137 36.7925H11.1852C10.9094 37.7543 10.0226 38.4604 8.97326 38.4604C7.92394 38.4604 7.03718 37.7543 6.76137 36.7925ZM25.7431 31.4367C24.9427 33.3508 24.0328 34.8343 23.6549 35.3835H1.41774C1.41765 35.3826 1.41765 35.3816 1.41765 35.3807C1.37865 33.0105 1.27524 26.7143 7.85672 22.4C9.05763 21.6128 10.4446 20.9782 11.9792 20.514C12.097 20.4784 12.1986 20.4144 12.2788 20.3321H23.9901C25.6663 21.1772 26.6448 22.4488 26.9804 24.2196C27.4393 26.6415 26.5608 29.4812 25.7431 31.4367ZM32.1146 33.2004H26.4952C26.6534 32.8703 26.81 32.5268 26.961 32.1742C27.0392 31.9913 27.118 31.8005 27.1965 31.6036H32.9449C32.6127 32.1006 32.3334 32.6355 32.1146 33.2004ZM39.7821 41.4663C36.915 41.4663 34.5733 39.1806 34.4796 36.3358C35.1797 35.1086 35.9916 34.254 36.9779 33.7339C36.4141 34.3848 36.0718 35.2326 36.0718 36.1593C36.0718 38.2051 37.7362 39.8695 39.782 39.8695C41.8278 39.8695 43.4922 38.2051 43.4922 36.1593C43.4922 35.33 43.2185 34.5633 42.757 33.9449C43.7836 34.5782 44.5447 35.4791 45.0849 36.322C44.9984 39.173 42.6538 41.4663 39.7821 41.4663ZM37.4808 36.1592C37.4808 34.8902 38.513 33.858 39.782 33.858C41.051 33.858 42.0832 34.8902 42.0832 36.1592C42.0832 37.4282 41.051 38.4604 39.782 38.4604C38.513 38.4604 37.4808 37.4282 37.4808 36.1592ZM46.2021 35.4548C44.6062 33.0282 42.3395 31.6976 39.7821 31.6976C36.1301 31.6976 34.3683 33.7434 33.3606 35.4548H33.0084C33.3622 32.0296 36.2651 29.3493 39.7821 29.3493C43.2991 29.3493 46.2021 32.0296 46.5558 35.4548H46.2021Z" fill="#00B341"/>
</svg>
