<svg width="47" height="35" viewBox="0 0 47 35" fill="none" xmlns="http://www.w3.org/2000/svg">
<path d="M34.3461 5.79653L33.4478 0.856687C33.3831 0.499041 33.0717 0.239014 32.708 0.239014H14.656C14.2923 0.239014 13.9809 0.49904 13.9162 0.856907L13.0261 5.75257C12.9513 6.16079 13.2222 6.5527 13.6314 6.62696C14.042 6.70034 14.4319 6.43007 14.5055 6.0213L15.2841 1.74331H32.08L32.8665 6.06548C32.932 6.42864 33.2487 6.68315 33.6055 6.68315C33.6505 6.68315 33.6952 6.67897 33.7407 6.67092C34.1499 6.59677 34.421 6.20497 34.3461 5.79653Z" fill="#00B341"/>
<path d="M43.2335 5.50409H4.1311C2.05464 5.50409 0.365234 7.18952 0.365234 9.26092V31.0817C0.365234 33.1532 2.05464 34.8386 4.1311 34.8386H43.2337C45.3103 34.8386 46.9996 33.1532 46.9996 31.0819V9.26092C46.9996 7.18952 45.3103 5.50409 43.2335 5.50409ZM45.495 31.0817C45.495 32.3238 44.4807 33.3342 43.2335 33.3342H4.1311C2.88397 33.3342 1.86953 32.3238 1.86953 31.0819V9.26092C1.86953 8.01874 2.88397 7.00839 4.1311 7.00839H43.2337C44.4808 7.00839 45.4953 8.01874 45.495 9.26092V31.0817Z" fill="#00B341"/>
<path d="M23.6831 8.51276C17.0473 8.51276 11.6484 13.9116 11.6484 20.5475C11.6484 27.1833 17.0473 32.5822 23.6831 32.5822C30.319 32.5822 35.7179 27.1833 35.7179 20.5475C35.7179 13.9116 30.3189 8.51276 23.6831 8.51276ZM23.6831 31.0778C17.8766 31.0778 13.1528 26.354 13.1528 20.5475C13.1528 14.7409 17.8766 10.0172 23.6831 10.0172C29.4897 10.0172 34.2135 14.7409 34.2135 20.5475C34.2135 26.3539 29.4897 31.0778 23.6831 31.0778Z" fill="#00B341"/>
<path d="M23.6823 11.5214C18.705 11.5214 14.6562 15.5705 14.6562 20.5474C14.6562 25.5242 18.705 29.5734 23.6823 29.5734C28.6596 29.5734 32.7083 25.5242 32.7083 20.5474C32.7083 15.5705 28.6594 11.5214 23.6823 11.5214ZM23.6823 28.0691C19.5349 28.0691 16.1605 24.695 16.1605 20.5474C16.1605 16.3997 19.5349 13.0257 23.6823 13.0257C27.8296 13.0257 31.204 16.3997 31.204 20.5474C31.2039 24.695 27.8295 28.0691 23.6823 28.0691Z" fill="#00B341"/>
<path d="M23.6833 14.5302C20.3653 14.5302 17.666 17.2295 17.666 20.5475C17.666 20.9628 18.0024 21.2997 18.4182 21.2997C18.834 21.2997 19.1704 20.9628 19.1704 20.5475C19.1704 18.0589 21.1949 16.0344 23.6834 16.0344C24.0991 16.0344 24.4356 15.6976 24.4356 15.2822C24.4356 14.8669 24.099 14.5302 23.6833 14.5302Z" fill="#00B341"/>
<path d="M10.8962 2.49542H5.63111C5.2154 2.49542 4.87891 2.83224 4.87891 3.24763V6.25633C4.87891 6.67171 5.21529 7.00853 5.63111 7.00853H10.8963C11.312 7.00853 11.6485 6.67171 11.6485 6.25633V3.24763C11.6484 2.83224 11.312 2.49542 10.8962 2.49542ZM10.1441 5.50413H6.3832V3.99983H10.144V5.50413H10.1441Z" fill="#00B341"/>
<path d="M40.9814 7.76062C39.322 7.76062 37.9727 9.11033 37.9727 10.7693C37.9727 12.4283 39.322 13.778 40.9814 13.778C42.6407 13.778 43.9901 12.4283 43.9901 10.7693C43.9901 9.11033 42.6407 7.76062 40.9814 7.76062ZM40.9814 12.2736C40.1521 12.2736 39.4771 11.599 39.4771 10.7693C39.4771 9.93966 40.1521 9.26503 40.9814 9.26503C41.8106 9.26503 42.4857 9.93977 42.4857 10.7693C42.4857 11.5989 41.8106 12.2736 40.9814 12.2736Z" fill="#00B341"/>
</svg>
