<svg width="26" height="19" viewBox="0 0 26 19" fill="none" xmlns="http://www.w3.org/2000/svg">
<path d="M24.6345 15.2563H23.3393V2.11883C23.3393 1.29968 22.6752 0.63562 21.856 0.63562H3.29553C2.47638 0.63562 1.81232 1.29968 1.81232 2.11883V15.2563H0.632997C0.430131 15.2563 0.265625 15.4208 0.265625 15.6236V16.435C0.265625 17.6099 1.21817 18.5625 2.39319 18.5625H16.2341C16.4369 18.5625 16.6014 18.398 16.6014 18.1951C16.6014 17.9923 16.4369 17.8278 16.2341 17.8278H2.39319C1.62395 17.8277 1.00037 17.2042 1.00037 16.435V15.991H2.17974H9.65874C9.67179 16.7021 10.2539 17.2768 10.9682 17.2768H14.2994C15.0136 17.2768 15.5957 16.7021 15.6088 15.991H22.972H24.2673V16.435C24.2673 17.2042 23.6437 17.8278 22.8744 17.8278H17.9485C17.7457 17.8278 17.5812 17.9923 17.5812 18.1951C17.5812 18.398 17.7457 18.5625 17.9485 18.5625H22.8744C24.0494 18.5625 25.002 17.61 25.002 16.435V15.6236C25.0019 15.4207 24.8374 15.2563 24.6345 15.2563ZM14.2993 16.542H10.9681C10.6591 16.542 10.4061 16.297 10.3934 15.991H14.874C14.8613 16.2969 14.6084 16.542 14.2993 16.542ZM22.6045 15.2563H2.54711V2.11883C2.54711 1.70609 2.88284 1.37036 3.29558 1.37036H21.856C22.2688 1.37036 22.6045 1.70609 22.6045 2.11883V15.2563Z" fill="#00B341"/>
<path d="M21.6001 2.00711H7.36808C7.16522 2.00711 7.00071 2.17162 7.00071 2.37449C7.00071 2.57735 7.16522 2.74186 7.36808 2.74186H21.2327V13.8847H3.91834V2.74181H5.6536C5.85646 2.74181 6.02097 2.5773 6.02097 2.37444C6.02097 2.17157 5.85646 2.00706 5.6536 2.00706H3.55097C3.3481 2.00706 3.18359 2.17157 3.18359 2.37444V14.252C3.18359 14.4549 3.3481 14.6194 3.55097 14.6194H21.6001C21.803 14.6194 21.9675 14.4549 21.9675 14.252V2.37449C21.9675 2.17157 21.803 2.00711 21.6001 2.00711Z" fill="#00B341"/>
</svg>
