<svg width="21" height="45" viewBox="0 0 21 45" fill="none" xmlns="http://www.w3.org/2000/svg">
<path d="M16.5641 31.3245V29.6982C17.4433 29.4567 18.0827 28.6982 18.172 27.7909L20.2603 6.94427C20.2603 6.9317 20.2559 6.91988 20.2603 6.90805C20.2648 6.89622 20.2603 6.88365 20.2603 6.87035C20.2579 4.83004 18.6044 3.17654 16.5641 3.17413H14.3464V2.43489C14.3464 1.21006 13.3535 0.217163 12.1287 0.217163H9.17169C7.94686 0.217163 6.95396 1.21006 6.95396 2.43489V3.17413H4.73624C2.69593 3.17654 1.04243 4.83004 1.04002 6.87035C1.04002 6.88365 1.04668 6.89474 1.04742 6.90805C1.04816 6.92135 1.04224 6.9317 1.04372 6.94427L3.12838 27.7909C3.21857 28.6974 3.85774 29.4548 4.73624 29.6959V31.3223C2.19269 31.6913 0.30457 33.8699 0.300781 36.4401V42.354C0.300781 43.5788 1.29368 44.5717 2.51851 44.5717H18.7818C20.0067 44.5717 20.9996 43.5788 20.9996 42.354V36.4401C20.9947 33.8707 19.1068 31.6935 16.5641 31.3245ZM8.43245 2.43489C8.43245 2.02664 8.76345 1.69565 9.17169 1.69565H12.1287C12.5369 1.69565 12.8679 2.02664 12.8679 2.43489V3.17413H8.43245V2.43489ZM4.73624 4.65262H16.5641C17.5037 4.65373 18.341 5.24568 18.6554 6.1311H2.64492C2.95937 5.24568 3.79666 4.65373 4.73624 4.65262ZM2.59613 7.60959H18.7079L17.8267 16.3829C16.0219 18.1108 13.1581 18.0485 11.4302 16.2437C11.3569 16.1672 11.2864 16.0881 11.2187 16.0066C9.26678 13.6651 5.87144 13.1549 3.31763 14.8194L2.59613 7.60959ZM4.59948 27.6431L3.49061 16.5626C5.30287 14.8442 8.16503 14.9203 9.88331 16.7326C9.95132 16.8043 10.017 16.8783 10.0801 16.9544C11.1626 18.2504 12.7393 19.0327 14.4261 19.1107C14.5171 19.1107 14.6065 19.1166 14.6974 19.1166C15.724 19.1145 16.7329 18.8501 17.6285 18.3486L16.7009 27.6431C16.6628 28.0222 16.3427 28.3103 15.9616 28.3084H5.33502C4.95533 28.3084 4.63746 28.0208 4.59948 27.6431ZM15.0856 29.7869V31.2654H6.21472V29.7869H15.0856ZM19.5211 42.354C19.5211 42.7622 19.1901 43.0932 18.7818 43.0932H2.51851C2.11026 43.0932 1.77927 42.7622 1.77927 42.354V36.4401C1.78167 34.3997 3.43517 32.7462 5.47548 32.7438H15.8249C17.8652 32.7462 19.5187 34.3997 19.5211 36.4401V42.354Z" fill="#00B341"/>
<path d="M10.6493 34.2223C8.60801 34.2223 6.95312 35.8772 6.95312 37.9185C6.95553 39.9588 8.60903 41.6123 10.6493 41.6147C12.6907 41.6147 14.3456 39.9598 14.3456 37.9185C14.3456 35.8772 12.6907 34.2223 10.6493 34.2223ZM10.6493 40.1362C9.42451 40.1362 8.43161 39.1433 8.43161 37.9185C8.43161 36.6937 9.42451 35.7008 10.6493 35.7008C11.8742 35.7008 12.8671 36.6937 12.8671 37.9185C12.8671 39.1433 11.8742 40.1362 10.6493 40.1362Z" fill="#00B341"/>
<path d="M10.6494 36.44C10.2412 36.44 9.91016 36.771 9.91016 37.1793V37.9185C9.91016 38.3268 10.2412 38.6578 10.6494 38.6578C11.0576 38.6578 11.3886 38.3268 11.3886 37.9185V37.1793C11.3886 36.771 11.0576 36.44 10.6494 36.44Z" fill="#00B341"/>
<path d="M7.63441 19.8885C7.59708 19.7988 7.54459 19.7163 7.47917 19.6445C7.18301 19.3702 6.7256 19.3702 6.42944 19.6445C6.36402 19.7163 6.31153 19.7988 6.2742 19.8885C6.2328 19.9761 6.21248 20.0724 6.21506 20.1694C6.21377 20.2652 6.23105 20.3604 6.26607 20.4495C6.3095 20.538 6.36439 20.6202 6.42944 20.6942C6.50134 20.7593 6.58385 20.8115 6.67339 20.8487C6.8522 20.9286 7.05641 20.9286 7.23522 20.8487C7.32467 20.8113 7.40709 20.7591 7.47917 20.6942C7.69078 20.4826 7.75223 20.1635 7.63441 19.8885Z" fill="#00B341"/>
<path d="M14.8717 21.8622C14.8348 21.8326 14.7978 21.7957 14.7608 21.7728C14.7197 21.7449 14.6749 21.7227 14.6278 21.707C14.5859 21.6855 14.541 21.6703 14.4947 21.6619C14.2511 21.6125 13.999 21.6877 13.822 21.8622C13.6866 22.0037 13.61 22.1913 13.6076 22.3871C13.6051 22.4838 13.6255 22.5797 13.6668 22.6672C13.7043 22.7571 13.7568 22.8398 13.822 22.9119C13.8939 22.977 13.9764 23.0292 14.066 23.0664C14.3408 23.1854 14.6604 23.1241 14.8717 22.9119C14.937 22.8398 14.9895 22.7571 15.027 22.6672C15.068 22.5796 15.0882 22.4837 15.0861 22.3871C15.0834 22.1914 15.0068 22.0039 14.8717 21.8622Z" fill="#00B341"/>
<path d="M9.85119 25.063C9.81386 24.9734 9.76137 24.8909 9.69595 24.8191C9.39979 24.5448 8.94239 24.5448 8.64623 24.8191C8.5808 24.8909 8.52832 24.9734 8.49098 25.063C8.4531 25.1519 8.43305 25.2474 8.43185 25.344C8.42935 25.4407 8.44968 25.5366 8.49098 25.6241C8.5285 25.714 8.58099 25.7967 8.64623 25.8688C8.93555 26.1569 9.40358 26.1558 9.6917 25.8666C9.90192 25.6554 9.96485 25.3386 9.85119 25.063Z" fill="#00B341"/>
</svg>
