<svg width="32" height="48" viewBox="0 0 32 48" fill="none" xmlns="http://www.w3.org/2000/svg">
<path d="M16.2884 21.2724C19.7594 21.2724 22.573 18.4585 22.573 14.9875C22.573 11.5169 19.7594 8.703 16.2884 8.703C12.8175 8.703 10.0039 11.5169 10.0039 14.9875C10.0079 18.457 12.8193 21.2685 16.2884 21.2724ZM16.2884 10.2741C18.8916 10.2741 21.0018 12.3843 21.0018 14.9875C21.0018 17.5907 18.8916 19.7013 16.2884 19.7013C13.6852 19.7013 11.575 17.5907 11.575 14.9875C11.5779 12.3858 13.6863 10.277 16.2884 10.2741Z" fill="#00B341"/>
<path d="M16.2867 15.7732C16.5496 15.7736 16.7952 15.6423 16.9412 15.4233L18.5123 13.0668C18.6709 12.8331 18.6921 12.5324 18.5677 12.2789C18.4436 12.0254 18.1926 11.8582 17.9107 11.8409C17.6288 11.8236 17.3594 11.9588 17.2051 12.1951L15.634 14.552C15.4733 14.7929 15.4582 15.1025 15.5948 15.3579C15.7311 15.6132 15.9972 15.7729 16.2867 15.7732Z" fill="#00B341"/>
<path d="M20.2159 47.982H23.3581C24.2255 47.9809 24.9285 47.2782 24.9293 46.4109V44.3165C26.6522 44.1133 28.3732 43.8699 30.0889 43.5455C31.2001 43.3312 32.0021 42.3577 31.9995 41.226V4.46103C32.0021 3.32934 31.2001 2.35588 30.0893 2.14191C28.4229 1.82617 26.7518 1.58847 25.0785 1.38781C25.03 1.37271 24.98 1.36264 24.9293 1.35796C24.9152 1.35796 24.9037 1.36515 24.8901 1.36587C19.1748 0.694123 13.4002 0.694123 7.68493 1.36587C7.67163 1.36479 7.66012 1.35796 7.64645 1.35796C7.59683 1.36264 7.54792 1.37271 7.50045 1.38745C5.82611 1.58811 4.15393 1.82581 2.48678 2.14155C1.37559 2.35552 0.57366 3.32934 0.576178 4.46103V41.226C0.57366 42.3574 1.37559 43.3308 2.48642 43.5451C4.20212 43.8699 5.92356 44.1133 7.64645 44.3161V46.4109C7.64753 47.2782 8.35021 47.9809 9.21758 47.982H12.3598C13.2272 47.9809 13.9303 47.2782 13.931 46.4109V44.7894C14.7167 44.8146 15.5025 44.8444 16.2879 44.8444C17.0736 44.8444 17.859 44.8142 18.6447 44.7894V46.4109C18.6455 47.2782 19.3485 47.9809 20.2159 47.982ZM23.3581 46.4109H20.2159V44.7308C21.2638 44.6747 22.3113 44.6024 23.3581 44.5017V46.4109ZM16.2879 2.41305C18.9126 2.41917 21.5353 2.56805 24.1435 2.85933V14.9875C24.1435 19.3262 20.6265 22.8435 16.2879 22.8435C11.9492 22.8435 8.4322 19.3262 8.4322 14.9875V2.85933C11.0408 2.56805 13.6631 2.41917 16.2879 2.41305ZM12.3598 46.4109H9.21758V44.5017C10.2644 44.6024 11.3119 44.6747 12.3598 44.7308V46.4109ZM13.1553 43.1999L13.1456 43.1978L13.1377 43.1992C9.66026 43.0482 6.19831 42.6479 2.77842 42.0017C2.40911 41.928 2.14443 41.6025 2.14731 41.226V4.46103C2.14443 4.08416 2.40947 3.75871 2.77878 3.68535C4.13667 3.42859 5.49815 3.22361 6.86107 3.04453V14.9875C6.86107 20.1939 11.0814 24.4147 16.2879 24.4147C21.4943 24.4147 25.7147 20.1939 25.7147 14.9875V3.04417C27.0776 3.22361 28.4394 3.42823 29.7973 3.68499C30.1666 3.75871 30.4316 4.08416 30.4284 4.46103V41.226C30.4313 41.6025 30.1666 41.928 29.7973 42.0017H29.7969C26.3771 42.6479 22.9151 43.0482 19.438 43.1996L19.4301 43.1978L19.4204 43.1996C17.3325 43.2905 15.2443 43.2905 13.1553 43.1999Z" fill="#00B341"/>
<path d="M21.7873 31.4849V28.3423C21.7863 27.4749 21.0836 26.7722 20.2162 26.7711H12.3602C11.4928 26.7722 10.7901 27.4749 10.7891 28.3423V31.4849C10.7901 32.3523 11.4928 33.0549 12.3602 33.056H20.2162C21.0836 33.0549 21.7863 32.3523 21.7873 31.4849ZM12.3602 28.3423H20.2162L20.2173 31.4849H12.3602V28.3423Z" fill="#00B341"/>
<path d="M4.50414 25.2C4.07045 25.2 3.71875 25.5517 3.71875 25.9858V26.7711C3.71875 27.2052 4.07045 27.5569 4.50414 27.5569C4.93818 27.5569 5.28988 27.2052 5.28988 26.7711V25.9858C5.28988 25.5517 4.93818 25.2 4.50414 25.2Z" fill="#00B341"/>
<path d="M4.50414 29.128C4.07045 29.128 3.71875 29.4797 3.71875 29.9137V39.3405C3.71875 39.7742 4.07045 40.1259 4.50414 40.1259C4.93818 40.1259 5.28988 39.7742 5.28988 39.3405V29.9137C5.28988 29.4797 4.93818 29.128 4.50414 29.128Z" fill="#00B341"/>
<path d="M11.5756 34.6272H10.0045C9.57045 34.6272 9.21875 34.9789 9.21875 35.4126C9.21875 35.8466 9.57045 36.1983 10.0045 36.1983H11.5756C12.0093 36.1983 12.361 35.8466 12.361 35.4126C12.361 34.9789 12.0093 34.6272 11.5756 34.6272Z" fill="#00B341"/>
<path d="M11.5756 37.7695H10.0045C9.57045 37.7695 9.21875 38.1212 9.21875 38.5549C9.21875 38.989 9.57045 39.3407 10.0045 39.3407H11.5756C12.0093 39.3407 12.361 38.989 12.361 38.5549C12.361 38.1212 12.0093 37.7695 11.5756 37.7695Z" fill="#00B341"/>
<path d="M20.2148 35.4126C20.2148 35.8466 20.5665 36.1983 21.0002 36.1983H22.5714C23.0054 36.1983 23.3571 35.8466 23.3571 35.4126C23.3571 34.9789 23.0054 34.6272 22.5714 34.6272H21.0002C20.5665 34.6272 20.2148 34.9789 20.2148 35.4126Z" fill="#00B341"/>
<path d="M22.5714 37.7695H21.0002C20.5665 37.7695 20.2148 38.1212 20.2148 38.5549C20.2148 38.989 20.5665 39.3407 21.0002 39.3407H22.5714C23.0054 39.3407 23.3571 38.989 23.3571 38.5549C23.3571 38.1212 23.0054 37.7695 22.5714 37.7695Z" fill="#00B341"/>
</svg>
