<svg width="15" height="15" viewBox="0 0 15 15" fill="none" xmlns="http://www.w3.org/2000/svg">
<path d="M9.76634 2.13037C7.59237 -0.0434552 4.05408 -0.0434552 1.88012 2.13037C-0.293373 4.30466 -0.293373 7.84224 1.88012 10.0165C3.81609 11.9519 6.83127 12.1593 9.00382 10.648C9.04954 10.8643 9.15416 11.0707 9.3224 11.2389L12.4884 14.4047C12.9498 14.8651 13.6953 14.8651 14.1543 14.4047C14.6152 13.9438 14.6152 13.1983 14.1543 12.7389L10.9883 9.57216C10.821 9.40534 10.6142 9.30025 10.3978 9.25454C11.9101 7.08166 11.7028 4.06715 9.76634 2.13037ZM8.76678 9.01704C7.14373 10.64 4.50226 10.64 2.87968 9.01704C1.25757 7.39409 1.25757 4.75328 2.87968 3.13033C4.50226 1.50786 7.14373 1.50786 8.76678 3.13033C10.3898 4.75328 10.3898 7.39409 8.76678 9.01704Z" fill="white"/>
</svg>
