<svg width="14" height="18" viewBox="0 0 14 18" fill="none" xmlns="http://www.w3.org/2000/svg">
<path d="M6.63352 8.53057C8.57283 8.53057 10.1451 6.62095 10.1451 4.26531C10.1451 1.90961 9.6289 0 6.63352 0C3.63813 0 3.12183 1.90961 3.12183 4.26531C3.12183 6.62095 4.6941 8.53057 6.63352 8.53057Z" fill="white"/>
<path d="M0.000690547 15.0431C9.25157e-05 14.8994 -0.000505515 15.0026 0.000690547 15.0431V15.0431Z" fill="white"/>
<path d="M13.2654 15.1554C13.2673 15.116 13.266 14.8826 13.2654 15.1554V15.1554Z" fill="white"/>
<path d="M13.2584 14.8708C13.1934 10.7673 12.6575 9.59795 8.55632 8.85779C8.55632 8.85779 7.97902 9.59342 6.63345 9.59342C5.28788 9.59342 4.71048 8.85779 4.71048 8.85779C0.654081 9.58988 0.0855532 10.7418 0.0107993 14.7375C0.00466944 15.0638 0.00182881 15.081 0.000732422 15.0431C0.000981602 15.114 0.00128051 15.2453 0.00128051 15.4742C0.00128051 15.4742 0.977666 17.4425 6.63345 17.4425C12.2891 17.4425 13.2656 15.4742 13.2656 15.4742C13.2656 15.3271 13.2657 15.2249 13.2659 15.1553C13.2648 15.1787 13.2626 15.1333 13.2584 14.8708Z" fill="white"/>
</svg>
