<svg width="19" height="19" viewBox="0 0 19 19" fill="none" xmlns="http://www.w3.org/2000/svg">
<path d="M13.2384 4.61628C13.2733 4.6163 13.3079 4.60944 13.3402 4.59609C13.3724 4.58274 13.4017 4.56317 13.4264 4.53848C13.4511 4.5138 13.4707 4.48449 13.484 4.45224C13.4974 4.41999 13.5042 4.38542 13.5042 4.35051V2.79387C13.5042 2.72339 13.4762 2.65579 13.4263 2.60595C13.3765 2.55611 13.3089 2.52811 13.2384 2.52811C13.1679 2.52811 13.1003 2.55611 13.0505 2.60595C13.0007 2.65579 12.9727 2.72339 12.9727 2.79387V4.35051C12.9726 4.38542 12.9795 4.41999 12.9928 4.45224C13.0062 4.48449 13.0258 4.5138 13.0505 4.53848C13.0751 4.56317 13.1044 4.58274 13.1367 4.59609C13.1689 4.60944 13.2035 4.6163 13.2384 4.61628Z" fill="#00B341"/>
<path d="M17.8226 6.70875H16.3124V3.0092C16.3124 2.93869 16.2843 2.87109 16.2345 2.82124C16.1846 2.77138 16.117 2.74336 16.0465 2.74332H14.4163V1.26198C14.4163 1.19146 14.3883 1.12383 14.3384 1.07397C14.2885 1.02411 14.2209 0.996094 14.1504 0.996094H5.84578C5.77526 0.996094 5.70763 1.02411 5.65777 1.07397C5.60791 1.12383 5.57989 1.19146 5.57989 1.26198V2.74332H3.94966C3.87916 2.74336 3.81155 2.77138 3.7617 2.82124C3.71184 2.87109 3.68382 2.93869 3.68378 3.0092V6.70875H2.17357C1.86139 6.70911 1.56211 6.83329 1.34137 7.05403C1.12063 7.27477 0.996456 7.57405 0.996094 7.88623V15.1349C0.996456 15.4471 1.12063 15.7464 1.34137 15.9671C1.56211 16.1879 1.86139 16.312 2.17357 16.3124H5.57944V18.7342C5.57944 18.8047 5.60745 18.8723 5.65731 18.9222C5.70718 18.9721 5.7748 19.0001 5.84532 19.0001H14.1509C14.2214 19.0001 14.289 18.9721 14.3389 18.9222C14.3887 18.8723 14.4167 18.8047 14.4167 18.7342V16.3124H17.8226C18.1348 16.312 18.4341 16.1879 18.6548 15.9671C18.8756 15.7464 18.9997 15.4471 19.0001 15.1349V7.88623C18.9997 7.57405 18.8756 7.27477 18.6548 7.05403C18.4341 6.83329 18.1348 6.70911 17.8226 6.70875ZM15.7806 3.27508V6.70875H14.4163V3.27508H15.7806ZM6.11166 1.52786H13.8845V6.70875H6.11166V1.52786ZM4.21554 3.27508H5.57989V6.70875H4.21554V3.27508ZM4.21554 15.7806V13.0747H5.57944V15.7806H4.21554ZM6.1112 18.4683V13.0747H13.885C13.885 13.0747 13.885 16.045 13.885 16.0465C13.885 16.048 13.885 18.4683 13.885 18.4683H6.1112ZM14.4167 15.7806V13.0747H15.7806V15.7806H14.4167ZM18.4683 15.1349C18.4681 15.3061 18.4 15.4702 18.279 15.5913C18.1579 15.7123 17.9938 15.7804 17.8226 15.7806H16.3124V12.8088C16.3124 12.7383 16.2843 12.6707 16.2345 12.6209C16.1846 12.571 16.117 12.543 16.0465 12.543H3.94966C3.87916 12.543 3.81155 12.571 3.7617 12.6209C3.71184 12.6707 3.68382 12.7383 3.68378 12.8088V15.7806H2.17357C2.00238 15.7804 1.83826 15.7123 1.7172 15.5913C1.59615 15.4702 1.52806 15.3061 1.52786 15.1349V7.88623C1.52806 7.71504 1.59615 7.55091 1.7172 7.42986C1.83826 7.30881 2.00238 7.24072 2.17357 7.24052H17.8226C17.9938 7.24072 18.1579 7.30881 18.279 7.42986C18.4 7.55091 18.4681 7.71504 18.4683 7.88623V15.1349Z" fill="#00B341"/>
<path d="M6.4021 8.53134H2.62916C2.55865 8.53134 2.49102 8.55935 2.44116 8.60922C2.39129 8.65908 2.36328 8.72671 2.36328 8.79722C2.36328 8.86774 2.39129 8.93537 2.44116 8.98523C2.49102 9.03509 2.55865 9.0631 2.62916 9.0631H6.4021C6.47262 9.0631 6.54025 9.03509 6.59011 8.98523C6.63997 8.93537 6.66798 8.86774 6.66798 8.79722C6.66798 8.72671 6.63997 8.65908 6.59011 8.60922C6.54025 8.55935 6.47262 8.53134 6.4021 8.53134Z" fill="#00B341"/>
<path d="M12.277 13.8344H7.71901C7.64849 13.8344 7.58086 13.8624 7.531 13.9122C7.48114 13.9621 7.45312 14.0297 7.45312 14.1002C7.45312 14.1707 7.48114 14.2384 7.531 14.2882C7.58086 14.3381 7.64849 14.3661 7.71901 14.3661H12.277C12.3475 14.3661 12.4151 14.3381 12.465 14.2882C12.5148 14.2384 12.5429 14.1707 12.5429 14.1002C12.5429 14.0297 12.5148 13.9621 12.465 13.9122C12.4151 13.8624 12.3475 13.8344 12.277 13.8344Z" fill="#00B341"/>
<path d="M12.277 15.2017H7.71901C7.64849 15.2017 7.58086 15.2297 7.531 15.2796C7.48114 15.3295 7.45312 15.3971 7.45312 15.4676C7.45312 15.5381 7.48114 15.6057 7.531 15.6556C7.58086 15.7055 7.64849 15.7335 7.71901 15.7335H12.277C12.3475 15.7335 12.4151 15.7055 12.465 15.6556C12.5148 15.6057 12.5429 15.5381 12.5429 15.4676C12.5429 15.3971 12.5148 15.3295 12.465 15.2796C12.4151 15.2297 12.3475 15.2017 12.277 15.2017Z" fill="#00B341"/>
<path d="M12.277 16.5692H7.71901C7.64849 16.5692 7.58086 16.5972 7.531 16.6471C7.48114 16.697 7.45312 16.7646 7.45312 16.8351C7.45312 16.9056 7.48114 16.9732 7.531 17.0231C7.58086 17.073 7.64849 17.101 7.71901 17.101H12.277C12.3475 17.101 12.4151 17.073 12.465 17.0231C12.5148 16.9732 12.5429 16.9056 12.5429 16.8351C12.5429 16.7646 12.5148 16.697 12.465 16.6471C12.4151 16.5972 12.3475 16.5692 12.277 16.5692Z" fill="#00B341"/>
<path d="M16.9089 8.07556C16.7662 8.07556 16.6267 8.11787 16.5081 8.19713C16.3895 8.2764 16.297 8.38906 16.2424 8.52087C16.1878 8.65269 16.1735 8.79773 16.2014 8.93766C16.2292 9.07759 16.2979 9.20613 16.3988 9.30702C16.4997 9.4079 16.6282 9.4766 16.7681 9.50444C16.9081 9.53227 17.0531 9.51799 17.1849 9.46339C17.3167 9.40879 17.4294 9.31633 17.5087 9.1977C17.5879 9.07907 17.6302 8.9396 17.6302 8.79693C17.63 8.60569 17.5539 8.42234 17.4187 8.28711C17.2835 8.15188 17.1001 8.0758 16.9089 8.07556ZM16.9089 8.98676C16.8713 8.98676 16.8346 8.97563 16.8034 8.95477C16.7722 8.93391 16.7479 8.90426 16.7335 8.86958C16.7191 8.83489 16.7154 8.79672 16.7227 8.7599C16.73 8.72307 16.7481 8.68925 16.7746 8.6627C16.8012 8.63615 16.835 8.61807 16.8718 8.61074C16.9087 8.60342 16.9468 8.60718 16.9815 8.62155C17.0162 8.63591 17.0459 8.66025 17.0667 8.69146C17.0876 8.72268 17.0987 8.75938 17.0987 8.79693C17.0987 8.84727 17.0786 8.89553 17.0431 8.93112C17.0075 8.96671 16.9592 8.98672 16.9089 8.98676Z" fill="#00B341"/>
<path d="M15.1081 8.07556C14.9654 8.07556 14.8259 8.11787 14.7073 8.19713C14.5887 8.2764 14.4962 8.38906 14.4416 8.52087C14.387 8.65269 14.3727 8.79773 14.4006 8.93766C14.4284 9.07759 14.4971 9.20613 14.598 9.30702C14.6989 9.4079 14.8274 9.4766 14.9674 9.50444C15.1073 9.53227 15.2523 9.51799 15.3841 9.46339C15.516 9.40879 15.6286 9.31633 15.7079 9.1977C15.7871 9.07907 15.8295 8.9396 15.8295 8.79693C15.8292 8.60569 15.7531 8.42234 15.6179 8.28711C15.4827 8.15188 15.2993 8.0758 15.1081 8.07556ZM15.1081 8.98676C15.0705 8.98676 15.0338 8.97563 15.0026 8.95477C14.9714 8.93391 14.9471 8.90426 14.9327 8.86958C14.9183 8.83489 14.9146 8.79672 14.9219 8.7599C14.9292 8.72307 14.9473 8.68925 14.9739 8.6627C15.0004 8.63615 15.0342 8.61807 15.0711 8.61074C15.1079 8.60342 15.146 8.60718 15.1807 8.62155C15.2154 8.63591 15.2451 8.66025 15.2659 8.69146C15.2868 8.72268 15.2979 8.75938 15.2979 8.79693C15.2979 8.84727 15.2779 8.89553 15.2423 8.93112C15.2067 8.96671 15.1584 8.98672 15.1081 8.98676Z" fill="#00B341"/>
<path d="M13.3034 8.07556C13.1608 8.07556 13.0213 8.11785 12.9027 8.19709C12.7841 8.27633 12.6916 8.38896 12.637 8.52073C12.5824 8.65251 12.5681 8.79752 12.5958 8.93744C12.6236 9.07735 12.6923 9.20589 12.7931 9.3068C12.8939 9.40771 13.0224 9.47646 13.1623 9.50436C13.3022 9.53227 13.4472 9.51807 13.579 9.46356C13.7109 9.40906 13.8236 9.31669 13.9029 9.19814C13.9822 9.07959 14.0246 8.94018 14.0248 8.79754C14.0247 8.60619 13.9487 8.42269 13.8134 8.28733C13.6782 8.15197 13.4948 8.0758 13.3034 8.07556ZM13.3034 8.98676C13.2658 8.98676 13.2291 8.97561 13.1979 8.95473C13.1666 8.93384 13.1423 8.90416 13.128 8.86944C13.1136 8.83471 13.1099 8.79651 13.1173 8.75967C13.1246 8.72283 13.1428 8.68901 13.1694 8.66248C13.196 8.63596 13.2299 8.61793 13.2667 8.61067C13.3036 8.60341 13.3418 8.60726 13.3765 8.62172C13.4111 8.63618 13.4408 8.66061 13.4615 8.69191C13.4823 8.7232 13.4934 8.75997 13.4932 8.79754C13.493 8.84777 13.4729 8.89587 13.4374 8.93133C13.4018 8.96679 13.3536 8.98672 13.3034 8.98676Z" fill="#00B341"/>
</svg>
