<svg width="18" height="17" viewBox="0 0 18 17" fill="none" xmlns="http://www.w3.org/2000/svg">
<path d="M16.7594 13.7779H1.88414C1.55549 13.7775 1.24042 13.6467 1.00804 13.4144C0.775652 13.182 0.644925 12.8669 0.644531 12.5383V3.61311H1.14037V12.5383C1.14037 12.7355 1.21873 12.9247 1.35822 13.0642C1.4977 13.2037 1.68688 13.282 1.88414 13.282H16.7594C16.9567 13.282 17.1458 13.2037 17.2853 13.0642C17.4248 12.9247 17.5032 12.7355 17.5032 12.5383V1.62974C17.5032 1.43248 17.4248 1.2433 17.2853 1.10382C17.1458 0.964339 16.9567 0.885979 16.7594 0.885979H1.88414C1.68688 0.885979 1.4977 0.964339 1.35822 1.10382C1.21873 1.2433 1.14037 1.43248 1.14037 1.62974V2.62143H0.644531V1.62974C0.644925 1.3011 0.775652 0.986029 1.00804 0.753643C1.24042 0.521258 1.55549 0.39053 1.88414 0.390137H16.7594C17.088 0.39053 17.4031 0.521258 17.6355 0.753643C17.8679 0.986029 17.9986 1.3011 17.999 1.62974V12.5383C17.9986 12.8669 17.8679 13.182 17.6355 13.4144C17.4031 13.6467 17.088 13.7775 16.7594 13.7779Z" fill="#00B341"/>
<path d="M13.041 16.2571H5.60339C5.53764 16.2571 5.47458 16.2309 5.42808 16.1844C5.38159 16.1379 5.35547 16.0749 5.35547 16.0091C5.35547 14.7695 6.66176 14.7695 7.09092 14.7695H11.5535C11.9826 14.7695 13.2889 14.7695 13.2889 16.0091C13.2889 16.0749 13.2628 16.1379 13.2163 16.1844C13.1698 16.2309 13.1068 16.2571 13.041 16.2571ZM5.88131 15.7612H12.7631C12.6766 15.456 12.3773 15.2654 11.5535 15.2654H7.09092C6.26707 15.2654 5.96783 15.456 5.88131 15.7612Z" fill="#00B341"/>
<path d="M11.3045 15.2654H7.33776C7.27201 15.2654 7.20895 15.2393 7.16246 15.1928C7.11596 15.1463 7.08984 15.0833 7.08984 15.0175V13.53C7.08984 13.4642 7.11596 13.4012 7.16246 13.3547C7.20895 13.3082 7.27201 13.2821 7.33776 13.2821H11.3045C11.3703 13.2821 11.4333 13.3082 11.4798 13.3547C11.5263 13.4012 11.5524 13.4642 11.5524 13.53V15.0175C11.5524 15.0833 11.5263 15.1463 11.4798 15.1928C11.4333 15.2393 11.3703 15.2654 11.3045 15.2654ZM7.58569 14.7696H11.0566V13.7779H7.58569V14.7696Z" fill="#00B341"/>
<path d="M0.894531 11.2986H17.7532V11.7945H0.894531V11.2986Z" fill="#00B341"/>
<path d="M8.32812 12.2903H10.3115V12.7862H8.32812V12.2903Z" fill="#00B341"/>
</svg>
